<?xml version="1.0" encoding="UTF-8"?>
<svg id="Layer_2" data-name="Layer 2" xmlns="http://www.w3.org/2000/svg" xmlns:xlink="http://www.w3.org/1999/xlink" viewBox="0 0 351.59 457.56">
  <defs>
    <style>
      .cls-1 {
        clip-path: url(#clippath);
      }

      .cls-2, .cls-3 {
        fill: #7ac943;
      }

      .cls-4 {
        fill: #c7f5ff;
        opacity: .34;
      }

      .cls-4, .cls-5, .cls-6, .cls-7, .cls-3, .cls-8, .cls-9 {
        stroke-width: 0px;
      }

      .cls-10 {
        clip-path: url(#clippath-1);
      }

      .cls-11 {
        clip-path: url(#clippath-2);
      }

      .cls-5 {
        opacity: .42;
      }

      .cls-5, .cls-9 {
        fill: #fff;
      }

      .cls-7 {
        fill: #7aac43;
      }

      .cls-8 {
        fill: #afcd8e;
      }
    </style>
    <clipPath id="clippath">
      <path class="cls-3" d="m179.01,361.8c-.66,3.53,2.85,7.15,4.02,8.35,4.59,4.73,10.86,5.25,12.86,5.39,12.92.88,26.71-8.83,45.4-21.98.98-.69,3.35-2.38,6.79-2.89,3.14-.47,4.52.44,7.54.68,6.94.56,14.01-3.05,13.86-4.97-.08-1.06-2.38-1.86-4.04-2-3.45-.3-5.81,2.11-6.13,1.69-.35-.45,1.83-3.98,5.62-5.47,1.97-.78,3.19-.54,5.13-1.88.94-.65,2.24-1.55,2.49-2.99.43-2.45-2.51-4.65-3.13-5.11-.22-.16-4.08-2.93-8.48-1.77-4.67,1.23-5.21,5.62-9.71,10.04-1.19,1.17-4.06,3.72-14.34,6.86-12.62,3.85-14.51,7.44-29.07,10.12-12.82,2.36-27.7.03-28.8,5.93Z"/>
    </clipPath>
    <clipPath id="clippath-1">
      <path class="cls-6" d="m126.04,141.54c-18.67,12.81-36.35,36.74-41.7,61.2-4.68,21.39,7.05,45.05,21.31,54.38,18.92,12.38,44.28,4.06,56.21-19.97,6.52-13.13,9.14-28.84,9.09-44.09-.04-12.85-.56-27.32-3.77-39.4-1.95-7.34-5.55-14.19-10.92-17.72-5.76-3.78-12.88-3.3-19.2-.58-3.65,1.58-7.36,3.66-11.02,6.17Z"/>
    </clipPath>
    <clipPath id="clippath-2">
      <path class="cls-6" d="m228.28,142.08c18.02,13.72,34.48,38.49,38.62,63.18,3.62,21.59-9.27,44.65-23.98,53.26-19.51,11.43-44.42,1.86-55.15-22.72-5.86-13.44-7.7-29.26-6.9-44.49.68-12.83,1.91-27.26,5.72-39.17,2.31-7.24,6.25-13.9,11.78-17.15,5.94-3.49,13.03-2.66,19.2.37,3.57,1.76,7.17,4.02,10.7,6.71Z"/>
    </clipPath>
  </defs>
  <g id="ALIEN_2" data-name="ALIEN 2">
    <g id="Layer_7" data-name="Layer 7">
      <circle class="cls-4" cx="175.8" cy="175.8" r="175.8"/>
      <path class="cls-5" d="m117.54,17.17c-4.74,1.6-23.95,8.39-44.84,24.77-5.94,4.66-32.57,26.2-50.82,66.62C7.28,140.88-.21,181.39,7.36,184.57c3.5,1.47,9.56-5.29,43.56-53.38C99.61,62.31,105.6,50.11,126.51,36.81c31.19-19.84,60.06-19.53,59.36-23.92-.76-4.75-35.03-7.01-68.33,4.27Z"/>
      <g>
        <path class="cls-2" d="m179.01,361.8c-.66,3.53,2.85,7.15,4.02,8.35,4.59,4.73,10.86,5.25,12.86,5.39,12.92.88,26.71-8.83,45.4-21.98.98-.69,3.35-2.38,6.79-2.89,3.14-.47,4.52.44,7.54.68,6.94.56,14.01-3.05,13.86-4.97-.08-1.06-2.38-1.86-4.04-2-3.45-.3-5.81,2.11-6.13,1.69-.35-.45,1.83-3.98,5.62-5.47,1.97-.78,3.19-.54,5.13-1.88.94-.65,2.24-1.55,2.49-2.99.43-2.45-2.51-4.65-3.13-5.11-.22-.16-4.08-2.93-8.48-1.77-4.67,1.23-5.21,5.62-9.71,10.04-1.19,1.17-4.06,3.72-14.34,6.86-12.62,3.85-14.51,7.44-29.07,10.12-12.82,2.36-27.7.03-28.8,5.93Z"/>
        <g class="cls-1">
          <path class="cls-7" d="m191.67,383.98c1.68-.54,7.63-5.24,9.05-6.37,3.31-2.62,8.35-6.6,10.87-10.2,4.18-5.99-1.16-7.25-3.7-7.78-4.71-.99-11.64-.09-20.05,1-.66.09-.04,0-17.2,2.57-6.39.95-8.99,1.34-9.3,1.52-.68.4,11.48-1.18,23.81-1.03,6.28.08,9.42.11,11.81,1.12,1,.42,5,2.3,2.29,8.25-2.54,5.57-9.53,11.56-7.58,10.93Z"/>
        </g>
      </g>
      <g>
        <path class="cls-3" d="m158.84,413.37c-2.11.46-4.11,1.84-5.67,4.27-2.35,3.66-3.39,8.11-3.05,12.43.17,2.14.66,4.25,1.55,6.21.95,2.1,2.38,3.99,1.93,6.42-.75,3.99-3.74,5.2-7.45,5.27-1.81.03-3.67-.01-5.37.61s-3.23,2.11-3.28,3.92c-.21,7.52,16.69,4.45,20.94,3.92,4.59-.57,6.67-4.27,3.59-8.29-.72-.95-1.58-1.83-2-2.94-1.04-2.71.57-5.11,2.22-7.07,2.01-2.37,3.94-4.84,5.37-7.62,1.8-3.5,3.44-8.76,1.09-12.26-2.56-3.8-6.36-5.61-9.87-4.85Z"/>
        <path class="cls-3" d="m190.58,413.46c2.11.46,4.11,1.84,5.67,4.27,2.35,3.66,3.39,8.11,3.05,12.43-.17,2.14-.66,4.25-1.55,6.21-.95,2.1-2.38,3.99-1.93,6.42.75,3.99,3.74,5.2,7.45,5.27,1.81.03,3.67-.01,5.37.61s3.23,2.11,3.28,3.92c.21,7.52-16.69,4.45-20.94,3.92-4.59-.57-6.67-4.27-3.59-8.29.72-.95,1.58-1.83,2-2.94,1.04-2.71-.57-5.11-2.22-7.07-2.01-2.37-3.94-4.84-5.37-7.62-1.8-3.5-3.44-8.76-1.09-12.26,2.56-3.8,6.36-5.61,9.87-4.85Z"/>
        <path class="cls-7" d="m187.29,439.59c.12.34,1.64,1.14,2.01,1.34.84.45,2.13,1.12,3.4,1.22,2.1.16,2.86-1.39,3.19-2.11.62-1.34.62-2.96.62-4.93,0-.16,0,0-.13-3.97-.05-1.48-.07-2.08-.12-2.13-.12-.11-.12,2.73-.8,5.88-.34,1.6-.52,2.41-1.02,3.16-.21.32-1.14,1.62-3.3,1.82-2.02.19-3.99-.68-3.84-.28Z"/>
        <path class="cls-7" d="m162.06,438.9c-.12.34-1.64,1.14-2.01,1.34-.84.45-2.13,1.12-3.4,1.22-2.1.16-2.86-1.39-3.19-2.11-.62-1.34-.62-2.96-.62-4.93,0-.16,0,0,.13-3.97.05-1.48.07-2.08.12-2.13.12-.11.12,2.73.8,5.88.34,1.6.52,2.41,1.02,3.16.21.32,1.14,1.62,3.3,1.82,2.02.19,3.99-.68,3.84-.28Z"/>
        <path class="cls-7" d="m159.55,446.37c.36.06,1.42,1.42,1.67,1.74.59.75,1.48,1.9,1.8,3.13.53,2.04-.86,3.06-1.52,3.51-1.21.84-2.81,1.13-4.75,1.48-.15.03,0,0-3.93.57-1.46.21-2.06.3-2.12.26-.13-.1,2.67-.6,5.65-1.82,1.52-.62,2.28-.93,2.93-1.56.28-.27,1.39-1.41,1.21-3.57-.16-2.03-1.37-3.81-.95-3.74Z"/>
        <path class="cls-7" d="m189.8,446.57c-.36.06-1.42,1.42-1.67,1.74-.59.75-1.48,1.9-1.8,3.13-.53,2.04.86,3.06,1.52,3.51,1.21.84,2.81,1.13,4.75,1.48.15.03,0,0,3.93.57,1.46.21,2.06.3,2.12.26.13-.1-2.67-.6-5.65-1.82-1.52-.62-2.28-.93-2.93-1.56-.28-.27-1.39-1.41-1.21-3.57.16-2.03,1.37-3.81.95-3.74Z"/>
        <g>
          <path class="cls-3" d="m117.86,363.66c-9.57,4.81-13.58,5.13-15.37,5.19-6.99.25-10.96-2.37-15.51.19-4.29,2.42-4.99,7.12-5.02,7.39-.1.77-.56,4.41,1.75,5.78,1.35.8,3.07.47,4.31.23,2.57-.49,3.3-1.54,5.43-2.45,4.09-1.74,8.61-.91,8.71-.35.09.52-3.65.6-6.04,3.31-1.15,1.31-2.25,3.53-1.46,4.32,1.44,1.42,9.74-1.26,14.57-6.69,2.1-2.37,2.42-3.99,5.19-5.96,3.03-2.15,6.2-2.72,7.51-2.97,3.11-.58,7.02-1.99,10.18-1.64,2.98.33,5.2,2.51,7.76,3.7,2.88,1.34,5.86,2.64,8.86,3.75,5.49,2.03,11.42,3.44,17.39,2.95,2.21-.18,9.16-.84,14.14-5.68,1.27-1.23,5.07-4.93,4.25-8.44-1.37-5.87-14.93-7.95-29.22-10.02-3.56-.52-7.12-.8-10.68-1.1s-7.12-1.54-10.9-.51c-2.83.76-5.09,2.53-7.35,4.17s-4.81,2.94-7.4,4.27c-.37.19-.74.38-1.1.56Z"/>
          <path class="cls-7" d="m157.56,387.84c-1.52-.2-6.77-4.16-8.02-5.11-2.92-2.2-7.37-5.55-9.51-9.1-3.56-5.89,1.41-8.69,3.77-9.94,4.37-2.32,10.71-3.02,18.39-3.87.61-.07.04,0,15.69-1.33,5.83-.5,8.21-.7,8.48-.57.61.29-10.5,1.51-21.85,4.77-5.78,1.66-8.67,2.49-10.92,4.26-.94.74-4.71,3.92-2.5,10.13,2.07,5.81,8.21,11,6.45,10.76Z"/>
        </g>
        <path class="cls-3" d="m175.44,343.68c-7.09-.13-14.21,2.25-18.14,7.48-3.09,4.1-3.86,9.15-5.54,13.87-5.04,14.19-16.89,24.82-17.14,40.63-.19,11.89,4.9,22.94,14.94,29.38,9.47,6.07,21.37,8,32.44,6.92,10.79-1.06,22.88-6.3,28.75-15.85,4.09-6.64,5.83-14.67,5.04-22.42-.87-8.61-5.22-16.01-9.62-23.26-3.38-5.56-6.56-12.15-8.46-18.42-1.52-5-2.6-9.87-6.88-13.3-4.28-3.43-9.97-4.93-15.38-5.03Z"/>
        <path class="cls-7" d="m159.43,342.72c-.17.93,2.73,4.48,3.42,5.33,1.61,1.98,4.06,4.98,7.3,6.65,5.38,2.76,9.63.11,11.56-1.16,3.59-2.35,5.93-6.04,8.79-10.51.22-.35,0-.02,5.39-9.18,2-3.41,2.82-4.8,2.76-4.98-.15-.39-4.27,6.08-10.62,12.47-3.23,3.25-4.85,4.88-7.3,6.03-1.03.48-5.38,2.37-11.44.38-5.68-1.87-9.66-6.08-9.85-5.01Z"/>
        <path class="cls-7" d="m200.11,432.66c.75.45,4.41-3.13,5.29-3.99,2.04-1.99,5.14-5.02,7.27-9.54,3.54-7.49,2.23-14.46,1.58-17.64-1.2-5.9-3.81-10.24-6.99-15.5-.25-.41-.02-.02-6.61-10.11-2.46-3.76-3.46-5.29-3.62-5.23-.37.14,4.22,7.74,8.24,18.68,2.05,5.57,3.07,8.36,3.5,12.29.18,1.65.82,8.6-2.22,17.29-2.85,8.14-7.32,13.21-6.45,13.73Z"/>
        <circle class="cls-8" cx="175.75" cy="424.06" r="2.64"/>
        <ellipse class="cls-8" cx="163.12" cy="373.75" rx="2.99" ry="2.58"/>
        <ellipse class="cls-7" cx="163.04" cy="373.75" rx="1.31" ry="1.13"/>
        <ellipse class="cls-8" cx="187.91" cy="373.75" rx="2.99" ry="2.58"/>
        <ellipse class="cls-7" cx="188.18" cy="373.75" rx="1.65" ry="1.42"/>
        <ellipse class="cls-8" cx="175.34" cy="444.33" rx="2.64" ry="1.31" transform="translate(-282.84 579.42) rotate(-84.89)"/>
        <ellipse class="cls-7" cx="175.39" cy="442.23" rx="3.03" ry="1.69"/>
        <ellipse class="cls-7" cx="175.78" cy="424.05" rx="2.64" ry=".51" transform="translate(-272.62 325.79) rotate(-55.12)"/>
        <ellipse class="cls-7" cx="175.78" cy="424.01" rx=".51" ry="2.64" transform="translate(-235.86 220.96) rotate(-41.23)"/>
        <g>
          <path class="cls-3" d="m172.85,81.72c-6.55-.02-13.09.46-19.53,1.42-34.73,5.21-68.1,24.97-85.18,56.32-33.59,61.65,15.14,130.72,31.02,153.28,9.35,13.27,25.26,35.87,45.7,48.76,17.14,10.81,38.84,10.81,55.98,0,20.44-12.9,36.36-35.49,45.7-48.76,15.88-22.55,64.61-91.63,31.02-153.28-20.52-37.66-62.85-57.64-104.71-57.74Z"/>
          <path class="cls-7" d="m118.4,262.61c.91,1.52,10.03,1.67,12.21,1.71,5.07.09,12.8.22,20.08-2.74,12.09-4.92,15.52-15.34,17-20.15,2.75-8.94,1.83-17.71.72-28.34-.09-.84-.01-.04-3.02-21.09-1.12-7.84-1.57-11.04-1.91-11.17-.74-.29.88,15.08-1.17,33.94-1.05,9.6-1.57,14.4-4.03,19.89-1.03,2.3-5.58,11.85-17.8,18.91-11.43,6.61-23.13,7.3-22.08,9.06Z"/>
          <path class="cls-7" d="m119.55,272.01c-.21.7,2.28,3.54,2.88,4.22,1.39,1.58,3.5,3.98,6.44,5.39,4.88,2.33,9.02.48,10.91-.41,3.51-1.65,5.94-4.37,8.88-7.68.23-.26,0-.02,5.62-6.8,2.09-2.53,2.94-3.56,2.89-3.7-.12-.31-4.37,4.47-10.72,9.1-3.23,2.36-4.85,3.53-7.22,4.31-.99.32-5.19,1.59-10.75-.18-5.21-1.66-8.68-5.05-8.93-4.24Z"/>
          <path class="cls-7" d="m240.71,274.93c.26.68-2.01,3.7-2.56,4.42-1.27,1.68-3.19,4.23-6.02,5.85-4.69,2.69-8.96,1.15-10.91.41-3.62-1.38-6.25-3.92-9.43-6.99-.25-.24-.01-.02-6.11-6.37-2.27-2.36-3.2-3.33-3.16-3.47.1-.32,4.7,4.13,11.37,8.27,3.4,2.11,5.1,3.16,7.52,3.76,1.01.25,5.29,1.2,10.71-.99,5.07-2.05,8.28-5.69,8.59-4.9Z"/>
          <path class="cls-7" d="m232.04,262.32c-.91,1.52-10.03,1.67-12.21,1.71-5.07.09-12.8.22-20.08-2.74-12.09-4.92-15.52-15.34-17-20.15-2.75-8.94-1.83-17.71-.72-28.34.09-.84.01-.04,3.02-21.09,1.12-7.84,1.57-11.04,1.91-11.17.74-.29-.88,15.08,1.17,33.94,1.05,9.6,1.57,14.4,4.03,19.89,1.03,2.3,5.58,11.85,17.8,18.91,11.43,6.61,23.13,7.3,22.08,9.06Z"/>
          <path class="cls-7" d="m252.98,110.84c2.29-1.27,11.86,11.95,14.15,15.12,5.32,7.35,13.43,18.55,18.33,34.41,8.14,26.34,2.42,49.34-.32,59.82-5.1,19.46-13.84,33.19-24.44,49.85-.84,1.31-.05.05-21.87,31.84-8.12,11.83-11.44,16.68-11.9,16.4-1.02-.61,14.32-24.66,28.94-60.14,7.45-18.07,11.18-27.11,13.51-40.2.98-5.48,4.76-28.65-1.61-58.85-5.96-28.28-17.45-46.77-14.79-48.24Z"/>
          <g>
            <path d="m126.04,141.54c-18.67,12.81-36.35,36.74-41.7,61.2-4.68,21.39,7.05,45.05,21.31,54.38,18.92,12.38,44.28,4.06,56.21-19.97,6.52-13.13,9.14-28.84,9.09-44.09-.04-12.85-.56-27.32-3.77-39.4-1.95-7.34-5.55-14.19-10.92-17.72-5.76-3.78-12.88-3.3-19.2-.58-3.65,1.58-7.36,3.66-11.02,6.17Z"/>
            <g class="cls-10">
              <ellipse class="cls-9" cx="148.07" cy="230.99" rx="18.93" ry="21.84" transform="translate(-35.23 26.83) rotate(-9.26)"/>
              <path class="cls-9" d="m90.77,199.79c-2.05-.67,3.64-15.18,4.26-16.59,3.71-8.4,9.28-15.79,15.26-22.69,3.52-4.06,7.04-8.12,10.87-11.89,1.9-1.87,3.92-4.14,6.19-5.58,2.3-1.46,1.55-.82,1.95.7.88,3.33,1.99,8.24-.35,11.03-3.56,4.24-9.72,6.94-14.04,10.43-5.79,4.69-11.34,9.99-15.7,16.06-.77,1.07-9.13,18.3-8.45,18.52Z"/>
              <path class="cls-9" d="m133.46,140.6c1.14-.96,2.95-1.52,4.37-2.02,2.7-.95,4.85-1.28,6.17-1.47,2.47-.37,5.01-.46,7.49-.08.51.08,1.04.19,1.43.52,1.73,1.51-.96,2.43-2.09,2.26-1.67-.26-3.12-1.42-4.8-1.63-4.62-.58-8.25,1.62-12.57,2.42Z"/>
            </g>
          </g>
          <g>
            <path d="m228.28,142.08c18.02,13.72,34.48,38.49,38.62,63.18,3.62,21.59-9.27,44.65-23.98,53.26-19.51,11.43-44.42,1.86-55.15-22.72-5.86-13.44-7.7-29.26-6.9-44.49.68-12.83,1.91-27.26,5.72-39.17,2.31-7.24,6.25-13.9,11.78-17.15,5.94-3.49,13.03-2.66,19.2.37,3.57,1.76,7.17,4.02,10.7,6.71Z"/>
            <g class="cls-11">
              <ellipse class="cls-9" cx="201.86" cy="230.33" rx="21.84" ry="18.93" transform="translate(-65.65 379.45) rotate(-77.91)"/>
              <path class="cls-9" d="m218.42,139.23c.04-.09-1.71-1.19-3.94-2.13-2.19-.92-3.96-1.29-5.04-1.52-1.71-.36-2.73-.41-4.77-.51-1.06-.05-2.08-.06-2.67.51-.13.12-.43.43-.34.91.1.54.68,1.13,1.25,1.28.44.11.66-.1,1.67-.64.88-.47,1.33-.71,1.84-.85.36-.1.96-.21,2.73.04,2.34.33,4.18.92,4.62,1.07,2.87.94,4.62,1.93,4.66,1.84Z"/>
              <path class="cls-9" d="m222.02,141.7c.44-.55,5.43,2.7,8.35,4.88,2.63,1.96,4.51,3.77,5.61,4.87,5.5,5.5,8.96,11.09,12.05,16.01,3,4.79,4.77,8.33,8.31,15.42,1.88,3.77,7.45,15.1,6.13,15.92-.59.36-1.87-1.78-5.23-2.57-2.12-.49-2.84.07-4.03-.25-3.61-.96-4.43-8.17-5.55-13.55,0,0-1.51-7.26-6.36-18-6.82-15.1-19.9-21.97-19.28-22.74Z"/>
            </g>
          </g>
        </g>
      </g>
    </g>
  </g>
</svg>