<?xml version="1.0" encoding="UTF-8"?>
<svg id="Layer_2" data-name="Layer 2" xmlns="http://www.w3.org/2000/svg" xmlns:xlink="http://www.w3.org/1999/xlink" viewBox="0 0 502.54 810.35">
  <defs>
    <style>
      .cls-1 {
        clip-path: url(#clippath);
      }

      .cls-2 {
        clip-path: url(#clippath-1);
      }

      .cls-3, .cls-4, .cls-5, .cls-6, .cls-7, .cls-8, .cls-9 {
        stroke-width: 0px;
      }

      .cls-4 {
        fill: #ff7bac;
      }

      .cls-5 {
        fill: #ff5bac;
      }

      .cls-6 {
        fill: #ff71ac;
      }

      .cls-7 {
        fill: #ff65ac;
      }

      .cls-8 {
        fill: #fff;
      }

      .cls-9 {
        fill: #ff55ac;
      }
    </style>
    <clipPath id="clippath">
      <path class="cls-3" d="m149.76,128.99c-40.26,27.61-78.37,79.21-89.91,131.94-10.09,46.11,15.19,97.13,45.95,117.25,40.78,26.68,95.47,8.75,121.18-43.05,14.05-28.31,19.71-62.18,19.6-95.06-.09-27.7-1.21-58.91-8.13-84.95-4.21-15.84-11.97-30.6-23.54-38.2-12.41-8.15-27.77-7.12-41.39-1.24-7.88,3.4-15.86,7.89-23.76,13.31Z"/>
    </clipPath>
    <clipPath id="clippath-1">
      <path class="cls-3" d="m370.2,130.15c38.84,29.57,74.35,82.99,83.27,136.23,7.8,46.55-19.98,96.26-51.69,114.84-42.06,24.63-95.78,4.02-118.9-48.99-12.63-28.97-16.61-63.08-14.87-95.91,1.46-27.66,4.13-58.78,12.33-84.45,4.98-15.61,13.47-29.97,25.4-36.99,12.8-7.53,28.09-5.73,41.4.81,7.7,3.78,15.45,8.67,23.07,14.47Z"/>
    </clipPath>
  </defs>
  <g id="ALIEN_1" data-name="ALIEN 1">
    <g id="Layer_2-2" data-name="Layer 2">
      <g>
        <path class="cls-4" d="m220.47,715.06c-4.55.98-8.86,3.96-12.22,9.2-5.06,7.89-7.31,17.48-6.58,26.8.36,4.62,1.43,9.16,3.34,13.38,2.05,4.52,5.14,8.6,4.16,13.83-1.62,8.61-8.07,11.2-16.06,11.35-3.9.07-7.91-.03-11.57,1.32s-6.96,4.55-7.07,8.45c-.45,16.21,35.99,9.59,45.15,8.45,9.89-1.23,14.38-9.21,7.75-17.88-1.56-2.04-3.4-3.95-4.32-6.35-2.23-5.85,1.22-11.02,4.8-15.24,4.34-5.12,8.5-10.45,11.58-16.44,3.87-7.54,7.42-18.89,2.34-26.44-5.51-8.2-13.72-12.09-21.29-10.45Z"/>
        <path class="cls-4" d="m288.91,715.26c4.55.98,8.86,3.96,12.22,9.2,5.06,7.89,7.31,17.48,6.58,26.8-.36,4.62-1.43,9.16-3.34,13.38-2.05,4.52-5.14,8.6-4.16,13.83,1.62,8.61,8.07,11.2,16.06,11.35,3.9.07,7.91-.03,11.57,1.32s6.96,4.55,7.07,8.45c.45,16.21-35.99,9.59-45.15,8.45-9.89-1.23-14.38-9.21-7.75-17.88,1.56-2.04,3.4-3.95,4.32-6.35,2.23-5.85-1.22-11.02-4.8-15.24-4.34-5.12-8.5-10.45-11.58-16.44-3.87-7.54-7.42-18.89-2.34-26.44,5.51-8.2,13.72-12.09,21.29-10.45Z"/>
        <path class="cls-7" d="m281.81,771.59c.27.74,3.54,2.47,4.33,2.88,1.82.96,4.6,2.42,7.33,2.63,4.54.34,6.17-2.99,6.88-4.55,1.33-2.89,1.34-6.39,1.34-10.64,0-.33,0-.02-.28-8.57-.1-3.18-.14-4.48-.26-4.59-.26-.24-.26,5.89-1.72,12.68-.74,3.46-1.11,5.19-2.21,6.82-.46.68-2.46,3.48-7.12,3.93-4.37.42-8.6-1.46-8.29-.6Z"/>
        <path class="cls-7" d="m227.41,770.12c-.27.74-3.54,2.47-4.33,2.88-1.82.96-4.6,2.42-7.33,2.63-4.54.34-6.17-2.99-6.88-4.55-1.33-2.89-1.34-6.39-1.34-10.64,0-.33,0-.02.28-8.57.1-3.18.14-4.48.26-4.59.26-.24.26,5.89,1.72,12.68.74,3.46,1.11,5.19,2.21,6.82.46.68,2.46,3.48,7.12,3.93,4.37.42,8.6-1.46,8.29-.6Z"/>
        <path class="cls-7" d="m222.01,786.22c.78.13,3.05,3.05,3.6,3.75,1.27,1.62,3.19,4.1,3.88,6.75,1.13,4.41-1.86,6.6-3.27,7.58-2.61,1.82-6.06,2.44-10.24,3.19-.33.06-.02,0-8.48,1.23-3.15.46-4.44.65-4.57.55-.29-.21,5.76-1.29,12.18-3.92,3.27-1.34,4.91-2.01,6.33-3.37.59-.57,3-3.03,2.62-7.7-.35-4.37-2.95-8.21-2.04-8.06Z"/>
        <path class="cls-7" d="m287.22,786.64c-.78.13-3.05,3.05-3.6,3.75-1.27,1.62-3.19,4.1-3.88,6.75-1.13,4.41,1.86,6.6,3.27,7.58,2.61,1.82,6.06,2.44,10.24,3.19.33.06.02,0,8.48,1.23,3.15.46,4.44.65,4.57.55.29-.21-5.76-1.29-12.18-3.92-3.27-1.34-4.91-2.01-6.33-3.37-.59-.57-3-3.03-2.62-7.7.35-4.37,2.95-8.21,2.04-8.06Z"/>
        <path class="cls-4" d="m144.7,660.88c-6.96,20.11-12.3,25.81-14.79,28.22-9.77,9.44-19.27,10.36-22.18,20.36-2.73,9.43,3.01,17.9,3.34,18.38.96,1.36,5.53,7.82,10.84,7.03,3.11-.46,5.12-3.21,6.58-5.2,3.01-4.11,2.56-6.75,4.34-10.95,3.43-8.09,11.16-12.6,12.11-11.82.88.72-4.43,5.68-3.99,13.13.21,3.59,1.82,8.59,4.09,8.83,4.12.42,12.3-14.61,11.48-29.6-.36-6.53-2.23-9.56-1.04-16.29,1.3-7.38,5.06-12.4,6.61-14.47,3.68-4.95,7.31-12.28,12.39-15.8,4.79-3.32,11.12-2.69,16.55-4.08,6.1-1.56,12.27-3.33,18.22-5.42,10.86-3.83,21.46-9.23,29.41-17.74,2.94-3.15,12.06-13.19,12.32-27.41.07-3.61.27-14.48-5.96-19.07-10.42-7.67-33.03,6.51-56.7,21.66-5.9,3.77-11.46,7.91-17.04,12.04s-12.51,6.73-16.53,13.27c-3,4.89-3.74,10.65-4.65,16.2-.95,5.76-2.74,10.94-4.58,16.44-.26.79-.53,1.56-.79,2.31Z"/>
        <path class="cls-7" d="m236.91,648.45c-2.49,1.63-15.77,2.06-18.95,2.16-7.39.23-18.64.59-26.83-2.34-13.61-4.86-10.43-15.81-8.81-20.86,3-9.39,11.16-18.71,21.06-30.01.78-.89.05-.04,20.81-22.43,7.73-8.33,10.88-11.74,11.46-11.89,1.3-.32-13.04,16-24.77,35.92-5.98,10.14-8.97,15.21-9.7,20.96-.3,2.41-1.19,12.39,10.93,19.52,11.35,6.67,27.69,7.07,24.8,8.97Z"/>
        <path class="cls-4" d="m256.26,564.8c-15.28-.29-30.63,4.85-39.12,16.12-6.66,8.85-8.33,19.72-11.95,29.9-10.87,30.58-36.42,53.5-36.95,87.61-.4,25.64,10.56,49.46,32.2,63.34,20.41,13.09,46.08,17.25,69.94,14.91,23.27-2.28,49.32-13.59,62-34.17,8.82-14.33,12.57-31.63,10.87-48.34-1.88-18.57-11.25-34.51-20.75-50.14-7.29-11.98-14.14-26.2-18.24-39.72-3.27-10.78-5.61-21.29-14.84-28.67-9.24-7.39-21.49-10.62-33.17-10.84Z"/>
        <path class="cls-7" d="m221.76,562.75c-.36,2,5.88,9.65,7.38,11.49,3.47,4.26,8.76,10.75,15.75,14.33,11.61,5.95,20.77.23,24.93-2.5,7.73-5.06,12.8-13.01,18.94-22.66.48-.76.02-.05,11.62-19.8,4.32-7.35,6.09-10.36,5.94-10.74-.33-.85-9.2,13.1-22.89,26.88-6.97,7.01-10.46,10.52-15.75,12.99-2.21,1.03-11.59,5.11-24.67.82-12.25-4.02-20.83-13.12-21.25-10.8Z"/>
        <path class="cls-7" d="m309.46,756.65c1.62.97,9.51-6.75,11.41-8.6,4.39-4.29,11.08-10.83,15.68-20.56,7.64-16.16,4.81-31.18,3.42-38.03-2.59-12.73-8.22-22.07-15.06-33.41-.54-.89-.03-.04-14.26-21.79-5.29-8.1-7.45-11.41-7.81-11.27-.8.31,9.1,16.69,17.77,40.27,4.42,12.01,6.62,18.02,7.55,26.5.39,3.55,1.77,18.54-4.79,37.28-6.14,17.54-15.78,28.47-13.91,29.6Z"/>
        <circle class="cls-7" cx="256.94" cy="738.1" r="5.69"/>
        <ellipse class="cls-6" cx="229.7" cy="629.64" rx="6.44" ry="5.56"/>
        <ellipse class="cls-5" cx="229.54" cy="629.64" rx="2.83" ry="2.44"/>
        <ellipse class="cls-6" cx="283.16" cy="629.64" rx="6.44" ry="5.56"/>
        <ellipse class="cls-5" cx="283.73" cy="629.64" rx="3.56" ry="3.07"/>
        <ellipse class="cls-9" cx="256.06" cy="781.82" rx="5.69" ry="2.83" transform="translate(-545.46 967.25) rotate(-84.89)"/>
        <ellipse class="cls-4" cx="256.17" cy="777.28" rx="6.52" ry="3.64"/>
        <ellipse class="cls-9" cx="257.01" cy="738.09" rx="5.69" ry="1.09" transform="translate(-495.47 526.9) rotate(-55.12)"/>
        <ellipse class="cls-9" cx="257.01" cy="738.01" rx="1.09" ry="5.69" transform="translate(-422.67 352.32) rotate(-41.23)"/>
        <g>
          <path class="cls-4" d="m250.69,0c-14.12-.03-28.23.98-42.12,3.07C133.7,14.31,61.75,56.92,24.93,124.5c-72.43,132.91,32.63,281.85,66.88,330.47,20.15,28.61,54.47,77.33,98.53,105.13,36.95,23.31,83.75,23.31,120.7,0,44.07-27.8,78.39-76.53,98.54-105.13,34.25-48.62,139.31-197.56,66.88-330.47C432.21,43.31,340.95.21,250.69,0Z"/>
          <path class="cls-7" d="m133.29,390.02c1.96,3.27,21.62,3.6,26.33,3.68,10.94.18,27.6.46,43.29-5.92,26.07-10.6,33.45-33.07,36.65-43.45,5.93-19.27,3.95-38.18,1.55-61.11-.19-1.81-.03-.09-6.52-45.48-2.42-16.9-3.39-23.8-4.12-24.08-1.6-.62,1.91,32.52-2.52,73.17-2.25,20.7-3.38,31.05-8.69,42.89-2.22,4.96-12.03,25.55-38.37,40.76-24.65,14.24-49.88,15.74-47.61,19.53Z"/>
          <path class="cls-7" d="m135.76,410.28c-.46,1.51,4.92,7.63,6.21,9.09,2.99,3.4,7.55,8.58,13.88,11.61,10.51,5.03,19.45,1.04,23.52-.88,7.56-3.55,12.8-9.43,19.15-16.55.5-.56.02-.03,12.12-14.67,4.5-5.45,6.35-7.67,6.23-7.97-.26-.66-9.43,9.65-23.12,19.62-6.97,5.08-10.46,7.62-15.56,9.29-2.14.7-11.18,3.43-23.18-.4-11.23-3.58-18.72-10.9-19.25-9.14Z"/>
          <path class="cls-7" d="m397,416.58c.57,1.47-4.34,7.97-5.51,9.53-2.73,3.62-6.89,9.12-12.97,12.62-10.11,5.8-19.32,2.48-23.52.88-7.8-2.98-13.46-8.44-20.33-15.08-.54-.52-.02-.03-13.18-13.72-4.9-5.1-6.9-7.18-6.81-7.48.21-.68,10.13,8.91,24.52,17.84,7.33,4.54,10.99,6.82,16.21,8.1,2.18.54,11.4,2.59,23.08-2.12,10.93-4.41,17.85-12.26,18.51-10.56Z"/>
          <path class="cls-7" d="m378.3,389.4c-1.96,3.27-21.62,3.6-26.33,3.68-10.94.18-27.6.46-43.29-5.92-26.07-10.6-33.45-33.07-36.65-43.45-5.93-19.27-3.95-38.18-1.55-61.11.19-1.81.03-.09,6.52-45.48,2.42-16.9,3.39-23.8,4.12-24.08,1.6-.62-1.91,32.52,2.52,73.17,2.25,20.7,3.38,31.05,8.69,42.89,2.22,4.96,12.03,25.55,38.37,40.76,24.65,14.24,49.88,15.74,47.61,19.53Z"/>
          <path class="cls-7" d="m423.45,62.8c4.93-2.74,25.56,25.76,30.51,32.59,11.48,15.86,28.96,40.01,39.52,74.19,17.55,56.79,5.22,106.38-.69,128.97-10.99,41.95-29.83,71.56-52.7,107.48-1.8,2.83-.11.11-47.15,68.65-17.51,25.51-24.66,35.96-25.66,35.36-2.21-1.31,30.87-53.16,62.41-129.66,16.06-38.97,24.1-58.45,29.12-86.67,2.1-11.82,10.26-61.76-3.47-126.89-12.85-60.96-37.61-100.83-31.9-104.01Z"/>
          <g>
            <path d="m149.76,128.99c-40.26,27.61-78.37,79.21-89.91,131.94-10.09,46.11,15.19,97.13,45.95,117.25,40.78,26.68,95.47,8.75,121.18-43.05,14.05-28.31,19.71-62.18,19.6-95.06-.09-27.7-1.21-58.91-8.13-84.95-4.21-15.84-11.97-30.6-23.54-38.2-12.41-8.15-27.77-7.12-41.39-1.24-7.88,3.4-15.86,7.89-23.76,13.31Z"/>
            <g class="cls-1">
              <ellipse class="cls-8" cx="197.25" cy="321.85" rx="40.81" ry="47.09" transform="translate(-49.21 35.93) rotate(-9.26)"/>
              <path class="cls-8" d="m73.73,254.57c-4.41-1.45,7.84-32.73,9.19-35.77,8.01-18.11,20.01-34.04,32.91-48.92,7.58-8.75,15.19-17.51,23.44-25.64,4.09-4.04,8.46-8.93,13.34-12.02,4.96-3.14,3.34-1.76,4.2,1.52,1.89,7.18,4.3,17.77-.75,23.78-7.69,9.15-20.96,14.96-30.27,22.5-12.49,10.12-24.44,21.54-33.84,34.63-1.65,2.3-19.68,39.45-18.22,39.93Z"/>
              <path class="cls-8" d="m165.77,126.96c2.46-2.07,6.37-3.28,9.43-4.36,5.82-2.05,10.46-2.76,13.29-3.18,5.34-.79,10.81-.99,16.15-.17,1.1.17,2.24.4,3.08,1.13,3.74,3.26-2.07,5.25-4.51,4.88-3.61-.55-6.73-3.06-10.34-3.52-9.97-1.25-17.79,3.49-27.1,5.22Z"/>
            </g>
          </g>
          <g>
            <path d="m370.2,130.15c38.84,29.57,74.35,82.99,83.27,136.23,7.8,46.55-19.98,96.26-51.69,114.84-42.06,24.63-95.78,4.02-118.9-48.99-12.63-28.97-16.61-63.08-14.87-95.91,1.46-27.66,4.13-58.78,12.33-84.45,4.98-15.61,13.47-29.97,25.4-36.99,12.8-7.53,28.09-5.73,41.4.81,7.7,3.78,15.45,8.67,23.07,14.47Z"/>
            <g class="cls-2">
              <ellipse class="cls-8" cx="313.23" cy="320.42" rx="47.09" ry="40.81" transform="translate(-65.71 559.56) rotate(-77.91)"/>
              <path class="cls-8" d="m348.94,123.99c.09-.19-3.68-2.58-8.5-4.59-4.73-1.98-8.53-2.79-10.86-3.27-3.68-.77-5.88-.88-10.28-1.1-2.29-.11-4.49-.13-5.76,1.1-.27.27-.92.93-.73,1.96.22,1.17,1.47,2.44,2.69,2.75.95.24,1.43-.22,3.6-1.38,1.89-1.01,2.87-1.53,3.96-1.83.78-.22,2.06-.44,5.88.1,5.05.71,9.02,1.99,9.96,2.3,6.18,2.03,9.96,4.15,10.04,3.97Z"/>
              <path class="cls-8" d="m356.7,129.32c.95-1.18,11.72,5.82,18,10.52,5.67,4.24,9.73,8.12,12.11,10.5,11.86,11.86,19.33,23.9,25.98,34.52,6.48,10.33,10.29,17.97,17.93,33.25,4.06,8.13,16.06,32.56,13.21,34.32-1.27.78-4.03-3.84-11.29-5.53-4.58-1.07-6.12.16-8.68-.53-7.78-2.08-9.56-17.61-11.97-29.21,0,0-3.26-15.66-13.71-38.8-14.7-32.56-42.9-47.38-41.57-49.03Z"/>
            </g>
          </g>
        </g>
      </g>
    </g>
  </g>
</svg>