<?xml version="1.0" encoding="UTF-8"?>
<svg id="Layer_2" data-name="Layer 2" xmlns="http://www.w3.org/2000/svg" viewBox="0 0 320.37 656.76">
  <defs>
    <style>
      .cls-1 {
        fill: #f6f8fa;
      }

      .cls-1, .cls-2, .cls-3, .cls-4, .cls-5, .cls-6, .cls-7, .cls-8, .cls-9, .cls-10, .cls-11, .cls-12, .cls-13, .cls-14, .cls-15, .cls-16, .cls-17, .cls-18, .cls-19, .cls-20, .cls-21, .cls-22, .cls-23, .cls-24, .cls-25, .cls-26, .cls-27, .cls-28, .cls-29, .cls-30, .cls-31, .cls-32, .cls-33, .cls-34, .cls-35, .cls-36, .cls-37 {
        stroke-width: 0px;
      }

      .cls-2 {
        fill: #5d6469;
      }

      .cls-3 {
        fill: #4a7a9d;
      }

      .cls-4 {
        fill: #5585b5;
      }

      .cls-5 {
        fill: #8ab9d2;
      }

      .cls-6 {
        fill: #6e7784;
      }

      .cls-7 {
        fill: #87a5be;
      }

      .cls-8 {
        fill: #2d5471;
      }

      .cls-9 {
        fill: #3695c1;
      }

      .cls-10 {
        fill: #3a4d57;
      }

      .cls-11 {
        fill: #587d8c;
      }

      .cls-12 {
        fill: #1a68a2;
      }

      .cls-13 {
        fill: #0a0d12;
      }

      .cls-14 {
        fill: #3d87a6;
      }

      .cls-15 {
        fill: #0c1b3d;
      }

      .cls-16 {
        fill: #0f1022;
      }

      .cls-17 {
        fill: #114266;
      }

      .cls-18 {
        fill: #071d31;
      }

      .cls-19 {
        fill: #071a23;
      }

      .cls-20 {
        fill: #062b47;
      }

      .cls-21 {
        fill: #20617e;
      }

      .cls-22 {
        fill: #213445;
      }

      .cls-23 {
        fill: #167b9e;
      }

      .cls-24 {
        fill: #dfe4ef;
      }

      .cls-25 {
        fill: #def5fd;
      }

      .cls-26 {
        fill: #a3cade;
      }

      .cls-27 {
        fill: #a5bdd3;
      }

      .cls-28 {
        fill: #cee4f4;
      }

      .cls-29 {
        fill: #b7e8f8;
      }

      .cls-30 {
        fill: #b5bec6;
      }

      .cls-31 {
        fill: #334b6f;
      }

      .cls-32 {
        fill: #8c767b;
      }

      .cls-33 {
        fill: #7c95a2;
      }

      .cls-34 {
        fill: #6ba9ca;
      }

      .cls-35 {
        fill: #6793b8;
      }

      .cls-36 {
        fill: #738d8f;
      }

      .cls-37 {
        fill: #043342;
      }
    </style>
  </defs>
  <g id="Human">
    <g>
      <path class="cls-20" d="m224.83,269.13c7.03,6.36,13.83,17.24,22.52,21.2,3.52,11.53,10.05,18.93,10.6,30.47,1.13,23.67-17.4,35.6-19.87,19.87,25.12-13.99,4.07-37.06-6.62-52.99-10.53-15.68-7.39-14.53-7.95-15.23-1.84-2.34-35.17-35.38-37.75-35.1-1.27,3.29-4.14,4.67-7.29,5.3-24.12,4.84-52.47,9.68-72.86-6.62,13.66-.82,69.21-3.12,84.12-2.65,11.14,12.51,23.29,23.93,35.1,35.77Z"/>
      <path class="cls-20" d="m22.15,209.52c-6.12,1.22.52.68,5.3,2.65l1.32,7.95c-16.17-5.56-2.46.64.66,2.65,7.64,4.92,15.67,14.52,16.56,10.6,7.4,9.89-.3,13.12,11.92,11.92-.27,1.5-2.1,1.25,1.32,6.62-.12.21-3.59-1.35-2.65,3.97-1.4-.62-5.13-3.05-5.96-2.65-1.78,3.9-1.73,7.92-3.31,11.92l-6.62,2.65c.02-1.32,1.64-1.45,1.32-3.31-1.7-10.08-35.89-54.87-37.09-10.6l9.94-1.99c-19.04,16.41,17.14-7.56-5.96,11.26.65.86,9.75,1.67,11.92,1.99-2.42,1.57-3.63,3.66-3.97,3.97-9.97,8.91,3.38,15.19-2.65,23.84-9.78-9.66,3.14-22.03-11.92-10.6-.23-1.38-6.44-4.32,2.65-13.91.03-.97-2.7-.36-2.65-1.32,1.72-34.73,1.03-41.04,21.86-33.78,6.49,2.26,14.53,12.01,19.21,9.94,1.5-2.18-15.48-24.07-34.44-18.55,8.11-8.33,3.71-12.55,3.97-13.25.57-1.5,3.89-3.07,3.97-3.31,3.73-3.55,4.5,1.09,5.3,1.32Z"/>
      <path class="cls-1" d="m287.09,251.91c13.09,1.21,19.93,3.78,26.49,15.9,3.37,6.22,9.65,24.59,5.3,27.82-1.63-15.39-24.51-19.71-36.43-13.25-8.33-15.57-20.88-26.51,4.64-30.47Z"/>
      <g>
        <path class="cls-20" d="m51.3,360.54c-17.02.32-16.13,9.42-28.48,2.65-8.15-4.46-13.44-26.25-12.58-33.12.14-1.12,9.79-19.08,10.6-19.87,4.91,15.98,21.19,54.59,19.87,41.73-.36-3.52-15.07-29.29.66-21.86,2.87,1.36,10.15,25.24,9.94,30.47Z"/>
        <path class="cls-1" d="m57.92,341.99c2.18,11.17,1.53,8.85,1.32,18.55-4.98,1.67-7.55,0-7.95,0,.22-5.23-7.07-29.11-9.94-30.47-15.73-7.43-1.02,18.33-.66,21.86,1.32,12.86-14.96-25.75-19.87-41.73,8.82-8.62,13.5.6,14.57-1.99-17.65-15.07,1.88-9.8,11.26,11.26,9.73-6.87,4.44,7.22,5.96,12.58.49,1.72,4.79,7.33,5.3,9.94Z"/>
      </g>
      <path class="cls-1" d="m16.85,269.13l25.17,7.95c-.18,1.45,1.83,5.73,2.65,9.27,1.14,4.96,3.88,7.51,3.97,7.95,6.01,26.83-13.21-9.69-35.77,1.32v-1.32c.52-.42.54-.2,1.32-1.32,6.03-8.66-7.32-14.93,2.65-23.84Z"/>
      <path class="cls-1" d="m91.04,124.74c.02,1.63-1.31.69-2.65,2.65-1.38,2.02-3.26,5.49-2.65,7.95l-2.65,1.32c-.69-2.22-3.28-3.55-4.64-5.3-3.79,29.34-8.99-7.84-6.62,22.52-21.43-30.03.45,2.84.66,4.64,2.36,20.47-15.34-8.11-22.52-8.61-.33-.29-3.28,1.12-2.65-2.65,4.45-4.26,8.13-9.6,13.25-13.25,6.96-4.97,16.33-7.84,23.18-13.25,1.89-.09,3.76,2.81,7.29,3.97Z"/>
      <path class="cls-3" d="m83.09,136.66c1.74,5.58-3.91,14.41-3.97,15.23-.23,2.92,2.74,1.67,2.65,2.65-.05.53-4.89,5.37-3.97,9.94l-3.97-3.31c.94,2.65.69,6.04,1.32,8.61-3.17,11.02,2.19,13.63-9.27,20.53,7.02,21.28,2.17,5.23-2.65-1.99-2.49-3.74-2.54-2.5-2.65-2.65-.06-.07-.46-.26-1.32-1.32l2.65-8.61c-29.4-28.56-2.49-3.15-.66-3.31,11.48-1-8.84-20.36-11.26-22.52,7.18.5,24.88,29.08,22.52,8.61-.21-1.8-22.09-34.67-.66-4.64-2.37-30.36,2.83,6.83,6.62-22.52,1.36,1.75,3.94,3.08,4.64,5.3Z"/>
      <path class="cls-15" d="m232.78,30.69c2.54,4.75,1.02,10.67,1.32,15.9l-13.25-3.31c15.47,3.42,7.38,18.3,9.27,31.13-5.5,1.37-11.86-.95-17.22-1.32v-1.32c5.63,1.21,7.14-1.37,9.27-6.62,1.68-4.15.2-2.69-1.32,0l-2.65-1.99q-1.99-14.9-3.97-29.81c-.03-1.11-3.39-4.24,0-5.3.83.44,15.67,2.6,18.55,2.65Z"/>
      <path class="cls-20" d="m283.12,241.31c-8.13,3.9-13.29,3.67-15.9,13.91,6.99-4.89,12.34-4.01,19.87-3.31-25.52,3.96-12.97,14.89-4.64,30.47,11.92-6.46,34.8-2.14,36.43,13.25-.08.06.3,1.47-1.32,1.32-.15-.4.17-.98,0-1.32-6.62-13.72-29.92-19.35-38.42-5.3-1.81,3-3.33,6.37-5.3,9.27,3.97-22.13-3.57-44.65-2.65-11.26-8.45-16.51-14.04-46.13,11.92-47.03Z"/>
      <path class="cls-17" d="m59.24,184.35c.87,1.07,1.27,1.25,1.32,1.32l2.65,2.65c4.82,7.22,9.67,23.27,2.65,1.99,11.46-6.91,6.1-9.51,9.27-20.53.16.66,5.35,10.18,5.3,12.58-.04,1.85-10.32,31.92-11.92,35.1-3.07-.9-1.44-2.17-2.65-5.3-5.7-14.72.58-9.11,0-11.26-2.7-10.09-17.44-26.61-27.82-31.13-.96-1.93-3.04-2.81-2.65-5.3,2.11-.21,16.55,10.91,23.84,19.87Z"/>
      <path class="cls-30" d="m310.93,250.59c.56,2.29,3.85,7.13,2.65,17.22-6.56-12.12-13.4-14.68-26.49-15.9-7.53-.7-12.88-1.57-19.87,3.31,2.61-10.23,7.77-10.01,15.9-13.91,11.22-.39,19.21,1.96,27.82,9.27Z"/>
      <path class="cls-4" d="m38.05,169.78c3.53,7.11,11.04,17.47,15.9,25.17,3.27,4.42-26.76-12.5-23.84-14.57,2.14.47,9.99,6.92,3.97-6.62-.22-.5.64-3.04-2.65-3.97.35-1.49,2.19-5.12,3.97-5.3-.39,2.48,1.69,3.37,2.65,5.3Z"/>
      <path class="cls-12" d="m14.2,292.98c-.78,1.13-.8.9-1.32,1.32-7.82,6.3-8,3.65-10.6-11.92,15.06-11.43,2.14.94,11.92,10.6Z"/>
      <g>
        <path class="cls-17" d="m59.24,131.37c-.44,0-.88,0-1.32,0-.57-.01.57-2.6-10.6-3.97l-6.62-13.25c1.77-1.45,3.83-2.26,5.3-3.97,4.17,1.58,27.03,3.62,27.82,5.96l-14.57,15.23Z"/>
        <path class="cls-23" d="m47.32,127.39c11.16,1.38,10.03,3.96,10.6,3.97-3.31,5.07-7.65,6.45-8.61,0-3.29,8.05-6.85,4.29-11.92,18.55l-3.31-5.3c.08-2.9.93-8.32,1.32-11.92,2.3-10.06,3.42-6.35,11.92-5.3Z"/>
        <path class="cls-21" d="m57.92,131.37c.44,0,.88,0,1.32,0l1.32,2.65c-5.12,3.65-8.8,8.99-13.25,13.25-4.46,4.27-9.44,7.68-12.58,13.25-1.17-.74-.73-13.33-.66-15.9l3.31,5.3c5.07-14.25,8.63-10.49,11.92-18.55.96,6.45,5.3,5.07,8.61,0Z"/>
        <path class="cls-21" d="m47.32,127.39c-8.5-1.05-9.62-4.76-11.92,5.3,1.15-10.34-3.6-11.29,5.3-18.55l6.62,13.25Z"/>
      </g>
      <path class="cls-20" d="m34.07,173.76c-5.52-.57-3.05-2.31-2.65-3.97,3.29.93,2.43,3.47,2.65,3.97Z"/>
      <path class="cls-30" d="m212.91,165.81c1.52,9.25,3.1,19.03,10.6,25.83-1.27,28.35,7.37-18.54,13.91,23.18,1.57-7.88,3.97-15.19,7.29-22.52,9.35.13-3.22,4.61,5.3,3.97-1.1,1.84-7.94,18.17-7.95,19.21-.03,6.71,2.31-.2,3.97,1.32,1.84,1.69-.15,8.21,0,8.61.61,1.67,2.63,4.1,3.97,5.3.19.17-.4,2.79.66,2.65,1.61-2.98,3.8-4.45,5.96-6.62h1.32c-8.57,11.83-.84,20.15.66,19.87,1.59-.29,1.53-3.25,3.31-5.3-.45,3.44-.4,9.49,1.32,9.27-1.48,4.38-.9,11.09-1.99,11.92-10.57-8.49-15.36-31.1-32.45-23.84-7.1-.93,4.61-2.26,5.3-4.64.57-1.97-7.66-8.1-7.95-8.61-.43-.78,1.4-1.85,1.32-1.99-4.87-8.43-15.42-17.66-9.27-18.55q-8.28-9.6-16.56-19.21,5.63,25.83,11.26,51.66c-.85.84-1.93,3.78-3.97,3.97-.73-.4-3.25.72-3.97-.66q-3.97-39.74-7.95-79.48c7.15,6.16,5.12-.44,13.91-12.58.51,5.9,1.02,11.34,1.99,17.22Z"/>
      <path class="cls-26" d="m150.65,164.48v3.97c.8,23.7-5.8,30.1,18.55,25.17.12.41,2.26.09,6.62,5.3.07,2.87-1.15,4.88-1.32,7.95h-23.18c-1.61,24.48-2.83,32.38,23.18,23.84.02.15,1.82-.48,1.32,2.65-5.65-.13-65.47,2.14-68.88,2.65-1.27-5.26-2.11-10.5-2.65-15.9-.27-3.61-1.33-2.5-1.32-2.65.01-.44-.03-.89,0-1.32,2.06.64,2.56-1.17,3.97-1.32l1.32,13.91c14.31,4.37,22.13.58,14.57-15.23.88-.3,2.72.71,2.65-1.32,6.55,20.15-3.2,22.82,21.86,21.2,1.87-32.69,3.83-28.54-23.18-29.14-.21,0,1.09-1.47-3.97-1.32v-37.09c10.33-.66,20.04-1.76,30.47-1.32Z"/>
      <path class="cls-1" d="m236.75,118.12l-25.17,2.65c-.3-.19-4.9-.89-5.3-1.99-.72-2,4.18-10.78-1.32-4.64h-1.32c1.38-1.99,3.48-5.54,3.97-7.95.19-.21,1.18.21,1.32,0,4.54-6.72-6.11-1.48-2.65-15.9.04-.18,1.94-.09,2.65-2.65l37.09-3.31q.66,12.58,1.32,25.17c-1.66,5.35-4.48,4.52-10.6,8.61Z"/>
      <path class="cls-21" d="m109.58,147.26c4.29,3.09,16.83,2.53,10.6,10.6-1.23.38-1.46.97-3.97,1.32-.2.03.48-1.59-3.97,0,1.35-8.61-1.14-10.49-10.6-5.96,3.95,15.78-2.52,15.02-2.65,15.9-1.81,12.21.17,16.6,0,19.21-.32,4.87,1.54,8.23,1.32,13.91-.2,5.28-10.44,20.55,2.65,15.23,0,.15,1.05-.96,1.32,2.65-33.94,24-8.61,2.51-19.87-31.79,7.04.91,15.62-23.42,11.92-25.17-11.11-5.26-8.74,9.64-12.58,10.6-2.88.72-5.62-7.57-5.96-9.27-.92-4.57,3.93-9.4,3.97-9.94.09-.98-2.88.27-2.65-2.65.07-.83,5.71-9.65,3.97-15.23l2.65-1.32c.61,2.48,4.38,4.04,5.3,5.96,6.41,13.37-5.08,11.88,18.55,5.96Z"/>
      <path class="cls-13" d="m134.75,145.94c24.43,3.74,50.54-2.53,69.55-18.55,8.38-.41-11.48,15.83-30.47,21.2-5.75,1.62-13.2.18-18.55,1.32-.83.18-3.17,3.82-3.97,3.97-6.43,1.24-10.94-2.23-31.13,3.97,6.23-8.07-6.31-7.51-10.6-10.6-7.77-5.6-14.54-13.02-21.2-19.87,1.34-1.96,2.67-1.02,2.65-2.65,3.62-8.34,11.37,16.71,43.71,21.2Z"/>
      <path class="cls-17" d="m244.7,192.3c-3.31,7.33-5.72,14.64-7.29,22.52-6.54-41.73-15.18,5.17-13.91-23.18-7.5-6.8-9.08-16.58-10.6-25.83,12.41-19.86-2.29,13.67,19.21-2.65-5.19,4.04.01,13.91,1.32,14.57,2.96,1.5,16.44-13.36,1.99,4.64,6.98,8.27.43,10.56,5.96,9.94,11.97-15.02,8.03-10.44,3.31,0Z"/>
      <path class="cls-13" d="m174.49,206.87c-.39,4.47-.54,20.46,0,23.84-26.01,8.54-24.8.64-23.18-23.84h23.18Z"/>
      <path class="cls-13" d="m116.21,159.18c-4.52,4.92-1.33,5.09-1.32,6.62.02,12.44.39,24.7,1.32,37.09-11.4.8-12.72.92-13.25,14.57-13.09,5.32-2.85-9.95-2.65-15.23.22-5.68-1.65-9.04-1.32-13.91,16.34-16.4,9.76-15.92,10.6-25.83.05-.56,2.38-1.57,2.65-3.31,4.45-1.59,3.78.03,3.97,0Z"/>
      <path class="cls-24" d="m228.8,238.67c4.82,9.58,8.39,19.02,11.92,29.14-6.62-.25-14.07-7.41-13.25,3.97-.89-.89-1.76-1.76-2.65-2.65,2.85-.42.22-2.14,0-5.3-.6-8.71-3.54-18.29,0-25.83-8.28.58-10.02,4.55-10.6,4.64-5.73.82-5.06-1.19-5.3-1.32,2.04-.19,3.13-3.14,3.97-3.97,4.16-4.11,8.84-8.06,13.25-11.92.28.51,8.52,6.64,7.95,8.61-.69,2.38-12.4,3.7-5.3,4.64Z"/>
      <path class="cls-20" d="m264.57,206.87c-7.2,5.26-12.09,12.59-18.55,18.55-.15-.4,1.84-6.92,0-8.61-1.67-1.53-4,5.38-3.97-1.32,0-1.04,6.85-17.36,7.95-19.21,10.54-17.74,2.79.06,3.97,3.31,2.93,8.04,14.77-2.59,19.21-3.31,24.28-3.94,1.35,3.33-8.61,10.6Z"/>
      <path class="cls-34" d="m177.14,167.13c-1.11,28.71,1.63,8.98,11.92,18.55,3.88,3.6,1.17,1.95,1.32,2.65-11.52-4.18-12.31,2.08-14.57,10.6-4.36-5.2-6.5-4.89-6.62-5.3-4.01-13.5,11.47-27.4-18.55-25.17v-3.97c9.68.4,16.89.67,26.49,2.65Z"/>
      <path class="cls-18" d="m261.92,241.31c-1.78,2.05-1.73,5.01-3.31,5.3-1.5.28-9.23-8.04-.66-19.87,1.94-2.68,15.17-11.46,17.88-11.92,16.98-2.9-11.46,7.86-13.91,26.49Z"/>
      <path class="cls-1" d="m240.73,267.81c2.6,7.47,4.32,14.98,6.62,22.52-7.46-3.19-14.13-12.83-19.87-18.55-.82-11.38,6.63-4.22,13.25-3.97Z"/>
      <path class="cls-13" d="m190.39,188.33c3.64,16.05-.14,21.84-14.57,11.92.08-.42-.11-.92,0-1.32,2.27-8.52,3.06-14.78,14.57-10.6Z"/>
      <path class="cls-13" d="m189.06,185.68c-10.29-9.56-13.03,10.16-11.92-18.55,3.96.82,13.9,1.55,14.57,3.31.28.72-1.88,13.23-2.65,15.23Z"/>
      <path class="cls-12" d="m120.18,165.81v37.09c-1.31.04-2.68-.13-3.97,0-.94-12.4-1.3-24.66-1.32-37.09,3.38-3.03,5.03.02,5.3,0Z"/>
      <path class="cls-17" d="m234.1,46.59c.07,9.05-.05,18.1,0,27.16-.69,1.31-2.81.37-3.97.66-1.89-12.83,6.2-27.71-9.27-31.13l13.25,3.31Z"/>
      <path class="cls-11" d="m269.87,210.85c-8.12,2.63-17.89,11-19.87,19.87-1.34-1.2-3.36-3.63-3.97-5.3,6.45-5.96,11.34-13.28,18.55-18.55l5.3,3.97Z"/>
      <path class="cls-18" d="m256.62,226.74c-2.16,2.17-4.35,3.64-5.96,6.62-1.06.14-.48-2.48-.66-2.65,1.98-8.87,11.75-17.24,19.87-19.87,1.4-.45,8.6-2.04,9.27-.66-10.71,2.91-15.63,9.63-22.52,16.56Z"/>
      <g>
        <path class="cls-1" d="m295.04,209.52c-11.3,1.8-1.61,3.94,1.32,7.95,7.77,10.62,11.46,20.31,14.57,33.12-8.61-7.31-16.6-9.66-27.82-9.27-25.96.9-20.37,30.52-11.92,47.03-.92-33.39,6.62-10.87,2.65,11.26-1.16,6.46-5.45,15.82-2.65,17.22-4.58.88-9.17,1.4-13.25,3.97-.55-11.54-7.07-18.93-10.6-30.47-4.84-17.72-10.24-35.21-18.55-51.66,17.1-7.26,21.88,15.35,32.45,23.84,1.08-.83.51-7.54,1.99-11.92,2.87-8.52,6.87-16.7,14.57-21.86-2.43-5.26-14.86,11.39-15.9,12.58,2.45-18.64,30.89-29.39,13.91-26.49-2.71.46-15.94,9.25-17.88,11.92h-1.32c6.89-6.93,11.81-13.65,22.52-16.56-.67-1.38-7.88.21-9.27.66l-5.3-3.97c9.96-7.27,32.89-14.54,8.61-10.6-4.44.72-16.28,11.35-19.21,3.31-1.19-3.25,6.56-21.05-3.97-3.31-8.51.64,4.05-3.84-5.3-3.97,4.72-10.44,8.66-15.02-3.31,0-5.53.62,1.02-1.67-5.96-9.94,14.45-17.99.97-3.14-1.99-4.64-1.31-.66-6.51-10.53-1.32-14.57-21.5,16.32-6.8-17.21-19.21,2.65-.97-5.88-1.48-11.32-1.99-17.22-8.79,12.15-6.76,18.75-13.91,12.58q3.97,39.74,7.95,79.48c.73,1.38,3.24.26,3.97.66.24.13-.43,2.14,5.3,1.32l10.6,21.2c.22,3.16,2.85,4.87,0,5.3-11.81-11.84-23.96-23.26-35.1-35.77-4.63-.08-9.28.11-13.91,0,.5-3.13-1.3-2.5-1.32-2.65-.54-3.38-.39-19.37,0-23.84.23-2.65.87-4.26,1.32-6.62,14.43,9.92,18.21,4.13,14.57-11.92-.16-.7,2.55.95-1.32-2.65.77-2,2.93-14.51,2.65-15.23-.67-1.76-10.61-2.49-14.57-3.31-19.04-3.79-37.79-2.91-56.96-1.32-.26.02-1.92-3.03-5.3,0,0-1.54-3.2-1.7,1.32-6.62,2.51-.35,2.74-.95,3.97-1.32,20.19-6.2,24.7-2.74,31.13-3.97.8-.15,3.15-3.8,3.97-3.97,5.34-1.15,12.8.3,18.55-1.32,18.99-5.37,38.85-21.6,30.47-21.2-19.01,16.01-45.12,22.28-69.55,18.55,27.04-2.82,53.64.18,67.56-27.82.11-.21,1.59-.68,2.65-3.97,5.5-6.14.6,2.63,1.32,4.64.4,1.1,5,1.8,5.3,1.99,11.05,7.03,14.56,4.45,25.17-2.65,6.11-4.09,8.94-3.26,10.6-8.61q-.66-12.58-1.32-25.17l-37.09,3.31c2.76-10.01-5.7-11.19-2.65,2.65-3.46,14.41,7.19,9.18,2.65,15.9-3.65-9.51-5.42-5.12-6.62,2.65-.15.07.56,4.39-2.65,1.99v-7.29c3.89-9.43,4.57-19.24,2.65-29.14-.14-1.12.31-1.25,1.32-1.32,2.86-.22,6.4-.2,9.27,0,5.36.37,11.72,2.7,17.22,1.32,1.16-.29,3.29.64,3.97-.66-.04-9.93.06-19.87,0-29.81l23.84,28.48c-4.03,12.97,2.9,27.34-6.62,38.42,4.65,10.43,3.84,31.85,5.3,35.77,1.3,3.48,28.7,27.18,38.42,62.92Z"/>
        <g>
          <path class="cls-10" d="m295.04,209.52c1.21,4.44,4.08,7.74,1.32,7.95-2.94-4.01-12.63-6.15-1.32-7.95Z"/>
          <path class="cls-13" d="m185.75,212.17c7.21-.16,9.86,9.86,9.94,15.23-27.9,8.64-17.16-15.07-9.94-15.23Z"/>
          <path class="cls-33" d="m224.83,263.83l-10.6-21.2c.57-.08,2.32-4.06,10.6-4.64-3.54,7.54-.6,17.12,0,25.83Z"/>
          <path class="cls-36" d="m236.75,118.12c-10.6,7.1-14.12,9.68-25.17,2.65l25.17-2.65Z"/>
          <path class="cls-20" d="m263.25,250.59c-1.72.22-1.78-5.83-1.32-9.27,1.03-1.19,13.46-17.84,15.9-12.58-7.7,5.15-11.7,13.34-14.57,21.86Z"/>
          <path class="cls-33" d="m255.96,151.24c2.92-.08,2.15.67,0,2.65-14.51,13.32-30.21,14.33,0-2.65Z"/>
          <path class="cls-13" d="m208.93,87.65c-.71,2.56-2.61,2.47-2.65,2.65-3.05-13.84,5.41-12.66,2.65-2.65Z"/>
          <g>
            <path class="cls-13" d="m208.93,106.2c-.15.21-1.13-.21-1.32,0-2.21,2.43-4.77,2.42-5.3,2.65,1.21-7.77,2.97-12.15,6.62-2.65Z"/>
            <path class="cls-2" d="m204.96,114.14c-1.06,3.3-2.54,3.76-2.65,3.97h-1.32c.91-1.13,1.76-2.7,2.65-3.97h1.32Z"/>
          </g>
        </g>
      </g>
      <path class="cls-14" d="m106.93,236.02c-14.28.76-20.49,31.73-40.4,26.49-2.27-.59-7.33-5.47-9.94-6.62-.94-5.32,2.53-3.77,2.65-3.97.05-.08.75.54,1.32-1.32,14.7,14.21,29.61-15.82,45.04-21.2.42,2.22.63,4.44,1.32,6.62Z"/>
      <path class="cls-30" d="m47.32,265.16c-.28.71-.24,4.99-5.3,11.92l-25.17-7.95c.35-.31,1.55-2.4,3.97-3.97,6.44.94,13.5-.04,19.87,2.65l6.62-2.65Z"/>
      <path class="cls-7" d="m214.23,28.04c-3.39,1.06-.03,4.19,0,5.3.27,10.89,1.51,30.25-1.32,34.44-.16-3.14-.63-13.55-3.31-14.57-.85-.32.02,2.44-1.99,2.65-.49-3.53.7-9.61,0-11.92,1.92-.21.93,2.46,1.99,2.65,1.07.19.41-2.04.66-2.65,2.14-5.19.05-2.95-1.32-6.62-.05-.14-.28-.18-1.32-2.65q-1.99-9.27-3.97-18.55c9.69.21,3.83,8.37,10.6,11.92Z"/>
      <g>
        <path class="cls-1" d="m65.87,34.66c-.8,4.68-3.89,28.55-3.97,30.47-24.96,1.48-20.27,1.31-21.2,11.92-.46,5.23-.51,18.8,0,23.84-4.03.96-3.14-34.55-2.65-36.43.51-1.97,23.5-26.58,27.82-29.81Z"/>
        <path class="cls-23" d="m53.94,108.85c-3.39-.14-9.29-2.69-13.25-2.65-.02-7.73-.78-21.15,0-29.14,12.59,2.05,7.09,27.13,7.95,28.48,1.1,1.74,6.07-1.19,5.3,3.31Z"/>
        <path class="cls-21" d="m61.89,65.13c-.03.58,2.96,4.13,2.65,11.26.48,1.14,2.65.53,2.65.66,0,1.64-7.22,26.45-7.95,31.79-1.72.13-3.57.07-5.3,0,.77-4.51-4.2-1.57-5.3-3.31-.85-1.35,4.64-26.43-7.95-28.48.92-10.61-3.77-10.44,21.2-11.92Z"/>
        <path class="cls-20" d="m87.06,77.05c-.39,12.01-15.03,30.81-27.82,31.79.73-5.34,7.96-30.15,7.95-31.79h19.87Z"/>
      </g>
      <path class="cls-13" d="m77.79,164.48c.34,1.7,3.08,9.99,5.96,9.27,3.85-.96,1.48-15.86,12.58-10.6-4.18,9.05-16.01,19.42-11.92,25.17,11.26,34.3-14.07,55.79,19.87,31.79.24,3.19.74,6.16,1.32,9.27-15.43,5.38-30.34,35.4-45.04,21.2,2.45-7.95.22-21.07-2.65-5.3-12.23,1.2-4.52-2.03-11.92-11.92-3.22-4.3-12.11-11.49-17.22-13.25l-1.32-7.95c8.48,3.5,13,7.99,19.87,13.25,2.45,1.88,5.6,9.05,9.94,7.95,4.97-5.34,7.96-9.33,11.26-15.9,1.6-3.18,11.88-33.25,11.92-35.1.06-2.41-5.14-11.92-5.3-12.58-.63-2.57-.39-5.96-1.32-8.61l3.97,3.31Z"/>
      <path class="cls-1" d="m40.7,267.81c-6.37-2.69-13.43-1.71-19.87-2.65-2.18-.32-11.27-1.13-11.92-1.99,23.1-18.82-13.08,5.15,5.96-11.26l-9.94,1.99c1.2-44.27,35.39.52,37.09,10.6.31,1.86-1.31,1.99-1.32,3.31Z"/>
      <path class="cls-28" d="m28.78,220.12c5.11,1.76,14,8.95,17.22,13.25-.89,3.93-8.92-5.68-16.56-10.6-3.12-2.01-16.83-8.21-.66-2.65Z"/>
      <path class="cls-28" d="m60.57,250.59c-.57,1.86-1.28,1.24-1.32,1.32-3.43-5.37-1.6-5.12-1.32-6.62,2.87-15.77,5.09-2.65,2.65,5.3Z"/>
      <path class="cls-24" d="m65.87,212.17c-4.32-5.33-8.28-11.44-11.92-17.22-4.85-7.69-12.37-18.06-15.9-25.17,10.38,4.52,25.12,21.04,27.82,31.13.58,2.15-5.7-3.46,0,11.26Z"/>
      <g>
        <path class="cls-20" d="m30.1,180.38c-2.92,2.07,27.12,18.99,23.84,14.57,3.65,5.78,7.6,11.89,11.92,17.22,1.21,3.12-.42,4.39,2.65,5.3-3.3,6.57-6.29,10.55-11.26,15.9-4.34,1.1-7.48-6.07-9.94-7.95-2.49-12.62-15.63-13.08-25.17-15.9-.79-.23-1.56-4.88-5.3-1.32,5.39-15.42,6.07-23.35,6.62-24.51,4.68-9.74,6.09-3.43,6.62-3.31Z"/>
        <path class="cls-28" d="m22.15,209.52c9.54,2.81,22.67,3.28,25.17,15.9-6.87-5.25-11.39-9.75-19.87-13.25-4.78-1.97-11.42-1.43-5.3-2.65Z"/>
        <path class="cls-24" d="m29.44,196.28c5.37-.11,27.35,19.93,29.81,27.16l-31.13-23.18-1.99-1.99c1.27-.26,3.12-1.98,3.31-1.99Z"/>
        <path class="cls-24" d="m32.09,190.98c8.18,1.24,20.07,10.04,24.51,16.56,14.72,21.6-5.79-1.96-24.51-16.56Z"/>
      </g>
      <g>
        <path class="cls-21" d="m89.71,53.21c-.47,1.29-2.84,6.06-1.99,6.62,1.96,1.31,7.37-2.58,9.94-1.32l-8.61,2.65c-8.6,9.03-1.86,11.99-1.99,15.9h-19.87c0-.14-2.17.48-2.65-.66.31-7.13-2.67-10.68-2.65-11.26.08-1.92,3.17-25.78,3.97-30.47.21-1.24-.29-2.86,0-3.97.53-2.06-1.14-3.44,1.32-5.3,6.19,5.88-.34,15.67,1.32,17.88,5.86,7.79,32.23-8.33,5.3-15.9l11.92-3.31,2.65.66q.66,14.24,1.32,28.48Z"/>
        <path class="cls-16" d="m85.74,24.07l-11.92,3.31c26.93,7.57.56,23.69-5.3,15.9-1.66-2.21,4.86-12.01-1.32-17.88,1.37-1.03,16.66-1.99,18.55-1.32Z"/>
        <path class="cls-37" d="m70.5,53.21c11.05-7.84,18.3,11.16,10.6,14.57-14.39,6.38-12.41-13.29-10.6-14.57Z"/>
      </g>
      <path class="cls-8" d="m109.58,147.26c-23.63,5.92-12.14,7.41-18.55-5.96-.92-1.92-4.68-3.48-5.3-5.96-.61-2.45,1.27-5.92,2.65-7.95,6.66,6.85,13.42,14.27,21.2,19.87Z"/>
      <path class="cls-34" d="m63.22,188.33l-2.65-2.65c.11.15.15-1.09,2.65,2.65Z"/>
      <path class="cls-12" d="m220.86,65.13h1.32c-2.13,5.26-3.64,7.83-9.27,6.62-.04-1.32.07-2.65,0-3.97,2.84-4.19,1.6-23.55,1.32-34.44q1.99,14.9,3.97,29.81l2.65,1.99Z"/>
      <path class="cls-29" d="m222.18,65.13h-1.32c1.53-2.69,3.01-4.15,1.32,0Z"/>
      <path class="cls-30" d="m317.56,295.63c-12.35-9.68-24.19-17.58-38.42-5.3,8.49-14.05,31.8-8.42,38.42,5.3Z"/>
      <g>
        <path class="cls-18" d="m317.56,295.63c.17.34-.15.92,0,1.32,1.15,3.15,3.06,4.24,2.65,8.61-1.74,18.39-5.46-14.16-24.51-15.23-19.22-1.09-14.78,22.07-19.21,27.16-1.96,2.25-4.54-.81-5.3-.66-2.8-1.4,1.49-10.76,2.65-17.22,1.97-2.9,3.49-6.27,5.3-9.27,14.22-12.28,26.07-4.38,38.42,5.3Z"/>
        <g>
          <path class="cls-37" d="m295.04,336.69c-16.11,23.97-2.34,14.37,2.65,3.97,5.38-4.15,8.83-2.72,15.9-2.65-1,8.63-31.74,32.36-30.47,15.23.06-.86,7.32-14.65,7.95-15.23,1.13-1.05,2.53-1.1,3.97-1.32Z"/>
          <path class="cls-14" d="m313.58,338.02c-7.07-.08-10.52-1.5-15.9,2.65.11-.23,1.24-3.55,1.32-3.97.71-3.66,3.79-5.78-7.95-5.3.05-.33.07-6.3,0-6.62,7.51-.35,23.64,3.6,22.52,13.25Z"/>
          <path class="cls-18" d="m291.06,324.77c.07.32.05,6.3,0,6.62-.05.29-2.14,4.2-2.65,5.3-6.11,13.05-10.79,5.52-10.6.66.02-.61,4.68-7.47,5.3-9.27,1.85-5.43,3.59-24.69,7.95-3.31Z"/>
          <path class="cls-26" d="m299.01,336.69c-2.67.08-5.72-.5-7.95,1.32l-2.65-1.32c.51-1.09,2.6-5.01,2.65-5.3,11.74-.48,8.65,1.64,7.95,5.3Z"/>
          <path class="cls-9" d="m299.01,336.69c-2.22,11.29-22.16,27.08-3.97,0,1.27-.2,2.67.12,3.97,0Z"/>
        </g>
      </g>
      <path class="cls-13" d="m226.15,225.42c-4.41,3.87-9.09,7.81-13.25,11.92q-5.63-25.83-11.26-51.66,8.28,9.6,16.56,19.21c-6.15.89,4.41,10.11,9.27,18.55.08.14-1.76,1.2-1.32,1.99Z"/>
      <path class="cls-18" d="m125.48,212.17c-.49-1.5-2.02-3.08-1.32-7.95,27.01.6,25.06-3.55,23.18,29.14-25.06,1.63-15.3-1.04-21.86-21.2Z"/>
      <path class="cls-13" d="m169.19,193.63c-24.35,4.93-17.75-1.47-18.55-25.17,30.02-2.23,14.53,11.67,18.55,25.17Z"/>
      <path class="cls-13" d="m106.93,214.82c5.81-.65,9.37.87,15.9-1.32,7.56,15.81-.26,19.6-14.57,15.23l-1.32-13.91Z"/>
      <path class="cls-1" d="m116.21,202.9c1.3-.13,2.66.04,3.97,0,5.06-.14,3.76,1.32,3.97,1.32-.7,4.87.84,6.44,1.32,7.95.07,2.04-1.77,1.03-2.65,1.32-6.53,2.2-10.09.67-15.9,1.32-1.41.16-1.92,1.97-3.97,1.32.91-13.43,2.61-12.17,13.25-13.25Z"/>
      <path class="cls-21" d="m112.23,159.18c-.27,1.75-2.6,2.76-2.65,3.31-.84,9.91,5.74,9.43-10.6,25.83.17-2.61-1.81-7,0-19.21.13-.87,6.6-.11,2.65-15.9,9.46-4.53,11.94-2.65,10.6,5.96Z"/>
      <path class="cls-21" d="m84.41,188.33c-4.09-5.74,7.75-16.12,11.92-25.17,3.7,1.75-4.88,26.08-11.92,25.17Z"/>
      <g>
        <path class="cls-13" d="m105.61,236.02c20.39,16.3,48.74,11.47,72.86,6.62,1.87.08,2.41,2.76,2.65,3.97.09.48-.14,1.03,0,1.32-6.99,1.67-6.43,11.67-2.65,16.56-14.99,11.04-9.06,13.6-9.27,15.23-1.85,14.11-1.62,20.16,10.6,29.14-3.56,2.55-7.59,3.71-7.95,3.97-1.94-2.57-12.8-13.7-13.25-14.57-2.31-13.94-.32-21.38,2.65-34.44,1.2-5.27,5.31-14.22,4.64-14.57l-39.74,1.32c6.24,12.48.8,7.65-.66,11.26-3.51,8.64-6.61,17.38-11.92,25.17,5.76,4.58,13.85,1.85,14.57,1.99.47.09,1.36,1.15,9.27,2.65,2.35.44,4.15,1.66,6.62,1.32-.04.26-.05,5.04,0,5.3-7.53-6.91-11.11,6.06-10.6,8.61.17.86,6.24,6.79,10.6,13.91.19.3.26,2.34,2.65,6.62l-1.32,1.32c-1.54-3.32-3.46-6.16-5.3-9.27-3.07-5.2-5.54-8.44-10.6-11.92-25.47-12.94-12.17-4.14-5.3,3.97,3.46,4.08,6.36,8.77,9.27,13.25h-1.32c-.45-.85-11.63-14.49-12.58-14.57-9.25-.83.21,10.27,1.99,13.25-10.91-8.83-11.47-5.82-14.57-6.62-.16-.04-.91-2.49-1.99-2.65-17.16-2.62-27.63,5.29-29.14,5.3-2.46,0-.45-8.39-3.31,0-.09-.12-1.81.42-1.32-2.65,4.78-13.89-1.82-12.98-9.27,17.22-.69,2.81-1.13,7.3-3.97,7.95-.51-2.6-4.81-8.21-5.3-9.94-1.52-5.37,3.77-19.45-5.96-12.58-9.38-21.06-28.91-26.33-11.26-11.26-1.07,2.58-5.76-6.64-14.57,1.99-.8.79-10.46,18.75-10.6,19.87-8.6-.53-7.77-29.35,2.65-34.44,22.56-11.01,41.78,25.51,35.77-1.32,4.65-2.25,10.86-1.18,15.9-1.32l-4.64,19.87,7.29-18.55c20.69-2.42,49.07-15.65,49.68-39.74-11.92,25.06-8.97,8.06-11.92,7.95-2.85-.11-1.72,27.21-46.36,22.52-11.79-15.15-12.03-8.1-1.99,2.65q-5.96-.66-11.92-1.32c-.82-3.55-2.83-7.82-2.65-9.27,5.06-6.93,5.02-11.21,5.3-11.92,1.59-4,1.54-8.02,3.31-11.92.83-.4,4.56,2.03,5.96,2.65,2.6,1.15,7.67,6.04,9.94,6.62,19.16,4.96,26.17-23.87,39.08-26.49Z"/>
        <g>
          <path class="cls-26" d="m67.19,294.3c-.25.03,1.98-1.47-2.65-1.32-.44.01-.88,0-1.32,0-1.7-2.11-4.82-3.37-6.62-5.3-10.04-10.75-9.8-17.8,1.99-2.65,44.64,4.69,43.52-22.63,46.36-22.52,2.95.12,0,17.12,11.92-7.95-.61,24.09-28.98,37.32-49.68,39.74Z"/>
          <path class="cls-1" d="m106.27,246.61c7.15-1.48,16.14,13.98-7.29,7.29,1.9-1.42,6.45-7.11,7.29-7.29Z"/>
          <path class="cls-1" d="m71.17,316.82c-1.01,2.94-6.75,14.25-9.27,17.22,7.46-30.2,14.05-31.12,9.27-17.22Z"/>
          <path class="cls-23" d="m56.59,287.68c1.8,1.93,4.92,3.19,6.62,5.3-4.58.02-10.38-.75-14.57,1.32-.1-.43-2.83-2.99-3.97-7.95q5.96.66,11.92,1.32Z"/>
          <path class="cls-1" d="m67.19,294.3l-7.29,18.55,4.64-19.87c4.63-.14,2.4,1.35,2.65,1.32Z"/>
          <g>
            <path class="cls-23" d="m173.17,282.38c-1.89,5.35-1.19,5.85,1.32,10.6,3.86,7.28,6.47,6.63,14.57,7.95-.66.78,2.62.77-.66,3.97-.34.34-6.04,2.13-8.61,3.97-12.22-8.98-12.45-15.03-10.6-29.14-.15-1.61,1.26-1.26,1.32-1.32l2.65,3.97Z"/>
            <path class="cls-24" d="m140.05,319.47l-5.3,6.62c-.12-.18.29-1.47-1.32-1.32-2.91-4.48-5.82-9.17-9.27-13.25l5.3-3.97c5.06,3.48,7.53,6.72,10.6,11.92Z"/>
            <path class="cls-8" d="m129.45,307.55l-5.3,3.97c-6.87-8.11-20.17-16.92,5.3-3.97Z"/>
            <path class="cls-17" d="m115.54,292.98c16.54-3.4,8.38,7.65,6.62,7.95-.57.1-7.94-3.74-6.62-7.95Z"/>
            <path class="cls-13" d="m121.5,323.45c.08.14,1.2.01,2.65,1.99-3.27,2.32-2.52-1.88-2.65-1.99Z"/>
          </g>
        </g>
      </g>
      <g>
        <path class="cls-18" d="m231.45,287.68c-4.14-3.06-27.57-27.15-29.81-26.49-1.29.38-4.74,10.66-4.64,11.26.38,2.3,34.48,36.5,23.18,37.75-.58.06-6.44-6.39-8.61-7.95-5.62-4.02-13.11-13.07-19.87-6.62-.96.91-1.57,4.02-2.65,5.3-8.1-1.32-10.71-.66-14.57-7.95,16.26,13.11,15.29-1.56,19.21-2.65,2.76-.77,5.13,2.96,11.26,1.32,1.23-.33,3.87.58,3.97-.66-10.64-14.39-21.86-30.61-38.42-12.58-.06.07-1.47-.29-1.32,1.32.21-1.64-5.72-4.19,9.27-15.23-3.78-4.88-4.34-14.88,2.65-16.56.77,1.61-5.08.78,4.64,6.62,9.41-11,7.07,16.25,9.94,7.29,2.41-7.52-6.06-23.09-14.57-15.23-.24-1.22-.78-3.89-2.65-3.97,3.14-.63,6.02-2.01,7.29-5.3,2.58-.27,35.91,32.77,37.75,35.1.56.71-2.58-.44,7.95,15.23Z"/>
        <path class="cls-1" d="m181.11,247.94c-.14-.3.09-.84,0-1.32,8.51-7.86,16.98,7.71,14.57,15.23-2.87,8.96-.53-18.29-9.94-7.29-9.71-5.84-3.87-5.01-4.64-6.62Z"/>
        <path class="cls-26" d="m211.58,302.25c-7.06,7.06-13.35-4.41-19.87-6.62,6.76-6.45,14.25,2.6,19.87,6.62Z"/>
        <path class="cls-35" d="m183.1,261.18c.45-.11,5.39,4.83,2.65,6.62-4.21,2.76-5.58-5.88-2.65-6.62Z"/>
      </g>
      <g>
        <g>
          <path class="cls-13" d="m104.28,59.83c-12.13,22.98-16.77,51.31,6.62,67.56,12.16,8.45,15.99,8.93,30.47,10.6,22.09,4.14,45.27-1.6,59.61-19.87h1.32c-13.92,28-40.52,25-67.56,27.82-32.37-4.5-40.08-29.53-43.71-21.2-3.52-1.17-5.4-4.06-7.29-3.97-6.85,5.4-16.22,8.28-23.18,13.25l-1.32-2.65,14.57-15.23c-.79-2.34-23.65-4.38-27.82-5.96-3.82-1.45-6.08-1.22-5.3-3.97,3.96-.04,9.86,2.51,13.25,2.65,15.55,2.65,32.26-17.88,33.12-31.79.13-3.9-6.62-6.87,1.99-15.9l8.61-2.65c1.93-7.57,3.47,1.41,6.62,1.32Z"/>
          <path class="cls-1" d="m93.02,111.5c5.01.68-1.65,10.65-2.65,10.6-4.68-.24.68-10.87,2.65-10.6Z"/>
        </g>
        <g>
          <path class="cls-13" d="m186.41,66.46c1.04,2.58.3,8.52,3.31,10.6,1.5,0,2.96-8.7,3.31-10.6.6-3.27-.95-7.39.66-10.6,3.11,4.91,7.53,13,8.61,18.55,1.92,9.91,1.24,19.71-2.65,29.14-8.23,19.94-30.46,28.89-50.34,29.14-.2-.06.42-.2-3.97-1.32-52.93-4.24-59.81-42.91-30.47-84.12-1.37-3.52-9.63,10.76-10.6,12.58-3.15.08-4.7-8.9-6.62-1.32-2.56-1.25-7.97,2.64-9.94,1.32-.85-.57,1.51-5.33,1.99-6.62,2.23-6.07,6.5-8.83,7.95-10.6,8.47,3.4,8.35-4.09,15.23-7.95,20.58-11.54,43.17-13.29,65.57-6.62,2.85,3.04,7.66,3.69,10.6,6.62,1.21,1.21,14.05,19.13,17.22,23.18,1.78,1.82,1.21-1.97,1.32-1.99,2-.21,1.14-2.97,1.99-2.65,3.32,1.9,3.3,14.53,3.31,18.55v1.32c-2.87-.2-6.41-.22-9.27,0-2.79-20.39-35.49-48.47-55.64-39.74-.59.26-2.12-.55-2.65.66-.44,2.91,2.12,1.66,2.65,1.99.52.32,5.09.41,10.6,5.96"/>
          <path class="cls-25" d="m202.31,108.85c.53-.23,3.09-.21,5.3-2.65-7.92,20.89-28.8,32.27-50.34,33.12,2.94-6.1-3.9-5.46-7.95-6.62,19.88-.25,42.11-9.21,50.34-29.14v7.29c3.21,2.41,2.5-1.92,2.65-1.99Z"/>
          <path class="cls-1" d="m118.85,124.74l-7.95,2.65c-23.4-16.25-18.76-44.57-6.62-67.56.97-1.83,9.23-16.1,10.6-12.58-17.36,24.73-29.91,60.84,3.97,77.49Z"/>
          <path class="cls-8" d="m145.35,131.37l-3.97,6.62c-14.48-1.67-18.31-2.15-30.47-10.6l7.95-2.65c12.9,6.34,22.83,5.69,26.49,6.62Z"/>
          <path class="cls-4" d="m149.32,132.69c4.05,1.16,10.89.52,7.95,6.62-5.78.33-10.3-.68-15.9-1.32l3.97-6.62c4.39,1.12,3.77,1.27,3.97,1.32Z"/>
          <path class="cls-32" d="m145.35,34c.53-1.22,2.06-.41,2.65-.66"/>
        </g>
        <g>
          <path class="cls-22" d="m207.61,43.94c.7,2.31-.49,8.39,0,11.92-.12.01.45,3.81-1.32,1.99-3.18-4.05-16.01-21.97-17.22-23.18,1.09.08,2.52-.14,2.65,0,2.58,2.64,21.68,25.5,11.92,9.94-2.65-4.23-7.83-7.24-11.92-9.94-6.23-4.11-5.48-4.31-13.25-6.62-22.4-6.67-44.99-4.92-65.57,6.62-6.88,3.86-6.76,11.35-15.23,7.95,33.61-40.9,104.78-15.61,109.95,1.32Z"/>
          <g>
            <path class="cls-1" d="m232.78,30.69c-2.87-.05-17.72-2.21-18.55-2.65-6.77-3.55-.91-11.71-10.6-11.92-9.11-.2-2.63,2.96,3.97,18.55,1.05,2.47,1.27,2.51,1.32,2.65l1.32,6.62c-.25.61.4,2.84-.66,2.65-1.06-.19-.07-2.86-1.99-2.65-5.16-16.94-76.34-42.22-109.95-1.32-1.45,1.76-5.72,4.53-7.95,10.6q-.66-14.24-1.32-28.48l-2.65-.66c-1.89-.67-17.18.29-18.55,1.32-2.46,1.86-.79,3.24-1.32,5.3-13.4-3.17,17.3-25.12,19.21-25.17,3.92-.1,2.8,6.97,9.27,5.3,92.06-25.92,96.77,2.72,102,3.97,10.11,2.43,12.27-14.05,41.73,15.23.24,3.09-.67.74-5.3.66Z"/>
            <path class="cls-33" d="m114.22,10.82c5.02-2.04-14.76,19-15.9,18.55-.6-.24-3.59-11.93-3.31-12.58.93-2.21,16.32-2.87,19.21-5.96Z"/>
            <path class="cls-8" d="m203.63,16.12q1.99,9.27,3.97,18.55c-6.6-15.59-13.08-18.75-3.97-18.55Z"/>
            <path class="cls-17" d="m210.26,43.94l-1.32-6.62c1.37,3.67,3.46,1.44,1.32,6.62Z"/>
          </g>
          <path class="cls-33" d="m191.71,34.66c-.13-.14-1.56.08-2.65,0-2.94-2.94-7.75-3.58-10.6-6.62,7.76,2.31,7.02,2.51,13.25,6.62Z"/>
          <path class="cls-27" d="m191.71,34.66c4.09,2.7,9.27,5.7,11.92,9.94,9.76,15.56-9.34-7.29-11.92-9.94Z"/>
        </g>
      </g>
      <g>
        <path class="cls-18" d="m162.57,343.32c-1.62,2.69-1.23,3.79-1.32,3.97-1.22,2.43-.96,3.06-1.32,3.97-.06.14-.19-.75-1.32,2.65-5.1,15.33-6.36,28.92-7.95,45.04-8.47-28.49-13.6-33.21-29.14,10.6-4.51-4.16,6.09-10.69,3.97-27.16-2.9-22.58-42.17-47.28-60.94-10.6,14.38-6.37,40.29-6.9,47.03,8.61-29.06-27.14-69.7,8.83-27.82-5.3,43.42,6.16-8.78-.93-18.55,7.95-15.12,13.74,21.94-8.59,43.05,13.25-12.16-3.98-33.03-14.24-41.07,1.32-.6,1.17-1.08,2.55-2.65,2.65,0-4.23,2.29-5.81.66-6.62-1.8-.9-3.12,3.44-5.96,2.65-.1-3.35.66-4.94-2.65-7.29.38-9.5,2.45-18.97,2.65-28.48.2-9.7.85-7.38-1.32-18.55,2.84-.65,3.28-5.13,3.97-7.95,2.53-2.97,8.26-14.28,9.27-17.22-.49,3.07,1.24,2.53,1.32,2.65,5.09,6.85-6.74,13.48,0,19.87-2.36,3.26-7.75,12.22-7.29,15.9,22.34-20.22,56.2-.32,63.59,25.17,10.05-21.78.35-47.5,9.94-23.18.21-10.53-1.61-23.07-6.62-32.45h1.32c1.61-.14,1.2,1.14,1.32,1.32,10.25,15.55,11.03,44.75,10.6,2.65l1.32-1.32c1.56,2.79.96,4.97,3.31,6.62,2.67-8.02,9.69-11.8,15.23-15.9-4.33,3.01-21.05,27.72-16.56,30.47,7.34-16.25,23.07-34.53,41.07-38.42,19.65-4.25-10.63,5.6-18.55,11.92-2,1.6-19.93,22.53-15.9,23.84,12.54-21.61,51.01-48.14,68.22-19.21-20.07-20.5-48.52-4.08-60.94,16.56Z"/>
        <path class="cls-18" d="m224.83,462.54c-5.66-3.59.93,4.89-1.99,6.62-.79.47-1.03-4.92-15.9-9.27-42.27-3.68,41.5,11.23.66,12.58q6.62,1.32,13.25,2.65c-2.18,3.07-3.6,6.6-5.3,9.94-.23.45-1.78-1.27-3.31,7.95-39.45,3.01-24.17-6.64-24.51-9.94-.06-.55-3.47-1.29-3.97-1.99-3.5-4.79-8.52-9.68-13.25-13.25-1.29-12.37.09-30.39,11.92-37.09,6.98-3.96,24.09-5.63,31.13-2.65,8.16,3.45-28.63-1.36-29.81,7.29-1.16,8.56,20.32-.76,32.45,1.99,13.63,3.09-24.31-.84-33.78,12.58.96,1.99,25.89-9.32,42.39,3.97-9.12,2.28-.73,3.67,0,8.61Z"/>
        <path class="cls-24" d="m121.5,409.55c-.66,1.87-1.3,1.24-1.32,1.32-2.53-1.69-5.31-6.27-7.95-7.95,1.12-4.2-1.94-4.52-3.97-6.62-21.12-21.84-58.17.49-43.05-13.25,9.77-8.88,61.96-1.78,18.55-7.95-41.88,14.13-1.25-21.84,27.82,5.3-6.73-15.51-32.65-14.98-47.03-8.61,18.76-36.68,58.03-11.98,60.94,10.6,2.12,16.47-8.48,22.99-3.97,27.16Z"/>
        <path class="cls-18" d="m80.44,459.89c1.48,1.44,2.16,2.58,3.97,3.97,20.58,15.76,17.57-1.8,25.17-7.95.12-.09-.42-1.81,2.65-1.32-.53,3.01-1.53,5.36-3.97,7.29,3.87,31.5-6.03,18.27-3.97,33.78-14.13,9.55-22.39,31.65-29.14,33.12.45-2.36-.47-5.62,0-7.95,4.44-22.17,5.12-16.26,5.3-17.22l21.2-13.91c.2-6.24-12.87,5.02-15.23,3.31-.35-.25-1.81-5.99-3.31-7.95-7.27-9.51-6.25-7.35-14.57-13.25-.23-.16-1.91-3.78-3.97-3.97-.09-.42.08-.9,0-1.32q12.58,5.63,25.17,11.26c-17.8-10.63-26.85-10.99-24.51-35.1.91-.7,4.98,7.2,15.23,17.22Z"/>
        <path class="cls-1" d="m194.36,347.29c-44.25,33.05,6.72-4.7,30.47,19.87.16.32,3.01,1.7,2.65,6.62-22.53-20.68-49.36-7.04-46.36-.66,19.9-7.67,28-8.49,46.36,3.31-2.12,5.66-7.29,2.83-7.95,5.3-17.28-14.99-23.31-12.77-43.05,1.32-5.76,4.11-13.36,10.76-16.56,17.22-1.06-14.28,6.38-20.1,10.6-31.79-.21-13.03,1.74-22.58,16.56-23.84,4.62-.39,8.26-.6,7.29,2.65Z"/>
        <path class="cls-13" d="m219.53,381.73c8.62,7.47,15.68,14.25,13.25,26.49-1.09-6.55-4.66-9.38-9.27-13.25-12.86-10.79-33.5-9.46-46.36,1.32-4.84,4.06-7.7,9.01-10.6,14.57-4.49,8.61-6.84,11.68-7.95,22.52-.78-4.04-1.68-7.93-2.65-11.92.96-10.45,24.67-42.85,3.31-17.22-2.06-1.71.76-2.66.66-3.97,3.2-6.46,10.8-13.11,16.56-17.22,19.74-14.09,25.77-16.31,43.05-1.32Z"/>
        <path class="cls-1" d="m197.01,392.33c6.66,5.94,16.77,6.81,23.84,11.92,17.76,12.83,11.24,20.54,10.6,23.84-13.31-14.39-32.05-17.27-50.34-11.92l-6.62-7.95c4.24-4.31,7.17-7.71,13.25-9.94-1.57-4.52-19.11,10.29-21.2,12.58,2.9-5.57,5.75-10.51,10.6-14.57,6.58-2.14,12.91-3.61,19.87-3.97Z"/>
        <path class="cls-24" d="m216.88,338.02c2.44.99,7.09,2.56,7.95,5.3-4.83,15.88-10.19-1.43-30.47,3.97.97-3.25-2.67-3.04-7.29-2.65-14.82,1.27-16.76,10.81-16.56,23.84-16.18,21.53-7.2-.05-11.92-14.57,1.13-3.4,1.27-2.51,1.32-2.65,4.81,13.42,15.31-4.39,1.32-3.97.09-.19-.29-1.29,1.32-3.97,20.4-1.74,33.02-13.89,54.31-5.3Z"/>
        <path class="cls-23" d="m64.54,400.28c-.01,10.41,4.68,20.61,7.95,31.79.05.17-2.32-.1-1.32,3.31,2.3,7.87,8.9,15.6,9.27,24.51-10.26-10.02-14.32-17.92-15.23-17.22-2.34,24.12,6.71,24.48,24.51,35.1q-12.58-5.63-25.17-11.26c-.95-4.94-4.96-14.3-5.3-19.21-.77-11.27,3.06-22.68,2.65-33.12-.2-4.96-2.5-12.81-2.65-17.88,2.84.79,4.16-3.55,5.96-2.65,1.63.82-.66,2.4-.66,6.62Z"/>
        <path class="cls-21" d="m165.22,508.9c1.82,7.91-6.02,18.99,0,18.55v1.32c-27.04-7.34-.18,9.52,5.3,17.22-1.72-.22-3.57.19-5.3,0-6.66-.74-6.63-.39-9.27,5.3l-6.62-3.97c.84-6.08-4.05-15.71-3.97-16.56.1-1.17,3.34-1.12,7.95-21.2,1.22-5.3,3.9-5.61,3.97-5.96,4.69-1.09,5.55,3.09,7.95,5.3Z"/>
        <path class="cls-18" d="m231.45,428.1c-.45,2.32,2.81,4.17.66,6.62-11.09-16.1-35.75-18.79-52.33-10.6-12.09,5.98-13.84,15.93-17.22,27.82-.48-3.9-1.96-8.07-2.65-11.92,3.87-4.6,3.92-12.74,7.95-17.22,2.32-2.58,9.69-5.58,13.25-6.62,18.29-5.35,37.03-2.47,50.34,11.92Z"/>
        <path class="cls-1" d="m224.83,462.54c2.09,14.1-6.33,36.85-11.92,51-7.06,17.84-27.98,55.74-19.87,33.78,4.3-11.63,11.63-23.32,15.9-35.1,2.18-6.02,6.92-22.37,6.62-27.16,1.7-3.34,3.12-6.86,5.3-9.94q-6.62-1.32-13.25-2.65c40.84-1.36-42.93-16.26-.66-12.58,14.86,4.36,15.1,9.74,15.9,9.27,2.92-1.73-3.68-10.22,1.99-6.62Z"/>
        <path class="cls-21" d="m105.61,523.47c-.69-1.67-1.05-9.52-1.32-9.94-1.23-1.86-2.43.18-3.97.66-2.44.76-39.55,28.5-18.55,37.09q-6.62-1.32-13.25-2.65c.5-5.88,5.59-14.5,6.62-19.87,6.76-1.47,15.02-23.57,29.14-33.12,1.16,8.75,5.4,5.93,1.32,27.82Z"/>
        <path class="cls-3" d="m170.52,368.48c-4.21,11.69-11.65,17.52-10.6,31.79.1,1.31-2.73,2.27-.66,3.97,21.36-25.63-2.35,6.77-3.31,17.22-1.81-7.46-3.12-15.18-5.3-22.52,1.59-16.12,2.85-29.71,7.95-45.04,4.72,14.52-4.26,36.1,11.92,14.57Z"/>
        <path class="cls-18" d="m81.76,551.29c1.57.64,1.66,1.17,3.97,1.32,3.05.2,10.58-2.07,14.57-2.65-6.15,24.23-34.06,25.45-31.79-1.32q6.62,1.32,13.25,2.65Z"/>
        <path class="cls-18" d="m224.83,367.16c-23.74-24.57-74.72,13.18-30.47-19.87,20.28-5.4,25.63,11.9,30.47-3.97,8.29,26.54-16.04-1.51-33.12,8.61,13.69.84,26.1,1.6,33.12,15.23Z"/>
        <path class="cls-21" d="m83.09,485.06c-4,.79-.68,8.25-2.65,18.55-.18.96-.86-4.95-5.3,17.22-10.7-14.32-4.56-14.28-2.65-21.2,6.6-5.1-4.62-20.64-3.97-27.82,8.32,5.9,7.3,3.74,14.57,13.25Z"/>
        <path class="cls-23" d="m170.52,467.84c4.73,3.56,9.74,8.45,13.25,13.25,1.04,23.18-7.47,10.17-22.52-7.95.48-3.6,2.11-5.17,3.97-7.95,2.16-.24,3.76,1.49,5.3,2.65Z"/>
        <path class="cls-21" d="m182.44,430.74c-11.83,6.71-13.22,24.72-11.92,37.09-1.54-1.16-3.14-2.89-5.3-2.65-1.51-4.18-2.11-8.86-2.65-13.25,3.38-11.89,5.13-21.84,17.22-27.82l2.65,6.62Z"/>
        <path class="cls-1" d="m105.61,523.47c-.52,2.78-1.49-.74-2.65.66-1.74,8.44-.54,17.52-2.65,25.83-3.99.58-11.52,2.85-14.57,2.65,6.36-11.98,13.45-24.46,14.57-38.42,1.54-.48,2.74-2.53,3.97-.66.28.42.64,8.27,1.32,9.94Z"/>
        <path class="cls-17" d="m114.88,426.77c-.56,2.32-.56,15.91-2.65,27.82-3.07-.49-2.53,1.23-2.65,1.32-8.37-14.49-11.01-20.03,5.3-29.14Z"/>
        <path class="cls-18" d="m227.48,373.78c-.07,1.01.17,2.19,0,2.65-18.36-11.8-26.47-10.98-46.36-3.31-3-6.38,23.84-20.02,46.36.66Z"/>
        <path class="cls-1" d="m223.5,394.98c4.61,3.87,8.18,6.7,9.27,13.25-1.65,8.32-3.72-.16-11.92-5.3-6.19-3.88-12.26-6.98-18.55-10.6,7.25-.02,14.19.81,21.2,2.65Z"/>
        <path class="cls-8" d="m174.49,408.23c-3.8,3.86-12.97,9.6-6.62,14.57-4.03,4.48-4.08,12.62-7.95,17.22-.41-2.27-.89-4.38-1.32-6.62,1.11-10.84,3.46-13.91,7.95-22.52,2.09-2.3,19.62-17.11,21.2-12.58-6.08,2.22-9.01,5.62-13.25,9.94Z"/>
        <path class="cls-23" d="m68.52,471.81c-.64,7.18,10.57,22.72,3.97,27.82-4.22-10.32-5.69-20.99-7.95-31.79,2.06.2,3.74,3.81,3.97,3.97Z"/>
        <path class="cls-6" d="m202.31,392.33c6.29,3.62,12.35,6.72,18.55,10.6v1.32c-7.07-5.11-17.19-5.99-23.84-11.92,1.75-.09,3.54,0,5.3,0Z"/>
        <path class="cls-1" d="m132.1,324.77c5.01,9.39,6.83,21.93,6.62,32.45-9.58-24.32.11,1.4-9.94,23.18-7.38-25.49-41.24-45.39-63.59-25.17-.46-3.68,4.92-12.64,7.29-15.9,8.29-11.44,20.76-19.44,34.44-22.52,3.1.81,3.66-2.2,14.57,6.62.13.1-.62,4.31,2.65,1.99-1.45-1.98-2.56-1.84-2.65-1.99-1.77-2.98-11.23-14.07-1.99-13.25.96.09,12.13,13.72,12.58,14.57Z"/>
        <path class="cls-21" d="m158.6,298.28c.45.88,11.31,12.01,13.25,14.57-2.13,1.56-4.37,3.63-6.62,5.3-5.54,4.1-12.57,7.87-15.23,15.9-2.36-1.65-1.75-3.83-3.31-6.62-2.39-4.28-2.46-6.32-2.65-6.62,13.14-12.21,1.26-15.27,0-22.52-.05-.26-.04-5.04,0-5.3.04-.26,3.71-2.06,3.97-3.31,4.76-22.42-.54-6.58-5.3-4.64-6.42-10.44,10.46-12.59,11.26-11.92,4.48,3.73-.64,14.89,4.64,25.17Z"/>
        <path class="cls-20" d="m161.24,263.83q-14.9-.66-29.81-1.32l-3.31,26.49c-.72-.13-8.82,2.59-14.57-1.99,5.31-7.79,8.41-16.53,11.92-25.17,1.47-3.61,6.91,1.22.66-11.26l39.74-1.32c.68.35-3.44,9.3-4.64,14.57Z"/>
        <path class="cls-17" d="m161.24,263.83c-2.97,13.06-4.96,20.5-2.65,34.44-5.28-10.28-.15-21.44-4.64-25.17-.8-.67-17.68,1.48-11.26,11.92-2.13.87-3.16-8.51-5.3,6.62-7.92-1.5-8.8-2.56-9.27-2.65l3.31-26.49q14.9.66,29.81,1.32Z"/>
        <path class="cls-8" d="m106.93,316.82c-13.68,3.08-26.15,11.08-34.44,22.52-6.74-6.39,5.09-13.02,0-19.87,2.86-8.39.85,0,3.31,0,1.51,0,11.99-7.92,29.14-5.3,1.07.16,1.83,2.61,1.99,2.65Z"/>
        <path class="cls-28" d="m144.02,298.28c1.26,7.25,13.14,10.31,0,22.52-4.36-7.12-10.43-13.05-10.6-13.91-.51-2.55,3.07-15.52,10.6-8.61Z"/>
        <path class="cls-7" d="m145.35,328.74c.43,42.1-.34,12.9-10.6-2.65l5.3-6.62c1.84,3.11,3.76,5.95,5.3,9.27Z"/>
        <path class="cls-29" d="m144.02,292.98c-2.47.34-4.27-.88-6.62-1.32,2.14-15.13,3.17-5.75,5.3-6.62,4.76-1.95,10.06-17.78,5.3,4.64-.27,1.26-3.94,3.06-3.97,3.31Z"/>
        <g>
          <path class="cls-1" d="m231.45,287.68c10.7,15.92,31.74,39,6.62,52.99-.13-.86,2.02-5.72-1.99-17.22-4.32-3-7.05,13.94-10.6,14.57-.5.09-2.08-5.27-8.61,0-21.3-8.59-33.92,3.56-54.31,5.3,12.41-20.64,40.87-37.06,60.94-16.56-17.21-28.93-55.68-2.4-68.22,19.21-4.03-1.31,13.9-22.25,15.9-23.84,7.92-6.32,38.2-16.17,18.55-11.92-18,3.89-33.72,22.17-41.07,38.42-4.49-2.75,12.23-27.45,16.56-30.47,2.26-1.67,4.5-3.74,6.62-5.3.36-.26,4.39-1.43,7.95-3.97,2.57-1.84,8.27-3.64,8.61-3.97,3.28-3.2,0-3.19.66-3.97,1.08-1.28,1.69-4.39,2.65-5.3,6.52,2.21,12.81,13.68,19.87,6.62,2.17,1.55,8.03,8.01,8.61,7.95,11.3-1.26-22.8-35.45-23.18-37.75-.1-.6,3.35-10.88,4.64-11.26,2.24-.65,25.66,23.44,29.81,26.49Z"/>
          <path class="cls-13" d="m220.19,290.33c3.94,2.49,8.28-1.73,9.94.66.72,1.04-8.2,21.94-9.94-.66Z"/>
        </g>
        <path class="cls-7" d="m159.92,351.26c.37-.91.1-1.54,1.32-3.97,13.98-.42,3.48,17.4-1.32,3.97Z"/>
        <g>
          <path class="cls-18" d="m112.23,402.93c2.64,1.68,5.41,6.26,7.95,7.95-1.63,4.89-4.21,11.4-5.3,15.9-16.31,9.12-13.67,14.65-5.3,29.14-7.6,6.15-4.59,23.71-25.17,7.95,5.92-14.02-7.24-16.38-11.92-31.79-3.26-11.19-7.96-21.38-7.95-31.79,1.57-.1,2.05-1.48,2.65-2.65,13.2-5.52,33.36-2.13,45.04,5.3Z"/>
          <path class="cls-28" d="m108.26,396.3c2.03,2.1,5.09,2.42,3.97,6.62-11.68-7.43-31.84-10.82-45.04-5.3,8.03-15.57,28.91-5.3,41.07-1.32Z"/>
          <path class="cls-17" d="m84.41,463.86c-1.82-1.39-2.5-2.53-3.97-3.97-.37-8.91-6.97-16.64-9.27-24.51-1-3.41,1.37-3.14,1.32-3.31,4.69,15.41,17.84,17.78,11.92,31.79Z"/>
          <path class="cls-5" d="m104.95,413.52c8.31.39,10.95,8.08,6.62,9.27-.99.27-7.14-7.15-6.62-9.27Z"/>
        </g>
        <g>
          <path class="cls-18" d="m183.76,481.08c.51.69,3.92,1.44,3.97,1.99.34,3.3-14.94,12.95,24.51,9.94,1.53-9.22,3.08-7.5,3.31-7.95.29,4.78-4.44,21.13-6.62,27.16-4.26,11.78-11.6,23.47-15.9,35.1-9.51,8.9-8.8,17.59-9.27,18.55-4.73-3.92-3.59-7.56-4.64-13.25-7.04,22.69-10.22,3.7-13.91-6.62,1.73.19,3.58-.22,5.3,0,1.39.18,14.96,9.03,7.29-2.65,24.32-1.73,7.61-2.26,6.62-2.65-8.2-3.26-20.35-16.8-21.86-2.65-9.67-8.29-15.86-14.23,2.65-9.27,5.88,1.57,14.24,7.94,20.53,6.62,3.6-.75,9.02-9.42,8.61-9.94-.79-1-7.96-.54-10.6-.66-5.51-5.99-12.54-10.37-18.55-15.9-2.4-2.21-3.26-6.39-7.95-5.3.42-1.87,2.95-22.72,3.97-30.47,15.05,18.12,23.56,31.13,22.52,7.95Z"/>
          <g>
            <path class="cls-18" d="m170.52,545.99c-2.28-2.72-5.29-5.67-7.95-7.95,1.51-14.15,13.66-.61,21.86,2.65.99.39,17.7.92-6.62,2.65,7.68,11.68-5.9,2.83-7.29,2.65Z"/>
            <path class="cls-19" d="m183.76,524.8c2.64.12,9.81-.33,10.6.66.41.52-5.01,9.18-8.61,9.94-6.29,1.31-14.65-5.05-20.53-6.62v-1.32c.46-3.71,10.99-3,18.55-2.65Z"/>
            <path class="cls-17" d="m183.76,524.8c-7.55-.35-18.08-1.06-18.55,2.65-6.02.44,1.82-10.64,0-18.55,6.01,5.53,13.04,9.91,18.55,15.9Z"/>
            <path class="cls-23" d="m164.56,482.41c1.29-.18,13.59,20.02,13.25,21.2-2.69-.27-22.78-19.86-13.25-21.2Z"/>
            <path class="cls-21" d="m160.58,494.33c1.01-.65,13.41,11.44,13.91,12.58,5.64,12.82-17.85-10.06-13.91-12.58Z"/>
          </g>
        </g>
        <g>
          <path class="cls-20" d="m165.22,545.99c3.69,10.32,6.87,29.32,13.91,6.62,1.05,5.68-.1,9.33,4.64,13.25-6.39,12.88-9.52,10.52-13.25,26.49-6.45.58-8.14,11.53-9.27,17.22-7.37,7.07-6.77,20.55-2.65,29.14-3.06-.09-3.14-1.36-3.31-1.32-.34.07-.56,2.79-4.64,5.3-4.82-10.96-2.72-19.65-5.3-30.47,4.78-1.43,1.86-13.56,1.32-19.87,9.85,5.37,1.19-6.02,2.65-13.91,4.53-9.19,2-17.2,6.62-27.16,2.65-5.69,2.62-6.04,9.27-5.3Z"/>
          <path class="cls-1" d="m178.47,645.34c-4.47-.8-10.03-5.11-10.6-5.3-.4-12.09-.05-23.72,1.32-35.77.32-2.79,1.18-3.01,1.32-3.97,6.27,3.23,9.21,35.54,7.95,45.04Z"/>
          <path class="cls-18" d="m158.6,638.72c2.53.07,7.05.59,9.27,1.32.56.19,6.12,4.5,10.6,5.3-2.65,19.91-22.11,10.34-27.82-2.65,4.08-2.51,4.29-5.23,4.64-5.3.17-.04.26,1.24,3.31,1.32Z"/>
          <path class="cls-17" d="m155.95,551.29c-4.63,9.95-2.09,17.97-6.62,27.16-1.46,7.89,7.2,19.28-2.65,13.91-.6-7.01-2.08-14.08-1.99-21.2l-8.61,10.6c-1.07-8.69,1.72-9.02,7.95-15.23-3.18-10.38,4.71-14.94,5.3-19.21l6.62,3.97Z"/>
          <path class="cls-23" d="m146.67,592.36c.54,6.31,3.45,18.44-1.32,19.87-2.29-9.62-8.45-23.75-9.27-30.47l8.61-10.6c-.1,7.11,1.39,14.18,1.99,21.2Z"/>
          <path class="cls-21" d="m170.52,592.36c-.48,2.06.37,5.46,0,7.95-.14.97-1.01,1.18-1.32,3.97-6,5.77-7.6,4.97-7.95,5.3,1.13-5.69,2.82-16.65,9.27-17.22Z"/>
          <path class="cls-5" d="m167.87,640.05c-2.22-.73-6.74-1.25-9.27-1.32-4.12-8.59-4.72-22.07,2.65-29.14.34-.33,1.94.47,7.95-5.3-1.37,12.05-1.72,23.68-1.32,35.77Z"/>
        </g>
        <path class="cls-22" d="m80.44,503.6c1.97-10.3-1.35-17.75,2.65-18.55,1.5,1.96,2.96,7.7,3.31,7.95,2.36,1.71,15.43-9.55,15.23-3.31l-21.2,13.91Z"/>
        <path class="cls-31" d="m223.5,394.98c-15.19-3.86-31.5-3.84-46.36,1.32,12.86-10.79,33.51-12.11,46.36-1.32Z"/>
        <path class="cls-26" d="m181.11,416.17c-3.56,1.04-10.93,4.05-13.25,6.62-6.35-4.97,2.83-10.71,6.62-14.57l6.62,7.95Z"/>
        <path class="cls-25" d="m85.74,552.62c-28.45-6.38,10.26-36.57,14.57-38.42-1.12,13.96-8.22,26.44-14.57,38.42Z"/>
        <path class="cls-13" d="m204.96,291.65c-6.13,1.64-8.5-2.09-11.26-1.32-3.92,1.09-2.94,15.76-19.21,2.65-2.52-4.75-3.22-5.24-1.32-10.6.6-1.7,1.86-4.25,3.31-5.3,10.93-7.94,8.47,4.35,28.48,14.57Z"/>
        <g>
          <path class="cls-26" d="m204.96,291.65c-20.01-10.22-17.55-22.51-28.48-14.57-1.45,1.05-2.71,3.6-3.31,5.3l-2.65-3.97c16.56-18.03,27.78-1.81,38.42,12.58-.1,1.24-2.74.33-3.97.66Z"/>
          <path class="cls-8" d="m191.05,275.76c.78-.38,3.31-.05,3.31.66,0,1.51-5.67.48-3.31-.66Z"/>
        </g>
      </g>
    </g>
  </g>
</svg>