<?xml version="1.0" encoding="UTF-8"?>
<svg id="Layer_2" data-name="Layer 2" xmlns="http://www.w3.org/2000/svg" viewBox="0 0 460.06 601.12">
  <defs>
    <style>
      .cls-1 {
        fill: #8beaff;
        opacity: .24;
      }

      .cls-1, .cls-2, .cls-3, .cls-4, .cls-5, .cls-6, .cls-7, .cls-8, .cls-9, .cls-10, .cls-11 {
        stroke-width: 0px;
      }

      .cls-3 {
        fill: #733900;
      }

      .cls-4 {
        fill: #700000;
      }

      .cls-5 {
        fill: #707271;
      }

      .cls-6 {
        fill: #ccd5d5;
      }

      .cls-7 {
        fill: #666b6b;
      }

      .cls-8 {
        fill: #ffd8ce;
      }

      .cls-9 {
        fill: #fff;
      }

      .cls-10 {
        fill: #ffbdac;
      }

      .cls-11 {
        fill: #ebeeee;
      }
    </style>
  </defs>
  <g id="human_2" data-name="human 2">
    <path class="cls-5" d="m137.93,163.97c24.45-1.62,36.67-2.43,192.35.11,1.92.03,7.07.07,11.38,3.42,8.99,7,7.31,23.04,6.81,28.46-3.9,42.21-10.55,114.18,5.6,160.49,2.38,6.83,8.09,21.22,2.26,35.29-4.11,9.93-12.49,16.11-20.5,20.48-44.93,24.5-92.76-.2-176.42,1.03-7.75.11-23.02.56-30.73-9.12-8.65-10.87-1.73-26.93,2.3-44.39,14.17-61.29-6.08-144.65-11.29-162.77-1.35-4.71-5.43-18.03,1.15-26.18,4.88-6.04,13.47-6.58,17.08-6.82Z"/>
    <g>
      <path class="cls-11" d="m302.79,205.29c22.86-19.46,78.99,17.95,84.56,21.74,20.19,13.71,29.6,27.3,34.67,36.89,4.7,8.87,11.7,22.57,7.57,37.95-1.17,4.36-3.27,12.19-9.77,16.26-13.21,8.27-36.83-3.89-50.95-16.29-23.09-20.29-18.2-38.95-39-48.81-15.21-7.21-25.63-.95-32.52-9.78-7.44-9.53-4.9-29.14,5.44-37.95Z"/>
      <path class="cls-11" d="m162.41,202.79c-22.86-19.46-78.99,17.95-84.56,21.74-20.19,13.71-29.6,27.3-34.67,36.89-4.7,8.87-11.7,22.57-7.57,37.95,1.17,4.36,3.27,12.19,9.77,16.26,13.21,8.27,36.83-3.89,50.95-16.29,23.09-20.29,18.2-38.95,39-48.81,15.21-7.21,25.63-.95,32.52-9.78,7.44-9.53,4.9-29.14-5.44-37.95Z"/>
      <path class="cls-11" d="m201.32,383.65c-29.5-5.55-59.65,54.8-62.61,60.85-10.72,21.93-12.14,38.39-11.79,49.23.33,10.03,1.05,25.4,12.28,36.7,3.18,3.2,8.89,8.96,16.55,9.26,15.57.62,30.04-21.66,36.14-39.44,9.97-29.08-3.54-42.84,9.62-61.74,9.62-13.81,21.78-13.55,23.38-24.63,1.73-11.96-10.21-27.73-23.57-30.24Z"/>
      <path class="cls-11" d="m281.87,381.05c29.26-6.7,61.75,52.42,64.95,58.35,11.57,21.49,13.64,37.88,13.71,48.73.07,10.04-.05,25.42-10.83,37.16-3.05,3.33-8.54,9.3-16.18,9.9-15.54,1.23-30.86-20.46-37.66-37.99-11.11-28.66,1.86-42.95-12.03-61.31-10.15-13.42-22.29-12.69-24.32-23.7-2.19-11.89,9.12-28.1,22.36-31.14Z"/>
      <path class="cls-11" d="m170.68,180.8c-11.5,2.94-26.15,8.82-32.99,21.79-11.25,21.35,11.04,38.46,16.97,81.92,6.66,48.82-15.61,70.17,2.6,98.4,7.52,11.65,17.23,17.18,28.18,23.42,37.38,21.29,92.96,24.92,126.06-4.71,5.47-4.9,11.53-10.32,15.44-19.67,13.12-31.37-21.16-51.35-21.22-96.81-.05-38.28,24.2-51.45,13.34-76.05-7.69-17.42-26.02-24.78-39.87-30.34-45.16-18.13-89.41-5.02-108.5,2.06Z"/>
    </g>
    <g>
      <path class="cls-8" d="m184.65,55.95c-11,9.66-15.84,24.7-19.03,38.56-1.75,7.63-2.81,15.42-3.14,23.24-.71,16.53,1.42,32.01,13.55,44.35,18.4,18.72,47.85,17.86,71.58,13.2,8.76-1.72,17.06-5.78,23.79-11.64,20.84-18.15,21.97-50.5,12.51-74.7-4.99-12.76-13.31-24.3-24.45-32.37-20.82-15.09-52.74-18.64-73.5-1.75-.45.37-.89.74-1.32,1.11Z"/>
      <path class="cls-10" d="m212.58,92.94c-2.9.16,7.08,15.82-3.93,24.09-4.48,3.36-10.88,4.35-10.19,5.23.72.92,8.84.98,14.62-1.57,9.6-4.24,8.18-13.66,7.91-15.19-1.14-6.41-6.55-12.66-8.4-12.56Z"/>
      <path class="cls-10" d="m251.94,92.61c-2.9.16,7.08,15.82-3.93,24.09-4.48,3.36-10.88,4.35-10.19,5.23.72.92,8.84.98,14.62-1.57,9.6-4.24,8.18-13.66,7.91-15.19-1.14-6.41-6.55-12.66-8.4-12.56Z"/>
      <path class="cls-10" d="m262.45,61.01c-6.26,2.7,22.7,50.37,2.43,87.58-8.23,15.12-21.76,23.31-19.87,25.87,2.01,2.71,19.75-3.05,31.21-16.29,19.03-21.98,11.61-54.03,10.32-59.21-5.42-21.7-20.11-39.67-24.09-37.95Z"/>
      <ellipse class="cls-9" cx="202.31" cy="103.31" rx="11.25" ry="19.77"/>
      <ellipse class="cls-9" cx="242.02" cy="103.31" rx="11.25" ry="19.77"/>
      <ellipse class="cls-2" cx="199.47" cy="105.07" rx="6.29" ry="7.89"/>
      <path class="cls-2" d="m245.47,105.98c0,4.36-2.82,7.89-6.29,7.89s-6.29-3.53-6.29-7.89,2.82-7.89,6.29-7.89,6.29,3.53,6.29,7.89Z"/>
      <path class="cls-2" d="m206.14,65.81c-9.7,10.65-15.09,12.38-18.27,11.69-.81-.18-3.38-.93-4.26.17-.78.98.05,3.1.71,3.9,1.18,1.45,5.49,3.17,25.89-6.72"/>
      <path class="cls-2" d="m232.05,64.77c9.7,10.65,15.09,12.38,18.27,11.69.81-.18,3.38-.93,4.26.17.78.98-.06,3.1-.71,3.9-1.18,1.45-5.49,3.17-25.89-6.72"/>
      <path class="cls-2" d="m198.82,155.33c-2.18-4.34,8.77-19.1,22.88-20.37,14.76-1.34,28.28,12.49,26.76,16.68-.99,2.74-8.79,2.34-9.57,2.3-8.9-.52-11.19-6.17-16.84-4.97-4.6.97-4.36,4.99-10.29,7.26-4.82,1.84-11.62,1.74-12.94-.89Z"/>
      <path class="cls-4" d="m215.31,152.86c-1.69-.87-.37-12.47,5.15-14.03,6.37-1.79,13.64,11.09,12.58,12.26-.72.79-4.92-4.06-10.28-3.02-4.58.89-6.33,5.36-7.45,4.78Z"/>
      <path class="cls-3" d="m177.32,65.96c-5.79-2.32-10.92-6.51-17.03-4.49-6.7,2.21-8.82,9.99-10.96,9.26-2.12-.73-3.08-9.43,1.22-13.74,7.08-7.08,24.61,1.48,25.24-.28.61-1.68-14.12-12.36-26.15-8.08-7.07,2.51-9.82,8.98-11.56,8.06-2.26-1.19-1.21-13.86,5.79-17.93,11.57-6.73,33.8,13.34,37.41,9.29,2.77-3.11-10.86-14.38-7.29-23.31,3.61-9.02,22.48-9.99,22.82-8.95.25.76-9.66,1.89-12.17,8.36-2.84,7.31,4.61,19.3,10.63,19.13,8.4-.24,13.54-24.18,15.53-23.6,1.88.55-2.63,21.86-1.53,22.11,1.08.25,3.13-21.14,14.61-25.09,7.11-2.44,15.73,2.51,15.51,3.89-.2,1.24-7.42-.99-13.08,2.98-6.8,4.76-8.1,16.18-5.49,17.63,3.25,1.8,9.69-13.37,22.52-14.33,11.43-.85,21.56,10.04,20.98,11.07-.4.7-5.66-3.51-13.08-2.7-8.62.95-15.95,8.24-14.91,10.75.62,1.49,3.83.38,9.73,1.5,9.14,1.73,17.27,7.14,16.72,8.97-.54,1.79-9.1-.67-20.68-.91-33.42-.68-45.49,18.15-64.79,10.42Z"/>
    </g>
    <circle class="cls-1" cx="219.04" cy="98.88" r="98.88" transform="translate(-5.76 183.84) rotate(-45)"/>
    <path class="cls-6" d="m176.54,287.66c10.78-26.32,73.14-35.46,93.62-11.65,3.6,4.19,4.81,8.12,7.44,18.62,12.06,48.18,18.1,72.27,12.72,81.92-14.64,26.25-70.1,34.22-95.74,11.64-10.67-9.39-13.48-34.63-19.1-85.11-.64-5.71-1.05-10.24,1.07-15.42Z"/>
    <path class="cls-7" d="m48.37,299.7c-19.51-5.56-37.25,12.63-39.37,14.87-1.83,1.93-8.16,8.62-6.39,11.7,2.34,4.07,16.8-1.63,18.08,1.07.89,1.87-17.17,5.75-20.22,17.01-.19.7-1.37,5.08.94,7.89,3.15,3.83,10.51,1.99,11.35,1.78,11.06-2.77,16.42-18.87,15.97-19.14-.43-.26-10.35,11.42-8.52,21.98.22,1.28.81,4.42,3.19,5.68,3.21,1.7,7.57-1.15,8.51-1.77,8.74-5.71,8.05-22.23,7.46-22.33-.51-.09-2.8,11.17-1.43,21.98.38,2.99.99,5.52,2.83,6.38,2.68,1.26,6.71-1.57,8.51-3.54,5.49-6-6.03-16.65-1.05-25.88.64-1.19.73-.87,2.48-3.19,1.59-2.09,13.5-18.18,8.53-27.65-2.3-4.39-7.44-5.85-10.87-6.83Z"/>
    <path class="cls-7" d="m411.69,299.94c19.51-5.56,37.25,12.63,39.37,14.87,1.83,1.93,8.16,8.62,6.39,11.7-2.34,4.07-16.8-1.63-18.08,1.07-.89,1.87,17.17,5.75,20.22,17.01.19.7,1.37,5.08-.94,7.89-3.15,3.83-10.51,1.99-11.35,1.78-11.06-2.77-16.42-18.87-15.97-19.14.43-.26,10.35,11.42,8.52,21.98-.22,1.28-.81,4.42-3.19,5.68-3.21,1.7-7.57-1.15-8.51-1.77-8.74-5.71-8.05-22.23-7.46-22.33.51-.09,2.8,11.17,1.43,21.98-.38,2.99-.99,5.52-2.83,6.38-2.68,1.26-6.71-1.57-8.51-3.54-5.49-6,6.03-16.65,1.05-25.88-.64-1.19-.73-.87-2.48-3.19-1.59-2.09-13.5-18.18-8.53-27.65,2.3-4.39,7.44-5.85,10.87-6.83Z"/>
    <path class="cls-7" d="m128.48,517.93c-6.88,6.48-.12,17.85-9.59,29.78-5.8,7.3-13.82,9.95-15.96,10.63-15.32,4.85-22.19-5.31-38.29-1.09-3.08.81-14.28,3.74-18.09,12.75-3.71,8.76.33,21.48,8.49,27.66,13.79,10.44,27.57-6.7,60.63-1.03,13.1,2.25,19.9,6.47,27.66,2.14,6.44-3.59,7.66-9.8,12.78-23.39,12.57-33.4,20.32-36.09,17.05-44.67-5.71-14.97-35.07-21.84-44.67-12.79Z"/>
    <path class="cls-7" d="m362.89,511.86c6.88,6.48.12,17.85,9.59,29.78,5.8,7.3,13.82,9.95,15.96,10.63,15.32,4.85,22.19-5.31,38.29-1.09,3.08.81,14.28,3.74,18.09,12.75,3.71,8.76-.33,21.48-8.49,27.66-13.79,10.44-27.57-6.7-60.63-1.03-13.1,2.25-19.9,6.47-27.66,2.14-6.44-3.59-7.66-9.8-12.78-23.39-12.57-33.4-20.32-36.09-17.05-44.67,5.71-14.97,35.07-21.84,44.67-12.79Z"/>
  </g>
</svg>