<?xml version="1.0" encoding="UTF-8"?>
<svg id="Layer_2" data-name="Layer 2" xmlns="http://www.w3.org/2000/svg" xmlns:xlink="http://www.w3.org/1999/xlink" viewBox="0 0 498.21 757.8">
  <defs>
    <style>
      .cls-1 {
        fill: url(#linear-gradient);
      }

      .cls-1, .cls-2, .cls-3, .cls-4, .cls-5, .cls-6, .cls-7, .cls-8, .cls-9, .cls-10, .cls-11, .cls-12, .cls-13, .cls-14, .cls-15, .cls-16, .cls-17, .cls-18, .cls-19, .cls-20, .cls-21, .cls-22, .cls-23, .cls-24, .cls-25, .cls-26, .cls-27, .cls-28, .cls-29, .cls-30, .cls-31 {
        stroke-width: 0px;
      }

      .cls-2 {
        fill: #8beaff;
        opacity: .15;
      }

      .cls-32 {
        opacity: .36;
      }

      .cls-3 {
        fill: #765c2c;
      }

      .cls-4 {
        fill: #7acb95;
      }

      .cls-5 {
        fill: #62615f;
      }

      .cls-6 {
        fill: #2ca080;
      }

      .cls-7 {
        fill: #0a0809;
      }

      .cls-8 {
        fill: #07121a;
      }

      .cls-9 {
        fill: #159376;
      }

      .cls-10 {
        fill: #cbb6bd;
      }

      .cls-11 {
        fill: #de6c94;
      }

      .cls-12 {
        fill: #cbd6ff;
      }

      .cls-13 {
        fill: #dcc3a2;
      }

      .cls-14 {
        fill: #d4bb8d;
      }

      .cls-15 {
        fill: #bfc2c4;
      }

      .cls-16 {
        fill: #b0986b;
      }

      .cls-17 {
        fill: #ab1f2d;
      }

      .cls-18 {
        fill: #937431;
      }

      .cls-19 {
        fill: #fdf4f2;
      }

      .cls-20 {
        fill: #fffdcd;
      }

      .cls-21 {
        fill: #e3d8c6;
      }

      .cls-22 {
        fill: #e6f5ca;
      }

      .cls-23 {
        fill: #e6e5e5;
      }

      .cls-24 {
        fill: #f198ac;
      }

      .cls-25 {
        fill: #e5dce0;
      }

      .cls-26 {
        fill: #00211d;
      }

      .cls-27 {
        fill: #02352d;
      }

      .cls-28 {
        fill: #040404;
      }

      .cls-29 {
        fill: #004e41;
      }

      .cls-30 {
        fill: #006451;
      }

      .cls-31 {
        fill: #007d64;
      }
    </style>
    <linearGradient id="linear-gradient" x1="36.73" y1="328.25" x2="356.49" y2="369.18" gradientUnits="userSpaceOnUse">
      <stop offset="0" stop-color="#1c9879"/>
      <stop offset="1" stop-color="#008266"/>
    </linearGradient>
  </defs>
  <g id="human_2" data-name="human 2">
    <g>
      <g>
        <path class="cls-10" d="m307.98,290.74c-.49.38-1.08.6-1.55,1.07-10.97-15.22-22.21-30.22-35.29-43.14,11.59-12.13,19.48-29.18,22.29-46.88l.77-.53c16.07,3.87,26.35-15.16,25.54-31.73,2.85-12.31-7.74-24.38-18.26-25.67,2.38-16.67,5.91-33.27,5.88-50.27,1.43-.97,1.99-9.52-.31-10.69,1.43-7.76,2.69-11.38,4.64-18.54,53.77,52.31,63.38,138.95,17.65,202.31-3.7,5.13-17.14,20.81-21.36,24.06Z"/>
        <path class="cls-10" d="m162.49,70.07c-1.96,4.82-7.8,14.25-3.1,11.41,4.12,3.13,8.85,4.63,13.62,5.88-1.34,8.26-1.56,16.74-1.24,25.13l-.93,7.31q1.86,11.59,3.71,23.17c-.23.66-7.01.9-11.3,5.53-1.63,1.76-5.49,8.2-3.25,9.98-3.1,10.65-1.06,25.86,5.57,34.4,4.43,5.71,8.48,6.8,14.86,6.6,3.74,16.68,8.79,34.77,21.05,45.63,1.22,1.33,2.69,2.74,4.02,3.92-1.09,2.68-5.17,5.64-7.58,8.2-9.88,10.47-18.87,22.44-26.78,34.94-.62-.69-1.32-1-1.86-1.43-.5-.4-7.86-7.91-9.13-9.27-28.16-29.98-42.94-69.15-41.02-113.54,1.7-39.19,17.61-71.69,42.26-97.86.11-.12.98.11,1.08,0Z"/>
      </g>
      <path class="cls-15" d="m253.19,294.3c-3.71.04-7.43-.06-11.14,0q-1.08-9-2.17-18c.7-.57,2.92-3.82,3.56-3.74.38.05,4.16,6.05,4.95,6.77l5.42-5.53-.62,20.5Z"/>
      <g>
        <path class="cls-23" d="m205.52,291.45c-11.42-1.17-23.05-1.76-34.36.71,7.91-12.5,16.9-24.46,26.78-34.94,2.41-2.56,6.5-5.52,7.58-8.2,1.34,1.19,6.74,3.85,6.81,5.53.07,1.89-8.1,23.62-6.81,36.9Z"/>
        <path class="cls-23" d="m306.44,291.81c-11.06-.87-22.39-1.84-33.59-.36l-.46-.71c-1.13-12.53-3.58-24.86-6.81-36.9.06-.91,4.64-4.19,5.57-5.17,13.08,12.91,24.32,27.91,35.29,43.14Z"/>
        <path class="cls-15" d="m232.76,294.3c-2.67-.07-5.39.17-8.05,0l-.93-19.07c1.28.07,3.81,3.65,4.8,3.39.41-.11,3.99-6.06,4.33-6.06.23,0,3.5,3.13,3.56,3.39.2.91-3.56,15.65-3.71,18.36Z"/>
      </g>
      <path class="cls-23" d="m160.01,158.48c-2.24-1.78,1.62-8.22,3.25-9.98,4.29-4.62,11.07-4.86,11.3-5.53q-1.86-11.59-3.71-23.17l.93-7.31c.4,10.41,2.42,24.66,4.95,34.76l-.46.53c-7.35-3.88-13.94,2.75-16.25,10.69Z"/>
      <path class="cls-23" d="m307.37,93.6c0-.68.66-2.81.31-3.39-1.5-2.44-2.78,4.45-.62-7.31,2.3,1.17,1.74,9.72.31,10.69Z"/>
      <path class="cls-5" d="m308.6,54.38h-.31c.55-.62.58-1.17.31,0Z"/>
      <g>
        <path class="cls-23" d="m313.25,54.74c-1.44,1.42-6.23,8.24-8.51,10.69.7-3.89,2.98-7.26,3.87-11.05.27-1.17.24-.62-.31,0-2.83,3.19-9.21,13.34-11.61,17.82q1.55-9.09,3.1-18.18l-4.95,6.42c-8.76-17.12-42.36-27.53-55.72-18.54-1.4.94-1.28,2.89-2.17,2.5-17.95-10.53-39.89-8.36-58.66-1.96,5.02,4.93,11.08,7.84,17.18,10.52-7.83-1.38-15.82-2.15-23.37-4.99-.15-.34-1.11-.93-1.08-2.14,15.41,2.25,3.44-.74,4.49-4.81.57-2.2,17.71-5.9,20.28-6.24,13.8-1.81,28.11-.26,40.86,6.42.17-.84,1.91-1.93,2.48-2.14,18.01-6.73,43.71.74,56.03,17.82l5.57-5.7c.78.68-1.56,6.57,0,7.13,5.44.33,4.43-2.73,8.36-6.42.28,2.5,2.48,1.85,4.18,2.85Z"/>
        <path class="cls-23" d="m177.96,56.16c2.82,2.28,6.32,3.52,9.29,5.53-17.48-4.58-19.62,4.39-27.86,19.79-4.7,2.84,1.13-6.59,3.1-11.41,4.31-4.52,6.11-9.95,15.48-13.9Z"/>
        <path class="cls-23" d="m319.75,169.53c-.62-12.72-7.96-22.74-19.19-22.64.28-.95.91-2.87.93-3.03,10.52,1.29,21.11,13.35,18.26,25.67Z"/>
        <g>
          <path class="cls-28" d="m308.29,54.38h.31c-.89,3.79-3.17,7.16-3.87,11.05,2.28-2.46,7.07-9.27,8.51-10.69.35-.35.8-.61,1.08-1.07-.67,3.41-1.68,7.19-2.63,10.69-1.95,7.16-3.22,10.78-4.64,18.54-2.16,11.75-.88,4.87.62,7.31.35.58-.31,2.71-.31,3.39.03,16.99-3.5,33.6-5.88,50.27-.02.16-.65,2.08-.93,3.03,11.23-.1,18.57,9.92,19.19,22.64.81,16.57-9.47,35.59-25.54,31.73l-.77.53c-2.81,17.7-10.7,34.74-22.29,46.88-.93.98-5.51,4.25-5.57,5.17,3.23,12.03,5.68,24.36,6.81,36.9,0,.24.09.61-.15.71-1.59.68-16.17,3.34-19.04,2.85l.62-20.5-5.42,5.53c-.79-.72-4.57-6.73-4.95-6.77-.64-.08-2.86,3.17-3.56,3.74q1.08,9,2.17,18c-3.18.05-6.09.08-9.29,0,.16-2.71,3.92-17.44,3.71-18.36-.06-.26-3.33-3.39-3.56-3.39-.35,0-3.92,5.95-4.33,6.06-.99.26-3.52-3.32-4.8-3.39l.93,19.07c-3.06-.19-6.09-.28-9.13-.71-2.91-.29-8.7-2-10.06-2.14-1.29-13.28,6.88-35,6.81-36.9-.07-1.68-5.47-4.34-6.81-5.53-1.33-1.18-2.81-2.59-4.02-3.92-9.69-10.62-17.17-30.97-19.19-46.17-.43-.43-1.45.52-1.86.53-6.38.2-10.43-.89-14.86-6.6-6.63-8.54-8.67-23.75-5.57-34.4,2.31-7.94,8.91-14.57,16.25-10.69l.46-.53c-2.53-10.1-4.55-24.35-4.95-34.76-.33-8.39-.1-16.88,1.24-25.13-4.77-1.25-9.5-2.75-13.62-5.88,8.24-15.39,10.39-24.37,27.86-19.79-2.97-2.01-6.46-3.24-9.29-5.53-2.87-2.32-4.33-4.64-5.88-8.2,7.55,2.84,15.54,3.61,23.37,4.99-6.1-2.68-12.16-5.58-17.18-10.52,18.77-6.39,40.71-8.57,58.66,1.96.89.4.77-1.55,2.17-2.5,13.37-8.99,46.97,1.42,55.72,18.54l4.95-6.42q-1.55,9.09-3.1,18.18c2.4-4.48,8.78-14.63,11.61-17.82Z"/>
          <g>
            <path class="cls-11" d="m180.44,168.1c.71,5.77.7,11.66.93,17.47q-5.57,1.25-11.14,2.5c-.46-1.07-.83-2.11-1.24-3.21-1.15-10.79-1.63-27.81,11.45-16.76Z"/>
            <path class="cls-23" d="m256.44,257.94c1.02.6-6.71,18.27-7.74,18.18-1.37-1.48-7.65-13.83-7.27-14.79,5-1.18,10.21-1.15,15.01-3.39Z"/>
            <path class="cls-23" d="m221.77,258.3c4.94,1.99,10.16,2.37,15.32,3.03q-4.26,7.22-8.51,14.44c-.81-1.25-7.57-17.06-6.81-17.47Z"/>
            <path class="cls-25" d="m201.49,245.11c-12.26-10.86-17.31-28.95-21.05-45.63.41-.01,1.43-.97,1.86-.53,2.02,15.19,9.51,35.54,19.19,46.17Z"/>
            <g>
              <g>
                <path class="cls-24" d="m294.36,189.49c19.8-2.76,15.51-20.89,10.37-24.24-4.12-2.69-6.05,1.1-7.89.36,2.48-12.59,3.57-13.87,9.44-11.76,9.15,3.29,11.82,20.49,5.73,32.26-6.14,11.86-18.02,12.06-18.57,9.98.43-2.13.77-4.43.93-6.6Z"/>
                <path class="cls-11" d="m294.36,189.49c.54-7.44,1.07-16.75,2.48-23.89,1.84.74,3.77-3.04,7.89-.36,5.14,3.35,9.43,21.48-10.37,24.24Z"/>
              </g>
              <path class="cls-24" d="m180.44,168.1c-13.08-11.05-12.6,5.97-11.45,16.76-2.74-7.41-1.37-8-4.95-7.49-1.43-6.97-1.71-20.82,5.73-23.89,8.95-3.7,9.77,7.23,10.68,14.62Z"/>
              <path class="cls-11" d="m181.37,185.57c.05,1.22,1.17,8.34.46,8.91-4.67-.06-6.97-.77-10.68-3.92-.11-.9-.59-1.7-.93-2.5q5.57-1.25,11.14-2.5Z"/>
              <path class="cls-19" d="m168.99,184.86c.41,1.1.78,2.13,1.24,3.21.34.8.82,1.59.93,2.5-4.08-3.47-5.97-7.59-7.12-13.19,3.58-.51,2.21.08,4.95,7.49Z"/>
              <g>
                <path class="cls-25" d="m291.58,194.84c-2.11,11.61-7.09,26.03-12.69,36.01,1.86-6.95,5.11-13.61,7.43-20.5,1.62-4.83,2.75-11.5,5.26-15.51Z"/>
                <g>
                  <path class="cls-24" d="m291.58,194.84c-2.52,4.01-3.64,10.67-5.26,15.51-2.31,6.89-5.57,13.55-7.43,20.5-12.42,22.14-33.33,32.51-55.72,24.24-7.31-5.1-13.15-9.04-18.88-16.58-11.43-15.03-13.96-32.18-19.5-50.44-3.33-27.17-4.18-72.83,2.79-98.93,7.57-.84,15.19-.96,22.75-1.96,17.82-2.35,55.3-15.26,68.11-3.92,6.88,6.09,10.49,31.21,11.92,41.18,3.06,21.39,5.08,49.24,1.24,70.41Z"/>
                  <g>
                    <path class="cls-23" d="m223.16,255.09c-24.26-8.95-35.14-40.54-38.39-67.02,5.54,18.26,8.08,35.41,19.5,50.44,5.73,7.54,11.57,11.47,18.88,16.58Z"/>
                    <g>
                      <path class="cls-28" d="m223.32,102.86q3.64,4.55,7.27,9.09c-8.41,13.98-20.09,22.69-35.14,22.99-8.74-13.48-1.96-3.59,12.07-12.83,6.2-4.08,11.96-12.39,15.79-19.25Z"/>
                      <path class="cls-28" d="m253.04,106.07c4.36,7.67,11.51,17.16,19.5,19.61,7.02,2.15,9.47-2.65,4.02,9.98-12.67.73-23.54-8.49-31.73-18.72q4.1-5.44,8.2-10.87Z"/>
                    </g>
                    <path class="cls-28" d="m228.89,191.99c.37-.13,6.91,3.19,7.12,3.56.47.85-.91,3.7-2.17,3.56-.39-.04-6.06-5-6.04-5.53,0-.1,1-1.58,1.08-1.6Z"/>
                    <g>
                      <path class="cls-23" d="m210,136.02c28.02-4.37,25.72,61.99-5.26,52.76-19.29-5.74-14.32-49.71,5.26-52.76Z"/>
                      <path class="cls-28" d="m206.91,144.93c3.23-.53,6.76.92,9.29,3.21,6.09,5.52-.89,4.74,1.08,9.8.79,2.04,3.57,2.39,5.26,1.78-1.46,30.37-29.82,23.05-26-.71.86-5.36,5.28-13.25,10.37-14.08Z"/>
                    </g>
                    <g>
                      <path class="cls-28" d="m251.02,238.69c0-6.99-2.11-16.25-7.74-19.96-7.86-5.19-16.21,1.92-17.65,10.69-.47,2.89-.29,5.66-.31,8.56-8.76,2.53-9.66-13.5-2.79-24.78,8.66-14.2,23.04-13.5,31.58.36,7.07,11.46,6.17,26.24-3.1,25.13Z"/>
                      <g>
                        <path class="cls-17" d="m251.02,238.69c-1.8-.21-5.93-3.22-7.89-3.92-10.53-3.77-14.5,2.25-17.8,3.21.02-2.9-.16-5.67.31-8.56.94,2.31,2.39-3.91,6.04-6.77,9.97-7.84,19.86,8.18,11.61-3.92,5.63,3.72,7.75,12.97,7.74,19.96Z"/>
                        <path class="cls-17" d="m243.28,218.73c8.25,12.1-1.63-3.92-11.61,3.92-3.65,2.87-5.09,9.09-6.04,6.77,1.44-8.77,9.79-15.88,17.65-10.69Z"/>
                      </g>
                    </g>
                    <g>
                      <path class="cls-23" d="m262.94,138.87c18.17-2.1,23.56,43,3.71,48.84-27,7.94-26.33-46.23-3.71-48.84Z"/>
                      <path class="cls-28" d="m258.92,146c5.6-1.11,8.73,2.19,12.23,6.6-5.3,3.65-4.13,13.16,2.17,8.2-2.5,28.23-28.65,20.29-23.84-2.5.95-4.5,5.28-11.47,9.44-12.3Z"/>
                    </g>
                  </g>
                </g>
              </g>
            </g>
          </g>
        </g>
      </g>
    </g>
    <g>
      <path class="cls-7" d="m397.97,187.59c1.8-21.09,1.35-52.25-3.04-72.99,58.89-19.38,56.61,83.01,3.04,72.99Z"/>
      <path class="cls-3" d="m113.62,249.94c.41.58,1.13,2.54,1.52,3.04l-20.53,16.73c-21.29-15.36-27.32-38.89-19.01-63.86,8.74,14.93,23.8,40.23,38.01,44.1Z"/>
      <path class="cls-18" d="m113.62,249.94c-14.21-3.87-29.27-29.17-38.01-44.1,2.57-7.71,8.86-16.56,16.73-19.77,2.21,19.98,9.57,47.16,21.29,63.86Z"/>
      <g>
        <path class="cls-7" d="m92.33,186.07c-7.86,3.21-14.16,12.06-16.73,19.77-8.31,24.97-2.28,48.51,19.01,63.86l20.53-16.73c.2.25,2.97,2.85,4.56,4.56-23.68,20.37-39.9,34.49-59.3,59.3-5.3,6.78-9.09,12.53-13.69,19.77-.2.32-1,0-4.56,6.08-12.58,21.53-23.85,46.96-28.89,71.47-6.95,33.77-6.43,69.12-7.6,103.4-20.01-82.95,14.35-188.24,82.11-242.53-30.74-27.01-32.72-49.5-13.69-85.15-29.25-11.41-33.26-60.12-6.84-75.27,18.81-10.79,21.85,5.06,31.17-18.25-7.69,28.05-9.26,60.97-6.08,89.71Z"/>
        <path class="cls-22" d="m13.26,414.16c5.04-24.51,16.31-49.94,28.89-71.47l-25.85,70.71-3.04.76Z"/>
        <path class="cls-20" d="m74.85,120.69c13.69-3.03,16.57,6.78,3.04,19.77-27.83,26.72-16.95-16.69-3.04-19.77Z"/>
      </g>
      <g>
        <path class="cls-1" d="m326.51,23.37c33.97,16.94,60.59,54.26,68.43,91.24,4.4,20.74,4.84,51.9,3.04,72.99-.93,10.96-7.04,37.11-10.64,48.66-1.73,5.54-8.38,15.46-10.64,20.53-.79,1.77,2.01,2.76,1.52,3.8-.05.1-.47-.59-1.52,1.52-.42.84-2.55,3.65-3.04,4.56-1.41-11.32-12.01,9.55-31.17,24.33-40.8,31.46-79.65,29.8-79.83,34.21-.12,2.88,7.15,1.27,7.6,3.8-37.56,4.01-71.5-2.47-105.68-18.25-43.7-34.19-11.95,2.1,22.81,18.25,12.7,5.9,40.68,15.06,53.98,15.21v9.12c-104.61-1.42-87.03,112.6-21.29,127.73,16.89,42.51,7.59,73.74-42.58,72.99-5.42-.08-18.75-4.42-19.77-2.28,11.64,5.44,22.8,11.83,33.45,19.01-34.86,45.57.92,84.23-50.18,123.17-26.8-20.13-35.4-59.05-34.97-91.24,1.03.01,2.75.38,3.04-.76,7.21-28.35,11.8-57.37,18.25-85.91,3.43-5.97,8.29-11.06,12.16-16.73,6.47,18.14,37.13,25.45,48.66,8.36,18.63-27.62-32.38-56.44-47.14-31.17-18.01-4.19-26.52,1.16-27.37-19.77-.56-13.85,5.32-28.15,6.08-41.82.83-14.84-.36-29.97,0-44.86.24-9.88,1.68-21.3,3.04-31.17l-2.28-.76c-13.83,58.76-84.93,65.95-81.35,151.3-13.73,31.48-20.21,52.94,1.52,82.87-18.14-9.44-30.42-35.85-34.97-54.74,1.18-34.28.65-69.63,7.6-103.4l3.04-.76,25.85-70.71c3.56-6.09,4.36-5.76,4.56-6.08-6.82,35.34,33.24,45.75,48.66,25.09,18-24.11-9.85-50.08-34.97-44.86,19.4-24.81,35.62-38.93,59.3-59.3,7.46,8.01,25.35,19.33,34.97,25.85.42.29,4.16,5.95,6.84,7.6,17.3,10.67,39.83,18.52,60.06,21.29,3.88.53,19.54,4.79,21.29.76v-26.61c124.96-1.75,145.12-174.37,57.02-222.01-8.85-4.79-39.21-14.55-47.9-15.21V3.6c23.73,2.13,53.14,9.11,74.51,19.77Z"/>
        <path class="cls-7" d="m139.47,499.31c-3.87,5.66-8.73,10.76-12.16,16.73-12.34,21.48-20.96,62.19-21.29,86.67-.43,32.18,8.17,71.1,34.97,91.24,41.4,31.1,94.39,10.18,100.36-41.82,4.77-41.55-18.67-60.14-50.18-81.35-10.66-7.17-21.81-13.57-33.45-19.01,1.02-2.13,14.34,2.2,19.77,2.28,34.07,16.65,62.59,26.25,72.99,66.91-4.51,34.52,5.48,72.62-16.73,102.64-38.56,52.13-167.48,44.39-101.88-21.29-46.3-42.36-41.47-143.15-9.12-193.12l-1.52-3.8,16.73-12.16c.19,1.77.93,4.42,1.52,6.08Z"/>
        <path class="cls-7" d="m384.29,513c27.11,59.95,40.48,140.86-12.16,190.83,68.96,55.77-45.39,71.67-86.67,25.85-15.93-17.69-15.11-32.85-18.25-53.98,40.14,63.75,115.76,28.79,129.25-35.73,20.59-98.54-63.07-181.24-62.34-191.59.14-2.04,5.4-10.63,12.16-4.56,2.94,2.64,34.65,61.74,38.01,69.19Z"/>
        <g>
          <path class="cls-30" d="m411.66,227.13c86.47,13.66,65.05,67.97,65.39,137.61l-3.04,1.52c-23.05-41.55-54.14-81.69-95.8-105.68.49-1.04-2.31-2.03-1.52-3.8,2.27-5.06,8.92-14.99,10.64-20.53,8.26-2.62,15.62-7.65,24.33-9.12Z"/>
          <path class="cls-7" d="m493.77,517.56c1.19-125.24-28.27-172.63-117.09-255.46,1.05-2.11,1.47-1.42,1.52-1.52,41.66,23.99,72.75,64.13,95.8,105.68l3.04-1.52c-.33-69.64,21.09-123.96-65.39-137.61,20.17-3.42,49.26,5.34,62.34,22.05,23.09,29.49,18.69,121.66,13.69,159.66,10.19,36.77,14.45,71.29,6.08,108.72Z"/>
        </g>
        <path class="cls-7" d="m264.16,643.77c-.61-8.14-1.49-16.67-4.56-24.33-.56-47.02,83.64-77.45,86.67-72.23-39.16,22.81-76.55,47.63-82.11,96.56Z"/>
        <path class="cls-8" d="m423.82,566.22c.18-1.02,8.34-9.36,12.16-16.73,11.06-21.33,6.55-31.14,14.45-27.37,9.8,4.69-2.98,38.98-26.61,44.1Z"/>
        <g>
          <path class="cls-30" d="m493.77,517.56c-14.17,63.36-59.15,69.15-68.43,55.5-.93-1.37-1.83-5.03-1.52-6.84,23.63-5.12,36.41-39.41,26.61-44.1-7.89-3.77-3.38,6.04-14.45,27.37-49.98,4.61-25.53-35.57-25.85-38.78-.1-1.02-7.29-9.45-10.64-17.49-1.84-44.68-18.39-87.08-22.81-131.53-3.32,44.38,4.57,87.32,21.29,128.49l-13.69,22.81c-3.37-7.45-35.08-66.55-38.01-69.19-6.77-6.07-12.02,2.52-12.16,4.56-.72,10.35,82.94,93.05,62.34,191.59-13.49,64.53-89.11,99.48-129.25,35.73-1.54-10.36-2.25-21.46-3.04-31.93,5.56-48.93,42.95-73.75,82.11-96.56-3.03-5.22-87.23,25.21-86.67,72.23l-9.12,1.52c-10.4-40.66-38.92-50.25-72.99-66.91,50.17.75,59.47-30.48,42.58-72.99,111.98,25.77,135.68-126.18,21.29-127.73v-9.12c9.63.1,55.1-9.42,66.15-13.69,10.83-4.18,49.28-26.82,47.9-36.49,7.85-7.65,13.08-17.85,18.25-27.37.5-.91,2.62-3.72,3.04-4.56,88.82,82.83,118.28,130.22,117.09,255.46Z"/>
          <path class="cls-7" d="m399.49,493.23c-.07-.16-.23.14-1.52-3.04-16.71-41.17-24.61-84.11-21.29-128.49,4.42,44.45,20.97,86.85,22.81,131.53Z"/>
          <path class="cls-16" d="m404.82,321.41c43.36-4.12,38.14,58.43-4.56,50.18-25.33-4.89-24.53-47.41,4.56-50.18Z"/>
          <path class="cls-16" d="m330.31,479.55c41.25-5.47,37.58,45,9.12,48.66-32.23,4.14-41.21-44.41-9.12-48.66Z"/>
        </g>
        <path class="cls-29" d="m241.35,344.21c-13.3-.14-41.28-9.31-53.98-15.21-34.76-16.14-66.51-52.44-22.81-18.25,34.18,15.78,68.12,22.26,105.68,18.25,25.96-2.77,66.16-16.46,85.15-34.97,1.38,9.67-37.07,32.32-47.9,36.49-11.05,4.26-56.52,13.79-66.15,13.69Z"/>
        <path class="cls-30" d="m140.99,693.95c51.1-38.93,15.32-77.6,50.18-123.17,31.51,21.21,54.95,39.8,50.18,81.35-5.97,52-58.96,72.92-100.36,41.82Z"/>
        <path class="cls-14" d="m46.72,336.61c4.6-7.23,8.38-12.98,13.69-19.77,25.12-5.22,52.97,20.74,34.97,44.86-15.42,20.66-55.48,10.26-48.66-25.09Z"/>
        <path class="cls-14" d="m139.47,499.31c-.59-1.66-1.33-4.31-1.52-6.08-.71-6.42-.27-11.05,3.04-16.73,14.75-25.27,65.76,3.55,47.14,31.17-11.52,17.09-42.19,9.77-48.66-8.36Z"/>
        <g>
          <path class="cls-30" d="m119.71,370.06c-6.83,11.84-10.91,78.39-9.12,85.91.27,1.13,2.02.77,3.04.76.85,20.93,9.36,15.58,27.37,19.77-3.31,5.68-3.75,10.31-3.04,16.73l-16.73,12.16-11.4-47.14c-5.68,42.28-27.54,48-28.13,50.94-.63,3.11,31.49,47.7-18.25,35.73-6.96-15.97-3.08-26.79-11.4-22.81-11.23,5.37,7.11,38.86,22.05,41.06,5.74,17.58-17.68,17.34-33.45,9.12-21.73-29.94-15.25-51.39-1.52-82.87-3.57-85.35,67.52-92.54,81.35-151.3l2.28.76c-1.36,9.87-2.8,21.29-3.04,31.17Z"/>
          <path class="cls-8" d="m63.44,544.93c4.28,9.82,10.08,16.53,10.64,18.25-14.94-2.19-33.27-35.69-22.05-41.06,8.33-3.98,4.45,6.84,11.4,22.81Z"/>
          <path class="cls-26" d="m113.62,456.74c-1.02.01-2.77.37-3.04-.76-1.79-7.53,2.29-74.07,9.12-85.91-.36,14.88.83,30.02,0,44.86-.77,13.67-6.64,27.97-6.08,41.82Z"/>
        </g>
        <path class="cls-22" d="m106.02,602.71c.33-24.49,8.95-65.19,21.29-86.67-6.45,28.55-11.04,57.56-18.25,85.91-.29,1.14-2.01.77-3.04.76Z"/>
        <g>
          <path class="cls-7" d="m241.35,353.34c114.39,1.55,90.69,153.5-21.29,127.73-65.74-15.13-83.32-129.15,21.29-127.73Z"/>
          <path class="cls-21" d="m239.83,368.54c-4.29,18.77-1.46,75.99-15.21,103.4-7.71-1.42-13.7-3.94-19.77-9.12-32.03-27.36-28.9-99.5,34.97-94.28Z"/>
          <path class="cls-20" d="m242.87,362.46c.38,3.6-2.97,5.75-3.04,6.08-63.87-5.23-67.01,66.91-34.97,94.28-24.8-10.96-34.12-46.58-25.85-70.71,8.7-25.38,41.16-30.11,63.86-29.65Z"/>
          <path class="cls-13" d="m224.63,471.94c13.75-27.41,10.92-84.63,15.21-103.4.08-.33,3.42-2.49,3.04-6.08,97.83,1.96,81.61,127.84-18.25,109.48Z"/>
        </g>
      </g>
      <g>
        <path class="cls-4" d="m217.02,2.08c11.73,1.32,23.08.45,34.97,1.52v45.62c-34.94-2.62-78.7,8.57-101.88,36.49-4.28-1.62-7.57-6.28-12.93-4.56-13.71,4.41-47.12,110.08,3.8,180.19,7.3,10.05,32.32,27.88,13.69,22.05-9.62-6.52-27.51-17.84-34.97-25.85-1.59-1.71-4.36-4.31-4.56-4.56-.39-.5-1.11-2.46-1.52-3.04-11.72-16.71-19.08-43.88-21.29-63.86-3.18-28.74-1.61-61.67,6.08-89.71C112.41,45.3,166.28,9.79,217.02,2.08Z"/>
        <path class="cls-27" d="m326.51,23.37c-21.36-10.66-50.78-17.64-74.51-19.77-11.89-1.07-23.25-.21-34.97-1.52,37.2-5.65,77.85-.19,109.48,21.29Z"/>
        <path class="cls-31" d="m373.64,266.66c-5.17,9.52-10.4,19.72-18.25,27.37-19,18.51-59.2,32.2-85.15,34.97-.45-2.53-7.72-.92-7.6-3.8.18-4.41,39.03-2.75,79.83-34.21,19.17-14.78,29.76-35.65,31.17-24.33Z"/>
        <path class="cls-6" d="m150.12,85.71c-44.96,54.15-20.79,184.64,66.91,199.2l4.56,27.37c-20.23-2.77-42.76-10.62-60.06-21.29-2.68-1.65-6.42-7.32-6.84-7.6,18.63,5.83-6.39-12-13.69-22.05-50.92-70.11-17.52-175.78-3.8-180.19,5.35-1.72,8.64,2.94,12.93,4.56Z"/>
        <path class="cls-9" d="m242.87,286.43v26.61c-1.75,4.03-17.41-.23-21.29-.76l-4.56-27.37c9.28,1.54,16.52,1.65,25.85,1.52Z"/>
        <g>
          <path class="cls-2" d="m323.46,230.17c1.58-47.27.09-91.29-25.85-132.29,50.82,28.63,52.73,84.67,25.85,132.29Z"/>
          <g class="cls-32">
            <path class="cls-12" d="m213.22,91.8c33.78-1.98-46.17,33.21-32.69,119.37-.83,1.35-18.22-.15-21.29-6.08-8.19-15.81,11.01-110.77,53.98-113.28Z"/>
          </g>
        </g>
      </g>
    </g>
  </g>
</svg>