<?xml version="1.0" encoding="UTF-8"?>
<svg id="Layer_2" data-name="Layer 2" xmlns="http://www.w3.org/2000/svg" viewBox="0 0 690.35 447.53">
  <defs>
    <style>
      .cls-1 {
        fill: #f79b25;
      }

      .cls-1, .cls-2, .cls-3, .cls-4, .cls-5, .cls-6, .cls-7, .cls-8, .cls-9, .cls-10, .cls-11, .cls-12, .cls-13, .cls-14, .cls-15, .cls-16, .cls-17, .cls-18, .cls-19, .cls-20, .cls-21, .cls-22, .cls-23, .cls-24, .cls-25, .cls-26, .cls-27, .cls-28, .cls-29, .cls-30, .cls-31, .cls-32, .cls-33, .cls-34, .cls-35, .cls-36, .cls-37, .cls-38, .cls-39, .cls-40, .cls-41, .cls-42, .cls-43, .cls-44, .cls-45, .cls-46, .cls-47, .cls-48, .cls-49, .cls-50, .cls-51, .cls-52, .cls-53, .cls-54, .cls-55, .cls-56, .cls-57, .cls-58, .cls-59, .cls-60, .cls-61, .cls-62, .cls-63, .cls-64, .cls-65, .cls-66, .cls-67, .cls-68, .cls-69, .cls-70, .cls-71, .cls-72, .cls-73, .cls-74, .cls-75, .cls-76, .cls-77, .cls-78, .cls-79, .cls-80, .cls-81, .cls-82, .cls-83, .cls-84, .cls-85, .cls-86, .cls-87, .cls-88, .cls-89, .cls-90, .cls-91, .cls-92, .cls-93, .cls-94, .cls-95, .cls-96, .cls-97, .cls-98, .cls-99, .cls-100, .cls-101, .cls-102, .cls-103, .cls-104, .cls-105, .cls-106, .cls-107, .cls-108, .cls-109, .cls-110, .cls-111, .cls-112, .cls-113, .cls-114, .cls-115, .cls-116, .cls-117 {
        stroke-width: 0px;
      }

      .cls-2 {
        fill: #f9f9f1;
      }

      .cls-3 {
        fill: #f8f8c5;
      }

      .cls-4 {
        fill: #4a3805;
      }

      .cls-5 {
        fill: #472800;
      }

      .cls-6 {
        fill: #611f13;
      }

      .cls-7 {
        fill: #776651;
      }

      .cls-8 {
        fill: #55331d;
      }

      .cls-9 {
        fill: #764206;
      }

      .cls-10 {
        fill: #773222;
      }

      .cls-11 {
        fill: #46a597;
      }

      .cls-12 {
        fill: #623202;
      }

      .cls-13 {
        fill: #765403;
      }

      .cls-14 {
        fill: #514167;
      }

      .cls-15 {
        fill: #502640;
      }

      .cls-16 {
        fill: #271921;
      }

      .cls-17 {
        fill: #281f11;
      }

      .cls-18 {
        fill: #7ab697;
      }

      .cls-19 {
        fill: #493934;
      }

      .cls-20 {
        fill: #2a2d3f;
      }

      .cls-21 {
        fill: #4a5470;
      }

      .cls-22 {
        fill: #594601;
      }

      .cls-23 {
        fill: #5a4013;
      }

      .cls-24 {
        fill: #283832;
      }

      .cls-25 {
        fill: #5c3228;
      }

      .cls-26 {
        fill: #646b81;
      }

      .cls-27 {
        fill: #5489ba;
      }

      .cls-28 {
        fill: #461400;
      }

      .cls-29 {
        fill: #966358;
      }

      .cls-30 {
        fill: #9b9098;
      }

      .cls-31 {
        fill: #713008;
      }

      .cls-32 {
        fill: #313e5d;
      }

      .cls-33 {
        fill: #311c14;
      }

      .cls-34 {
        fill: #382f18;
      }

      .cls-35 {
        fill: #3d3a47;
      }

      .cls-36 {
        fill: #392e46;
      }

      .cls-37 {
        fill: #5b2000;
      }

      .cls-38 {
        fill: #55bea3;
      }

      .cls-39 {
        fill: #3c1d27;
      }

      .cls-40 {
        fill: #1a1720;
      }

      .cls-41 {
        fill: #18b1e4;
      }

      .cls-42 {
        fill: #1b1a02;
      }

      .cls-43 {
        fill: #1d0303;
      }

      .cls-44 {
        fill: #0d507d;
      }

      .cls-45 {
        fill: #101011;
      }

      .cls-46 {
        fill: #0e1b22;
      }

      .cls-47 {
        fill: #071c35;
      }

      .cls-48 {
        fill: #431d00;
      }

      .cls-49 {
        fill: #402421;
      }

      .cls-50 {
        fill: #0a3a5e;
      }

      .cls-51 {
        fill: #142434;
      }

      .cls-52 {
        fill: #145d98;
      }

      .cls-53 {
        fill: #422c17;
      }

      .cls-54 {
        fill: #075c82;
      }

      .cls-55 {
        fill: #231613;
      }

      .cls-56 {
        fill: #212b4c;
      }

      .cls-57 {
        fill: #a87800;
      }

      .cls-58 {
        fill: #a95c26;
      }

      .cls-59 {
        fill: #a96a19;
      }

      .cls-60 {
        fill: #1e1914;
      }

      .cls-61 {
        fill: #1cc3c9;
      }

      .cls-62 {
        fill: #1182c5;
      }

      .cls-63 {
        fill: #121626;
      }

      .cls-64 {
        fill: #dde9c9;
      }

      .cls-65 {
        fill: #c9c9cc;
      }

      .cls-66 {
        fill: #cccb68;
      }

      .cls-67 {
        fill: #d57240;
      }

      .cls-68 {
        fill: #e1bb1a;
      }

      .cls-69 {
        fill: #bbd7ee;
      }

      .cls-70 {
        fill: #bd8302;
      }

      .cls-71 {
        fill: #b2c4ca;
      }

      .cls-72 {
        fill: #a6c7ec;
      }

      .cls-73 {
        fill: #d88c3d;
      }

      .cls-74 {
        fill: #addfc4;
      }

      .cls-75 {
        fill: #b19126;
      }

      .cls-76 {
        fill: #b19b5a;
      }

      .cls-77 {
        fill: #cdffff;
      }

      .cls-78 {
        fill: #ce7929;
      }

      .cls-79 {
        fill: #866500;
      }

      .cls-80 {
        fill: #c2d7b4;
      }

      .cls-81 {
        fill: #89cc78;
      }

      .cls-82 {
        fill: #b75834;
      }

      .cls-83 {
        fill: #b74c4b;
      }

      .cls-84 {
        fill: #bba81e;
      }

      .cls-85 {
        fill: #9bb375;
      }

      .cls-86 {
        fill: #915919;
      }

      .cls-87 {
        fill: #8dffff;
      }

      .cls-88 {
        fill: #907900;
      }

      .cls-89 {
        fill: #320e06;
      }

      .cls-90 {
        fill: #335d70;
      }

      .cls-91 {
        fill: #311d00;
      }

      .cls-92 {
        fill: #306c9c;
      }

      .cls-93 {
        fill: #8f4d53;
      }

      .cls-94 {
        fill: #8d422d;
      }

      .cls-95 {
        fill: #96e8e2;
      }

      .cls-96 {
        fill: #804b27;
      }

      .cls-97 {
        fill: #7be7cd;
      }

      .cls-98 {
        fill: #7bdfa5;
      }

      .cls-99 {
        fill: #9c7690;
      }

      .cls-100 {
        fill: #928f7e;
      }

      .cls-101 {
        fill: #a44d32;
      }

      .cls-102 {
        fill: #853c05;
      }

      .cls-103 {
        fill: #6c2d46;
      }

      .cls-104 {
        fill: #f1f1f3;
      }

      .cls-105 {
        fill: #eeb314;
      }

      .cls-106 {
        fill: #f4e52b;
      }

      .cls-107 {
        fill: #ec842d;
      }

      .cls-108 {
        fill: #faddfb;
      }

      .cls-109 {
        fill: #fcf983;
      }

      .cls-110 {
        fill: #fcfa37;
      }

      .cls-111 {
        fill: #eba51f;
      }

      .cls-112 {
        fill: #f6d74a;
      }

      .cls-113 {
        fill: #e9e4d8;
      }

      .cls-114 {
        fill: #016b83;
      }

      .cls-115 {
        fill: #032b4a;
      }

      .cls-116 {
        fill: #693925;
      }

      .cls-117 {
        fill: #65d9ce;
      }
    </style>
  </defs>
  <g id="SPACESHIP">
    <g>
      <g>
        <path class="cls-65" d="m328.02.11c1.94-.87,1.94,3.64,0,2.76-.74-.33-.74-2.43,0-2.76Z"/>
        <path class="cls-51" d="m143.44,307.6c48.14,9.46,82.5,13.84,131.65,16.57,11.04.61,22.08,1.56,33.14,1.84,12.84.32,25.81.09,38.67,0,7.99,4.74,16.26,1.89,18.87,2.76.81.27.37,1.83.46,1.84h-.92c-34.55,1.19-68.63.52-103.11-1.84-6.73-.46-13.53-1.24-20.25-1.84-74.07-6.66-154.76-21.37-223.71-49.71,22.51,7.88,93.82,30.76,111.85,32.22.74.06-3.09-2.89,13.35-1.84Z"/>
        <path class="cls-80" d="m365.3,330.61c.74,1.97-6.48,2.58-8.75,2.76-25.44,2.01-67.8-.06-94.36-1.84v-2.76c34.48,2.37,68.56,3.03,103.11,1.84Z"/>
        <g>
          <path class="cls-63" d="m366.22,330.61c-.09-.02.35-1.57-.46-1.84-2.61-.87-10.88,1.98-18.87-2.76,3.72-.03,7.55-.86,11.05-.92,23.51-.4,46.94-.15,70.43-1.84,60.86-4.39,193.18-22.49,244.42-52.47,5.35,6.29,9.39-3.72,12.43-1.84,6.51,4.03-41.31,22.92-44.19,23.94-30.78,10.84-92.16,23.57-125.2,28.54-19.86,2.99-136.89,15.1-148.22,11.05-.96-.34-1.27-1.82-1.38-1.84Z"/>
          <g>
            <path class="cls-63" d="m451.84,56.27l-3.68,1.84c-10.61-10.85-28.51-23.23-42.35-29.46-2.08-.93-4.33-1.94-6.44-2.76-9.68-3.74-29.67-9.57-39.59-10.13-.61-.03-1.23,0-1.84,0-1.67-.02-4.31-.26-5.52,0-1.01.22-3.12-.49-3.68.46.22,5.66-.3,11.38,0,17.03.08,1.49-.23,3.27,0,4.6.93,5.49,17.51,3.45,32.68,7.36,70.38,18.17,111.16,89.29,101.73,159.73.92,1.22,2.6-.61,4.6-1.38,12.82-4.91,7.88-34.39,6.44-46.03,5.71-3.6,1.45,1.3,5.52,3.68.33.19,3.35.31,7.36,1.84v4.6c-16.24-4.32,14.08,4.38,4.6,23.02-19.07,17.73-45.07,26.89-69.97,33.14l-.92-2.76c4.65-1.19,34.9-10.57,35.9-13.35,5.24-46.49-5.98-90.5-40.51-122.9-14.34-13.46-18.1-15.5-35.9-23.94-.24-.11-1.29-1.35-4.6-2.76-8.36-10.27-44.39-11.61-46.49-12.89-1.04-.63.53-2.71-1.84-4.6-.15-.12-3.5.96-3.68.92-.77-.15.05-1.78-1.38-1.84V15.3c-26.62.3-53.89,10.11-76.41,24.4-33.59,21.3-53.68,52.16-63.52,90.22-5.2,20.11-8.72,43.27-6.44,63.98.71,6.44.28,6.78,4.6,10.59.05.04-.37.39.92.92l-1.84,4.6c-7.96-4.82-12.58-8.33-19.33-14.73-12.14-21.07,12.25-22.71,9.21-28.08-.52-.92-17.34,7.59-19.33,8.75-5.91,3.41-9.29,3.96-12.89,11.05-5.25,10.35-1.98,14.03,4.6,22.09,6.5,7.96,15.6,13.13,24.86,17.49,2.12,8.17-26.56-11.19-34.06-20.25-5.2-9.55-6.77-15.1.92-24.86.7-.89,5.65-3.82,5.52-4.14-23.94,6.65-48.92,14.81-72.73,23.48-32.73,11.91-81.6,22.97-81.01,64.9,2.12,2.83,3.51,2.17,3.68,2.3,2.28,1.79,7.91,4.04,11.05,5.52,29.61,14,89.72,27.45,123.36,34.06-16.44-1.05-12.61,1.9-13.35,1.84-18.04-1.46-89.34-24.34-111.85-32.22-5.54-2.28-11.19-5.85-13.81-5.06,57.62,32.84,169.3,51.43,236.6,57.54,7.05.64,14.12,1.37,21.17,1.84,26.56,1.79,68.92,3.85,94.36,1.84,2.27-.18,9.48-.79,8.75-2.76h.92c.11.02.42,1.5,1.38,1.84,11.32,4.06,128.36-8.06,148.22-11.05,33.04-4.97,94.43-17.69,125.2-28.54,2.88-1.02,50.7-19.9,44.19-23.94-3.04-1.88-7.08,8.13-12.43,1.84,4.44-2.6,8.61-5.88,12.89-8.75-.32-5.27-2.66-7.42-2.76-7.83-4.51-17.2-7.14-21.06-22.09-30.38-1.96-1.22-3.67-1.74-5.52-2.76-6.98-3.82-13.93-6.91-21.17-10.13-3.88-1.72-8.05-2.99-11.97-4.6-1.83-.75-3.67-2.02-5.52-2.76-.26-.11-.66.1-.92,0-8.83-9.19-43.98-13.28-41.43-19.33,24.85,8.37,91.2,28.08,105.87,48.33,13.89,19.17,13.6,57.66-.92,76.41-21.6,27.9-141.2,65.01-179.06,72.27,15.37,28.94,10.6,22.45-27.62,30.38q-8.29-11.05-16.57-22.09l-81.93,9.21-28.08,48.79c-.61,0-1.23,0-1.84,0-6.68-16.68-20.4-29.25-25.78-46.49l-3.22-2.3c-27.88-.45-55.31-5.43-82.85-9.21q-7.83,11.05-15.65,22.09c-1.84.49-31.57-5.27-34.06-6.44-9.21-4.33,9.25-20.89,4.6-24.86-41.01-10.21-167.1-47.49-182.74-87-6.67-16.84-6.08-41.51,3.68-57.08,19.04-30.37,144.23-59.93,180.9-74.11,3.49-2.85,2.06-42.89,29.92-84.24C269.88,2.28,380.72-16.72,451.84,56.27Z"/>
            <g>
              <g>
                <path class="cls-54" d="m185.32,178.71c5.91-1.92,6.1,13.37.92,11.97-2.5-.68-4.92-10.67-.92-11.97Z"/>
                <path class="cls-115" d="m502.01,173.19c13.09,5.46,7.05,22.17,6.9,9.67q-3.45-4.83-6.9-9.67Z"/>
                <path class="cls-73" d="m405.81,28.65c-3.98,1.87-7.37,3.63-6.44-1.84v-.92c2.12.82,4.37,1.83,6.44,2.76Z"/>
              </g>
              <g>
                <path class="cls-64" d="m18.23,277.22c68.94,28.34,149.64,43.05,223.71,49.71l-.92,2.76c-67.29-6.11-178.98-24.7-236.6-57.54,2.62-.79,8.27,2.79,13.81,5.06Z"/>
                <path class="cls-71" d="m262.2,328.77v2.76c-7.06-.47-14.13-1.2-21.17-1.84l.92-2.76c6.73.61,13.52,1.38,20.25,1.84Z"/>
                <g>
                  <g>
                    <path class="cls-106" d="m348.73,401.5l-1.84,8.29c-16.41.55-20.07,2.07-23.02-7.83.77-.98,21.65-.54,24.86-.46Z"/>
                    <path class="cls-10" d="m346.89,409.78l1.84-8.29c5.36.13,10.74-.1,16.11,0,.18,11.23-8.85,7.98-17.95,8.29Z"/>
                  </g>
                  <path class="cls-106" d="m345.97,416.23l-.92,5.52c-17.87.09-22.88-5.43.92-5.52Z"/>
                  <path class="cls-50" d="m343.21,434.64l.92-10.13c14.24-.58,8.44,1.43.46,12.89-1.86-1.25-1.28-2.65-1.38-2.76Z"/>
                  <path class="cls-10" d="m345.05,421.75l.92-5.52c20.9-.09,16.41,5.44-.92,5.52Z"/>
                  <path class="cls-41" d="m344.13,424.51l-.92,10.13c-2.47-2.78-3.61-6.27-6.44-8.75,1.5-2.18,4.47-1.26,7.36-1.38Z"/>
                  <g>
                    <path class="cls-106" d="m351.49,379.4c-.02.61.05,1.23,0,1.84-8.9.09-13.11,6.45-14.73,14.73-4.29-.02-9.32,1.91-13.81.92.91-6.21-4.84-11.83.92-16.57,8.21-3.73,18.96-1.28,27.62-.92Z"/>
                    <path class="cls-116" d="m349.65,395.98c-.27-4.91,1.48-9.93,1.84-14.73.05-.61-.02-1.23,0-1.84,15.43.64,27.27-5.33,16.11,16.57-5.96.22-12-.3-17.95,0Z"/>
                    <path class="cls-111" d="m351.49,381.25c-.37,4.8-2.11,9.82-1.84,14.73-4.25.22-8.62.02-12.89,0,1.62-8.28,5.83-14.64,14.73-14.73Z"/>
                    <path class="cls-3" d="m323.88,380.32c-5.76,4.75-.01,10.36-.92,16.57-4.59-7.77-6.54-13.18.92-16.57Z"/>
                  </g>
                </g>
                <g>
                  <path class="cls-32" d="m498.33,397.82c14.69-.88-20.47,10.14-22.09,10.13-13.65-.11,15.86-9.76,22.09-10.13Z"/>
                  <g>
                    <path class="cls-96" d="m477.62,385.85c2.33,4.61,3.98,4.61,6.44,10.13l-13.81,1.84c-2.2-3.02-5.14-5.29-7.36-8.29,1.32-1.87,11.9-3.36,14.73-3.68Z"/>
                    <path class="cls-10" d="m485.9,399.66c.31-1.78-1.21-2.27-1.84-3.68-2.47-5.52-4.12-5.52-6.44-10.13,3.66-.42,7.03-.82,10.59-1.84,10.66,14.32,8.24,12.44-2.3,15.65Z"/>
                    <path class="cls-111" d="m484.06,395.98c.63,1.41,2.15,1.91,1.84,3.68-2.47.75-11.24,2.58-13.81,1.84.17-1.52-1.04-2.58-1.84-3.68l13.81-1.84Z"/>
                    <path class="cls-113" d="m470.25,397.82c.8,1.1,2.01,2.16,1.84,3.68-1,2.63-9.56-9.59-9.21-11.97,2.23,3,5.17,5.26,7.36,8.29Z"/>
                  </g>
                </g>
                <g>
                  <path class="cls-25" d="m202.36,400.58l8.29-13.81c2.55.48,14.32.89,15.19,1.84-6.76,15.51-7.49,15.18-23.48,11.97Z"/>
                  <path class="cls-106" d="m210.64,386.77l-8.29,13.81c-1.94-.39-11.49-1.9-11.97-3.22,1.75-3.02,3.89-5.62,5.52-8.75.05-.09.57.68.92-1.84l7.36-1.84c2.13.24,4.45,1.47,6.44,1.84Z"/>
                  <path class="cls-30" d="m196.83,384.93c-.04.61.08,1.25,0,1.84-.35,2.53-.87,1.75-.92,1.84l-8.75,9.21c4.6-18.85,7.79-12.89,9.67-12.89Z"/>
                  <path class="cls-26" d="m186.24,398.74c.9-.27,17.97,4.59,17.03,6.9-8.27-1.27-24.9-4.5-17.03-6.9Z"/>
                  <path class="cls-3" d="m204.2,384.93l-7.36,1.84c.08-.59-.04-1.24,0-1.84,2.57,0,4.66-.31,7.36,0Z"/>
                </g>
                <g>
                  <path class="cls-115" d="m78.07,324.17c-4.55-.3-1.73,6.26-3.68,12.89-16.55-7.59-39.19-18.18-51.55-31.3,19.1,3.87,36.78,12.78,55.24,18.41Z"/>
                  <path class="cls-115" d="m395.68,392.29c-1.8.08-2.99-.02-4.6,0,.38-6.27-7.82-4.71-11.97-5.52.3-.67-1.89-.45.92-3.68,6.24,1.49,23.55.41,15.65,9.21Z"/>
                  <path class="cls-115" d="m391.08,392.29c-1.58.02-7.84,1.69-15.19.92.21-5.01,3.08-6.11,3.22-6.44,4.15.81,12.34-.74,11.97,5.52Z"/>
                  <g>
                    <path class="cls-27" d="m361.62,336.14c-8.88,8.68-26.68,16.9-38.67,20.25-6.08-1.02-12.24-.62-18.41-.92,9.14-13.05-8.63-9.5-16.57-10.13-1.52-.12-3.08.12-4.6,0-4.27-.32-8.65-.55-12.89-.92-1.96-.17-3.57-.75-5.52-.92-3.33-.29-6.79.25-10.13,0-.67-.05-.78-.76-2.76-.92-14.19-1.14-40.18-8.63-29.46,7.36-5.98-.69-9.21-1.59-11.05-1.84,18.5-9.53-14.11-16.25-1.84,0-2.73-.38-4.94-1.44-7.36-1.84,7.03-15.23-17.03-8.14-37.28-15.65-1.98.59.34,8.01,1.38,9.21-1.04.31-1.09,1.03-2.76.92,2.93-12.47-11.66-15.13-20.25-11.97-.38-1.08.15-.73-.92-1.84-2.42-2.49-14.39-3.69-18.41-3.68-.23-1.92-1.02.19-1.84,0-38.28-8.65-76.22-20.18-113.23-33.14-8.05-19.07-1.02-8.27,21.63,0,91.24,33.3,233.8,53.36,330.96,46.03Z"/>
                    <path class="cls-72" d="m122.26,323.25c4.48,11.37,4.47,12.03-2.76,11.97-2.14-.02-36.19-9.45-41.43-11.05-18.46-5.64-36.14-14.54-55.24-18.41-8.11-3.59-10.6-8.06-13.81-15.65,37.02,12.96,74.95,24.49,113.23,33.14Z"/>
                    <path class="cls-27" d="m124.1,323.25c3.95,14.59,8.14,11.45,18.41,3.68,1.07,1.11.54.77.92,1.84.16.47-3.28,2.82,3.22,8.29.76.43,15.38,3.58,17.03,3.68,1.67.11,1.72-.61,2.76-.92,3.7,4.23,29.27,5.34,35.9,6.44,2.43.4,4.64,1.47,7.36,1.84.59.08,1.25-.08,1.84,0,1.84.25,5.07,1.15,11.05,1.84,2.55.29,1.74.91,1.84.92l-4.6,7.36c-8.57-1.07-17.24-3.15-25.78-4.6-3.41-.58-6.73-1.2-10.13-1.84-14.88-2.79-34.03-6.28-48.33-10.13-4.78-1.29-16.1-4.82-16.11-6.44,7.24.06,7.24-.6,2.76-11.97.82.19,1.62-1.92,1.84,0Z"/>
                    <path class="cls-92" d="m254.83,343.5c-3.54,15.23,17.27,13.36,10.13,0,1.96.17,3.57.75,5.52.92-7.06,14.47,21.62,15.82,12.89.92,1.52.12,3.08-.12,4.6,0-3.77,13.83,2.94,9.46,16.57,10.13,6.17.3,12.33-.1,18.41.92-31.72,8.86-70.71,5.89-103.11,1.84l4.6-7.36c20.09,2.14,32.47,5.43,27.62-8.29,1.98.16,2.09.87,2.76.92Z"/>
                    <path class="cls-72" d="m202.36,346.26c-6.64-1.11-32.2-2.21-35.9-6.44-1.04-1.19-3.36-8.61-1.38-9.21,20.25,7.51,44.32.42,37.28,15.65Z"/>
                    <path class="cls-72" d="m252.07,342.58c4.85,13.71-7.53,10.43-27.62,8.29-.1-.01.71-.63-1.84-.92-10.72-15.99,15.27-8.51,29.46-7.36Z"/>
                    <path class="cls-72" d="m163.69,340.74c-1.65-.11-16.28-3.25-17.03-3.68-6.5-5.47-3.06-7.82-3.22-8.29,8.59-3.16,23.19-.51,20.25,11.97Z"/>
                    <path class="cls-72" d="m304.54,355.47c-13.63-.67-20.35,3.7-16.57-10.13,7.94.63,25.71-2.93,16.57,10.13Z"/>
                    <path class="cls-72" d="m283.37,345.34c8.74,14.9-19.95,13.55-12.89-.92,4.24.38,8.62.6,12.89.92Z"/>
                    <path class="cls-72" d="m142.52,326.93c-10.27,7.77-14.46,10.91-18.41-3.68,4.03-.01,15.99,1.19,18.41,3.68Z"/>
                    <path class="cls-72" d="m264.96,343.5c7.15,13.36-13.66,15.23-10.13,0,3.34.25,6.8-.29,10.13,0Z"/>
                    <path class="cls-72" d="m211.56,348.1c-.59-.08-1.25.08-1.84,0-12.26-16.25,20.34-9.53,1.84,0Z"/>
                  </g>
                  <g>
                    <path class="cls-115" d="m395.68,392.29c7.9-8.79-9.41-7.72-15.65-9.21,2.34-2.7,4.29-1.8,6.44-4.14q-8.98-2.07-17.95-4.14c-1.21-13.29-1.88-16.48-7.36-1.84h-30.38c-5.8-13.63,15.89-9.75,3.68-15.65-7.12,7.38-14.7,3.18-16.11,7.83-2.13,6.99,9.29,6.48,5.06,9.67-10.93,3.3-19.39,2.82-17.49,8.29,3.22.45,4.79-8.23,8.29,11.05l-33.14-2.76c12.83-17.94-4.51-1.24-5.52-.92-3.31,1.06-61.92-6.73-69.05-8.29-9.84-2.15-24.08-9.36-34.98-11.05-3.02-1.82,1.4-3.32,1.38-4.14-.15-6.8-9.94,1.29-10.59,1.38-1.61.23-26.59-8.79-30.84-10.13,21.64-11.2-19.14-22.03-4.6-1.84-11-3.56-21.42-6.79-32.22-11.05,18.26-16.36,4.48,1.41,14.27,2.76,10.78,1.49,7.48-14.07-1.84-14.73-4.67-.33-7.23,3.38-10.13,4.6-1.42.6-6.96-3.95-7.83,5.52-4.99-2.04-9.83-4.2-14.73-6.44,1.95-6.63-.87-13.19,3.68-12.89,5.24,1.6,39.28,11.03,41.43,11.05.01,1.63,11.33,5.16,16.11,6.44,14.3,3.85,33.46,7.34,48.33,10.13v4.14l1.38-1.38c3.3,9.79,13.04,11.73,8.75-.92,8.53,1.46,17.21,3.53,25.78,4.6,32.4,4.05,71.39,7.02,103.11-1.84,11.99-3.35,29.79-11.57,38.67-20.25,8.87-1.31,18.44,1.25,27.16.92,81.34-3.1,226.23-19.65,295.98-60.3,2.48,6.69-10.56,34.03-16.11,34.52-.65.06-3.45-2.73-3.68-2.76-18.01-2.35-1.73,4.38-1.38,5.06,2.15,4.27-50.09,27.61-55.7,29.92-60.6,24.93-147.04,45.86-212.2,48.79Z"/>
                    <g>
                      <path class="cls-115" d="m94.64,345.34c-.27-.11-1.92-.37-5.52-1.84.87-9.47,6.41-4.93,7.83-5.52,2.89-1.22,5.45-4.93,10.13-4.6,9.32.66,12.62,16.22,1.84,14.73-9.79-1.35,3.99-19.12-14.27-2.76Z"/>
                      <path class="cls-115" d="m131.47,358.23c-3.69-1.16-4.37-1.76-4.6-1.84-14.54-20.19,26.25-9.36,4.6,1.84Z"/>
                      <path class="cls-115" d="m235.96,363.75c4.08-1.91,4.78,6.76,6.44,7.36.9.33,18-5.9,14.27,5.06-1.83,5.39-14.99-3.87-18.87,1.38-.27-7.25-5.34-4.71-5.98-5.98-.96-1.9,3.64-7.59,4.14-7.83Z"/>
                      <path class="cls-115" d="m290.27,370.2c2.48-1.06,9.1,8.83,5.98,10.59,14.09,4.01-.07,12.24-2.3,7.83-2.07-4.09,3.31-1.47,2.3-5.06-.25-.88-11.33,2.52-5.98-13.35Z"/>
                      <path class="cls-115" d="m200.05,364.67c4.16-.68,11.16,2.81,9.67,7.83-2.28,7.65-27.31-4.93-9.67-7.83Z"/>
                      <path class="cls-47" d="m515.82,359.15c8.28-.72,6.11,6.62,2.76,7.36-2.3.51-4.79-6.32-24.86,4.6-7.72-.64,19.15-11.71,22.09-11.97Z"/>
                      <path class="cls-51" d="m595,332.45c.67-.15,7.93,1.72,7.83,2.3-6.45,9.11-8.81,7.15-19.33,7.36-.36-.67,10.77-9.5,11.51-9.67Z"/>
                      <path class="cls-115" d="m444.94,371.12c2.86,1.46-17.62,18.66-15.19,7.83,1.38-6.13,10.34-6.67,15.19-7.83Z"/>
                      <path class="cls-115" d="m451.38,359.15c2.83,1.63-3.79,4.52-4.14,5.98-.05.2,2.75,1.9,1.84,3.68-1.21,2.38-15.8-4.64-15.65-5.52,5.77-4.12,13.41,2.53,17.95-4.14Z"/>
                      <path class="cls-63" d="m266.34,374.8c3.57.37,7.84,7.4,1.84,9.21-10.24,3.08-9.88-10.04-1.84-9.21Z"/>
                      <path class="cls-63" d="m219.39,369.28c4.96.56,5.64,9.14.92,10.13-8.31,1.75-9.33-11.08-.92-10.13Z"/>
                      <path class="cls-115" d="m300.4,368.36c8.77-2.33,8.61,8.51,2.76,9.21-5.87.7-8.42-7.7-2.76-9.21Z"/>
                      <path class="cls-47" d="m349.19,356.39c8.1.84,2.46,13.04-2.76,10.13-4.35-2.43-3.01-10.72,2.76-10.13Z"/>
                      <path class="cls-115" d="m194.07,353.63c4.29,12.65-5.44,10.71-8.75.92l-1.38,1.38v-4.14c3.4.64,6.71,1.26,10.13,1.84Z"/>
                      <path class="cls-47" d="m534.24,352.71c3.17-.8,10.54,4.29,5.52,8.29-6.78,5.39-12.45-6.54-5.52-8.29Z"/>
                      <path class="cls-63" d="m554.49,349.94c6.1-1.96,8.51,5.32,5.52,7.36-8.14,5.59-12.14-5.24-5.52-7.36Z"/>
                      <path class="cls-115" d="m559.09,326.01c9.6-2.96,8.67,11.86-.92,8.29-4.02-1.5-1.37-7.58.92-8.29Z"/>
                      <path class="cls-47" d="m416.4,374.8c6.69-.4,6.98,11.65-1.84,9.21-5.11-1.42-2.23-8.96,1.84-9.21Z"/>
                      <path class="cls-115" d="m271.86,367.44c7.87-2.35,9.1,7.19,2.76,8.29-6.78,1.17-7.34-6.92-2.76-8.29Z"/>
                      <path class="cls-63" d="m481.76,363.75c6.08-1.69,7.68,8.69,1.84,9.21-5.58.49-6.19-8-1.84-9.21Z"/>
                      <path class="cls-63" d="m577.5,320.49c6.49-2.21,7.36,5.89,4.6,7.36-5.81,3.11-9.75-5.61-4.6-7.36Z"/>
                      <path class="cls-63" d="m510.3,337.98c6.5.14,4.39,10.17-1.84,8.29-3.51-1.06-3.3-8.39,1.84-8.29Z"/>
                      <path class="cls-63" d="m637.34,302.07c7.9,2-4.16,11.4-6.9,5.98-1.97-3.9,6.41-6.11,6.9-5.98Z"/>
                      <path class="cls-47" d="m483.6,330.61c.42-.27,9.06.59,8.75,3.22-.11.9-8.49,3.98-9.67,3.22-.58-.37-.22-5.71.92-6.44Z"/>
                      <g>
                        <path class="cls-63" d="m444.94,339.82c6.04-1.86,9.52,5.23,4.6,8.29-6.48,4.02-10.69-6.41-4.6-8.29Z"/>
                        <path class="cls-32" d="m446.78,343.5c.47-.01,2.24,2.18.92,2.76-3.05,1.34-2.49-2.71-.92-2.76Z"/>
                      </g>
                    </g>
                  </g>
                </g>
              </g>
            </g>
          </g>
        </g>
      </g>
      <g>
        <path class="cls-40" d="m574.28,184.24c-2.55,6.05,32.59,10.15,41.43,19.33-2.51-.99-3.51-.85-3.68-.92-5.91-2.3-11.54-4.31-17.49-6.44-2.47-.89-4.81-1.88-7.36-2.76-16.38-5.68-32.62-11.65-49.25-16.57,27.82,42.67-64.99,66.11-93.44,72.73-10.55-.88-21.96,3.91-32.68,5.52-26.92,4.06-73.92,5.28-101.27,3.68-6.72-.39-24.7-5.13-24.4-1.84-.3-.04-.62.04-.92,0-43.38-5.37-70.96-12.44-110.47-31.3-2.5-1.19-4.82-2.49-7.36-3.68-6.12-4.83-10.96-8.73-14.73-15.65,7.5,9.06,36.19,28.42,34.06,20.25,4.37,2.06,9.36,2.94,13.81,4.6,37.49,14.05,76.98,20.66,116.92,23.02,7.12.42,14.03.8,21.17.92,29.88.49,56.23-1.84,85.62-7.36,24.47-4.6,70.39-17.04,91.14-29.46,10.07-6.03,24.69-16.5,22.09-29.46-2.59-12.94-19-18.15-30.38-21.17v-4.6c16.65,6.33,45.97,14.02,67.2,21.17Z"/>
        <path class="cls-10" d="m672.79,270.77c-51.24,29.99-183.56,48.08-244.42,52.47-23.49,1.7-46.91,1.44-70.43,1.84-1.41-3.08-1.91-7.36.92-9.21.6-.05,1.24.06,1.84,0,5.15-.55,9.78-2.41,14.73-3.68,18.84,4.73,49.02.26,69.97-1.84.55-.05.82.21,2.76,0,6.52-.7,48.78-5.31,51.09-6.44,1.65-.81,2.99-6.15,3.68-6.44,3.95-1.67,6.64,6.77,14.73,3.68,4.3-1.64.8-6.06,3.68-7.36,3.02-1.36,9.17,4.9,11.05,4.6,1.9-.3,3.89-5.29,4.14-5.52,1.81.94,2,2.28,4.6,1.84-3.33,8.28,32.08-2.47,46.03-5.52,7.08-1.55,14.33-2.21,21.17-4.6,7.95.03,15.12-4.27,22.09-6.44,16.35-5.09,41-11.85,52.47-23.94.11.4,2.44,2.56,2.76,7.83-4.27,2.87-8.45,6.15-12.89,8.75Z"/>
        <path class="cls-105" d="m169.21,302.99c6.51,1.18,12.72,3.63,19.33,4.6l-1.84,5.52c-24.74-3.61-49.2-10.09-74.11-12.89-20.15-6.79-41.44-10.24-61.68-16.57-9.6-3-21.7-9.85-30.84-10.13-3.13-1.48-8.77-3.74-11.05-5.52-.61-1.13-.83-1.36-.92-2.76,1.41-.88,5.63-3.68,5.98-3.68,2.61-.05,36.33,15.09,48.79,18.41,36.96,9.86,30.52,2.65,32.22,2.76,2.4.15.33,3.98.46,4.14,2.66,3.51,64.07,14.38,73.65,16.11Z"/>
        <path class="cls-112" d="m186.71,313.12c18.91,2.76,38.55,5.34,57.54,7.36,10.47,1.12,21.26-1.51,30.84,3.68-49.14-2.74-83.5-7.11-131.65-16.57-33.64-6.61-93.75-20.06-123.36-34.06,9.14.27,21.24,7.12,30.84,10.13,20.24,6.33,41.53,9.78,61.68,16.57,24.91,2.8,49.37,9.28,74.11,12.89Z"/>
        <path class="cls-104" d="m86.36,200.81v.92c-2.3.88-6.18,2.32-6.44,5.52-9.33,2.18-21.26,7.9-29.46,12.89-1.71,1.04-3.85,1.44-4.6,3.68-15.67,6.8-24.98,6.53-23.94,16.11-9.91,5.31-6.17,6.46-6.44,6.9l-1.84,1.84c-1.83,2.81-6.44,3.11-5.52,16.57.1,1.4.31,1.63.92,2.76-.17-.13-1.56.52-3.68-2.3-.58-41.94,48.28-52.99,81.01-64.9Z"/>
        <path class="cls-1" d="m655.3,221.06c-3.97,3.34-8.6,5.27-12.89,8.29-.14.1-.27-.21-2.76,1.84-1.5,1.24-2.21,3.31-4.6,3.68-.31-1.1-2.65-2.53-3.68-7.36l1.84-2.76c1.94-.26,3.74-.54,5.52-1.38-3.97-2.06-4.84-6.63-10.13-5.98,3.46-3.2,7.46-2.03,5.52-6.44,7.25,3.22,14.19,6.31,21.17,10.13Z"/>
        <path class="cls-78" d="m615.71,203.57c.27.1.66-.11.92,0-12.18,5.05-5.86,11.14-5.52,12.89.02.11-.76-.1-1.84,1.38,3.19,7.5,8.32-2.15,5.52,15.65h-1.84c-.22-12.91-.59,2.02-8.29-4.14,1.48-4.14,1.5-7.44-.92-11.05,10.61-12.1-18.79-1.29,8.29-15.65.18.07,1.17-.07,3.68.92Z"/>
        <path class="cls-3" d="m153.56,181.47c-20.89,7.04-42.92,12.53-63.52,20.25-.87.33-2.82-.33-3.68,0v-.92c23.81-8.66,48.79-16.83,72.73-23.48.13.32-4.82,3.25-5.52,4.14Z"/>
        <path class="cls-107" d="m660.82,223.82c-5.36,4.6-19.06,13.63-25.78,13.81-.12-.87.21-2.02,0-2.76,2.39-.38,3.1-2.44,4.6-3.68l2.76-1.84c4.29-3.01,8.92-4.94,12.89-8.29,1.86,1.02,3.57,1.54,5.52,2.76Z"/>
        <path class="cls-50" d="m622.15,206.33c1.16,7.87-3.39,12.59-11.05,10.13-.34-1.74-6.65-7.84,5.52-12.89,1.86.74,3.7,2.01,5.52,2.76Z"/>
        <path class="cls-101" d="m425.14,242.23q-.46,2.76-.92,5.52c-29.39,5.53-55.74,7.85-85.62,7.36-4.74-5.42,5.28-4.95,9.21-5.52,15.05-2.18,37.84-1.48,64.44-5.52,4.29-.65,8.6-1,12.89-1.84Z"/>
        <path class="cls-60" d="m444.48,249.6c-3.66.85-7.44,2.02-11.05,2.76-11.4,2.33-23.42,4.15-34.98,5.52-18.23,2.16-28.86,2.49-46.95,2.76-27.17.41-38.75-.47-65.36-3.68-.3-3.29,17.68,1.45,24.4,1.84,27.35,1.6,74.35.38,101.27-3.68,10.72-1.62,22.14-6.4,32.68-5.52Z"/>
        <path class="cls-111" d="m594.54,196.2c-4.98,3.11,2.91,7.15-10.13,9.21-.18.03-1.47-2.95-1.84.92-4.08-.07.84-1.92.92-5.52.03-1.53-.02-3.07,0-4.6,1.12-.69,2.38-2.29,3.68-2.76,2.55.89,4.9,1.87,7.36,2.76Z"/>
        <path class="cls-111" d="m238.26,305.76c2.72.84-3.52,5.32-1.38,6.44,2.8,1.47,55.63,3.47,63.06,3.68-7.66,13.67.61,2.79,8.29,10.13-11.07-.28-22.1-1.23-33.14-1.84-9.58-5.19-20.37-2.57-30.84-3.68-18.99-2.02-38.63-4.61-57.54-7.36l1.84-5.52c.34.05,1.52.51,4.6.92,5.22.69,34.67,3.38,37.28,2.76.47-.11,1.39-2.76,7.83-5.52Z"/>
        <path class="cls-92" d="m203.28,296.55c.06,1.2,2.82,2.84,2.76,3.22-.08.5-6.94,6.64-7.36,6.9-13.79-.82-8.99-3.53-15.65-12.89,4.78-.47,17.29-4.92,13.81-11.05,3.03,1.7,5.31-.05,5.52.46-7.16,9.57,3.26,9.5,3.68,10.13.14.21-2.81,2.19-2.76,3.22Z"/>
        <path class="cls-44" d="m90.04,201.73c7.09,7.54-7.93,15.47-10.13,5.52.26-3.2,4.15-4.65,6.44-5.52.86-.33,2.81.33,3.68,0Z"/>
        <path class="cls-111" d="m480.38,285.5c.46.72,4.38,3.05,5.52,3.68-1.84.93-3.69,1.82-5.52,2.76-.35.18-2.91-.41-2.76,2.76-7,2.61-8.87,3.5-16.57,4.6-.18.03.18-.37-3.68,0-4.63.44-9.29.38-13.81,1.84-3.72-4.74-3.42-1.85-3.68-1.84-3.7.15-10.45,2.15-14.73,2.76-.18.03.6-.56-3.68,0-1.05.14-1.56,1.25-2.3,1.84h-10.59c2.3-4.22,9.54-7.72,11.05-9.21,7.35,12.71,36.62-2.46,48.33-4.6-1.46-6.78,4.03-2.92,9.21-11.97,1.9-1.02,2.93,6.9,3.22,7.36Z"/>
        <path class="cls-94" d="m587.17,289.18c-13.95,3.05-49.36,13.8-46.03,5.52.65-.11,8.98-6.14,11.05-7.36,10.27,1.43,34.54-3.22,34.98,1.84Z"/>
        <path class="cls-78" d="m633.2,224.74c-.15.02-.98-2.99-2.76-1.38-.48,4.68.88,3.94.92,4.14,1.03,4.84,3.38,6.27,3.68,7.36.21.74-.12,1.89,0,2.76-1.96.05-2.05-.97-2.76-.92-1.51.1-3.09.02-4.6,0-6.31-.08-3.37,1.47-5.06,1.84-2.73.61-3.04-1.79-3.22-1.84-5.25-15.41,1.72-8.37,4.14-9.21,2.03-.7-.85-4.66,5.06-10.13,5.29-.65,6.16,3.92,10.13,5.98-1.78.84-3.59,1.12-5.52,1.38Z"/>
        <path class="cls-94" d="m630.44,278.14c-6.98,2.17-14.15,6.47-22.09,6.44.08-1.36,1.21-.35,1.84-1.84.2-.48-.12-1.82,0-2.76,14.75-1.29,9.27-13.3,20.25-1.84Z"/>
        <g>
          <path class="cls-101" d="m682.91,254.2c-11.47,12.08-36.12,18.84-52.47,23.94-10.98-11.46-5.5.55-20.25,1.84-.34.03-4.89-4.51,0,2.76-.64,1.49-1.76.48-1.84,1.84-6.84,2.4-14.1,3.05-21.17,4.6-.44-5.06-24.71-.41-34.98-1.84-5.96.22-6.8,5.55-13.35,2.76-1.32.9-2.17,2.64-2.3,2.76-.25.24-2.25,5.23-4.14,5.52-1.88.3-8.02-5.97-11.05-4.6-2.89,1.3.62,5.72-3.68,7.36-8.09,3.09-10.78-5.35-14.73-3.68-.69.29-2.03,5.63-3.68,6.44-2.31,1.14-44.57,5.74-51.09,6.44-1.89-2.08-4.29-8.8-4.6-9.21,4.52-1.47,9.18-1.4,13.81-1.84-.39,4.84,4,5.03,3.68,0,7.7-1.1,9.57-1.99,16.57-4.6.29-.11,5.14,2.79,2.76-2.76,1.83-.94,3.69-1.83,5.52-2.76.42.23,7.44,2.24,9.21,2.76.14.04-.87,2.42,2.3,1.84.82-.35.36-1.81.46-1.84,6.46-1.76,12.78-2.16,15.19-7.36,9.9,5.04,10.08-2.33,11.97-2.76.99-.22,4.69,2.43,7.36,1.84,6.14-1.35,47.2-17.41,54.78-21.17-.58,5.9,5.52.24.92,0,.44-.22,4.17-3.15,8.29-5.52,2.86-1.65,21.05-11.77,21.63-12.89.62-1.19-2.62-6.76-2.3-8.75.33-.86.91.59,3.68,1.38.18.05.49,2.45,3.22,1.84,1.69-.38-1.25-1.92,5.06-1.84-5.27.64,1.92,4.3,4.6,0,.71-.05.8.97,2.76.92,6.72-.18,20.42-9.21,25.78-13.81,14.95,9.32,17.59,13.18,22.09,30.38Z"/>
          <g>
            <path class="cls-115" d="m626.3,256.96c8.66-2.73,10.79,10.76,3.68,11.97-8.3,1.41-8.85-10.34-3.68-11.97Z"/>
            <path class="cls-60" d="m552.19,287.34c-2.07,1.23-10.39,7.25-11.05,7.36-2.61.44-2.79-.91-4.6-1.84.13-.12.98-1.86,2.3-2.76,6.55,2.78,7.39-2.54,13.35-2.76Z"/>
            <path class="cls-28" d="m443.56,301.15c.32.4,2.72,7.13,4.6,9.21-1.94.21-2.21-.05-2.76,0q-2.76-5.52-5.52-11.05c.26-.01-.04-2.9,3.68,1.84Z"/>
            <path class="cls-45" d="m606.04,271.69c3.41-2.65,5.53,4.52,1.84,4.6-2.52.06-3.05-3.66-1.84-4.6Z"/>
            <path class="cls-45" d="m461.05,299.31c.32,5.03-4.07,4.84-3.68,0,3.86-.37,3.5.03,3.68,0Z"/>
            <path class="cls-28" d="m645.63,257.88c1.41.22,3.56-.33,4.6,0,6.71,2.1-2.69,4.18-4.6,0Z"/>
            <path class="cls-10" d="m607.88,253.28c3.88-1.28,3.06,3.56.92,3.68-2.44.15-3.06-2.97-.92-3.68Z"/>
            <path class="cls-33" d="m577.5,279.06c2.94-1.93,4.66,3.01,1.84,3.68-1.8.43-3.25-2.76-1.84-3.68Z"/>
            <path class="cls-33" d="m627.68,236.71c1.52.02,3.1.1,4.6,0-2.68,4.3-9.87.64-4.6,0Z"/>
            <path class="cls-60" d="m480.38,291.95c2.38,5.55-2.47,2.65-2.76,2.76-.15-3.17,2.41-2.58,2.76-2.76Z"/>
            <path class="cls-40" d="m620.77,244.07c4.37-1.06.98,3.72,0,3.68-1.29-.05-1.98-3.2,0-3.68Z"/>
            <path class="cls-43" d="m610.19,279.98c-.12.94.2,2.28,0,2.76-4.89-7.27-.34-2.73,0-2.76Z"/>
            <path class="cls-33" d="m659.44,255.12c3.22-1.75,6.17,3.63.92,1.84-.34-.12-1.79-1.37-.92-1.84Z"/>
            <path class="cls-28" d="m587.17,262.49c.25-.12.68.12.92,0,4.6.24-1.5,5.9-.92,0Z"/>
            <path class="cls-28" d="m659.44,227.5c1.79-.93,2.82,2.87.92,2.76-2.04-.11-1.79-2.31-.92-2.76Z"/>
            <path class="cls-28" d="m613.41,268.01c.61.35.68,1.96.46,2.3-2.5,3.86-2.68-3.57-.46-2.3Z"/>
            <path class="cls-28" d="m583.95,276.3c.67-.49,2.97.07,2.3,1.38-.72,1.43-4.27.06-2.3-1.38Z"/>
            <path class="cls-25" d="m676.01,243.15c.33,0,2.03,1.32.46,2.3-1.75,1.1-2.05-2.3-.46-2.3Z"/>
            <path class="cls-28" d="m669.56,244.07c.33,0,2.03,1.32.46,2.3-1.75,1.1-2.05-2.3-.46-2.3Z"/>
            <path class="cls-28" d="m654.83,253.28c2.83-1.1,4.56,3.72.92.92-.09-.07-2.4-.34-.92-.92Z"/>
            <path class="cls-28" d="m656.68,236.71c.1-.01,1.86,1.34.92,1.84-2.37,1.25-2.66-1.64-.92-1.84Z"/>
          </g>
        </g>
        <path class="cls-78" d="m358.86,315.88c-2.83,1.85-2.33,6.13-.92,9.21-3.49.06-7.33.9-11.05.92-12.85.09-25.82.32-38.67,0-7.68-7.33-15.94,3.54-8.29-10.13,13.43.38,48.28.96,58.92,0Z"/>
        <path class="cls-78" d="m397.52,304.83c-7.49,2.06-14.57,5.44-22.09,7.36-4.95,1.27-9.58,3.13-14.73,3.68,10.39-7.89,16.16-9.56,28.54-11.05,2.46-.3,6.93.13,8.29,0Z"/>
        <path class="cls-1" d="m580.73,248.68v.92c-4.34,3.44-8.71,7.91-9.21,8.29-.27.2-1.9.93-5.52,3.68-2.36-2.3-1.71-4.39-1.84-4.6,5.71-2.55,5.36-8.73,6.44-10.13-.1-1.02.46-.8.92-.92,2.47-.68,6.85,1.61,9.21,2.76Z"/>
        <g>
          <path class="cls-111" d="m634.12,210.93c1.94,4.41-2.06,3.25-5.52,6.44-5.92,5.47-3.04,9.43-5.06,10.13-2.42.83-9.4-6.2-4.14,9.21-2.77-.79-3.35-2.25-3.68-1.38-.32,1.98,2.93,7.55,2.3,8.75-.58,1.12-18.78,11.24-21.63,12.89-3.39-3.03-2.58-3.54-2.76-3.68,3.49-1.63-3.08-8.46-5.06,2.76-9.11,3.47-10.32,13.74-17.03,1.84.49-.37,4.87-4.84,9.21-8.29,11.38-9.04.84-6.2,0-.92-2.36-1.15-6.73-3.44-9.21-2.76-2.14-8.41-1.95-23.52-3.68-12.89-.88.11-1.93-.18-2.76,0,1.54-2.65,2.92-5.33.92-8.29,5.69,2.28,4.8-.28,6.44-.92h1.84c3.22-7.5,3.01-.12,4.14,0,1.2.13,4.46-14.53,17.49-11.97l-1.38,1.84c-3.93-.2-8.02,1.37-10.13,5.06-8.62,15.09,15.41,24.14,20.25,10.59,7.7,6.16,8.06-8.77,8.29,4.14h1.84c2.8-17.8-2.33-8.15-5.52-15.65,1.09-1.48,1.86-1.27,1.84-1.38,7.66,2.47,12.2-2.26,11.05-10.13,3.92,1.62,8.09,2.88,11.97,4.6Z"/>
          <path class="cls-96" d="m571.52,245.92c-.46.13-1.02-.09-.92.92-4.14,4.4-3.04-12.12-2.76-13.81,1.73-10.63,1.54,4.48,3.68,12.89Z"/>
          <path class="cls-53" d="m599.6,245.92c.44-.07,9.18.7,8.75,1.38-.3,3.57-13.73-.53-8.75-1.38Z"/>
          <path class="cls-36" d="m580.73,249.6v-.92c.84-5.28,11.38-8.12,0,.92Z"/>
          <path class="cls-12" d="m622.61,218.3c1.99-.08,1.52.49,0,1.84-4.73,4.18-5.07.25,0-1.84Z"/>
        </g>
        <path class="cls-33" d="m633.2,224.74l-1.84,2.76c-.04-.21-1.4.53-.92-4.14,1.79-1.61,2.61,1.4,2.76,1.38Z"/>
        <path class="cls-31" d="m642.41,229.34l-2.76,1.84c2.49-2.06,2.63-1.75,2.76-1.84Z"/>
        <path class="cls-58" d="m433.43,252.36c-4.76,2.73.37,2.72,0,7.36-7.33,1.18-15.06,1.08-22.09,3.68-3.12-1.1-7.38-.57-10.13.92v-.92q-1.38-2.76-2.76-5.52c11.56-1.37,23.59-3.19,34.98-5.52Z"/>
        <path class="cls-78" d="m398.45,257.88q1.38,2.76,2.76,5.52c-13.7.52-43.04,3.86-49.71-2.76,18.09-.27,28.72-.6,46.95-2.76Z"/>
        <path class="cls-32" d="m447.24,279.98c-3.59,3.18-5.53,1.2-7.83,8.29-1.6-4.16-4.14-4.33-7.83-5.52-.73-10.38,2.07-1.21,7.83-10.13.9.02,1.24,5.66,7.83,7.36Z"/>
        <path class="cls-78" d="m583.49,196.2c-.02,1.53.03,3.07,0,4.6-2.78.37-6.09,3.91-5.52,6.44h-.92c-.32-4.99-3.74,3.53-6.9,5.52-4.29,2.7-15.55,5.66-20.25,8.29-.49.27-3.48,7.11-8.75,4.6.33-.18-1.57-.8,5.98-2.76,3.03-5.01,4.46-5.48,8.75-8.29,1.79-1.17,10.04-3.84,12.43-5.52,1.94-1.36,1.25-2.67,1.38-2.76,3.53-2.45,5.23-4.88,8.29-7.36.27-.22,1.55-.69,1.84-.92,2.86-2.19,3.51-1.73,3.68-1.84Z"/>
        <path class="cls-111" d="m534.7,229.34c-.32,4.64,3.17,3.34,1.84,7.36-5.84-4.42-8.09.71-2.76,1.84-4.27.86-3.37-1.39-6.9-.92-.69.09-5.33,4.55-12.43,6.44-.29.08-1.94-3.04-4.6,1.84-3.58,4.65,1.6-4.99-.92-6.44,6.13-1.85,20.47-7.39,25.78-10.13Z"/>
        <path class="cls-1" d="m553.11,255.12c2.62,5.78,1.68,5.98,0,11.51,4.75-5.91,3.83-2.12,5.52-1.38-2.31,4-6.8,5.1-8.29,6.44h-.92c-2.99,1.13-3.12-.06-3.68,0-1.84-3.76-1.67-5.06,0-8.29,1.63-3.15,5.47-4.69,5.52-5.06.06-.4-3.41-2.51-2.76-3.68.89-1.61,3.25.76,4.6.46Z"/>
        <path class="cls-78" d="m564.15,256.96c.13.21-.52,2.31,1.84,4.6-3.89,2.96-4.71,5.39-5.06,5.52-1.45.57-2.17-1.78-2.3-1.84-1.7-.74-.78-4.52-5.52,1.38,1.68-5.52,2.62-5.72,0-11.51,2.5-.54,5.3-1.34,6.9-3.68.6,3.49,1.65,1.46,4.14,5.52Z"/>
        <g>
          <path class="cls-105" d="m594.54,196.2c5.95,2.14,11.58,4.15,17.49,6.44-27.07,14.36,2.32,3.55-8.29,15.65-1.52-2.26-6.91-4.49-9.21-4.6l1.38-1.84c-13.03-2.56-16.29,12.1-17.49,11.97-1.13-.12-.92-7.5-4.14,0l-.46-1.84c-1.98-.37-1.27,1.8-1.38,1.84-1.64.65-.75,3.2-6.44.92-.52-.21-4.49-6.06-9.67-4.6-3.21.9-11.96,17.49,8.75,12.89.83-.18,1.88.11,2.76,0-.28,1.69-1.38,18.21,2.76,13.81-1.09,1.39-.74,7.57-6.44,10.13-2.5-4.06-3.54-2.03-4.14-5.52-1.6,2.35-4.41,3.14-6.9,3.68-1.36.3-3.71-2.07-4.6-.46-.65,1.17,2.82,3.28,2.76,3.68-.06.37-3.9,1.92-5.52,5.06-9.28.17-2.36-10.42-13.81,6.9,11.36,5.01,4.36,2.31,13.81,1.38.57-.06.7,1.13,3.68,0l.46,2.76c.94-.71.23-2.55.46-2.76,1.48-1.34,5.97-2.45,8.29-6.44.14.06.85,2.41,2.3,1.84.35-.14,1.17-2.56,5.06-5.52,3.62-2.75,5.26-3.48,5.52-3.68,6.71,11.9,7.92,1.63,17.03-1.84,1.98-11.23,8.55-4.39,5.06-2.76-.1.05-.9-2.06-1.38-1.84-4.79,2.12,1.19,1.7,1.38,1.84.18.14-.63.66,2.76,3.68-4.11,2.37-7.84,5.3-8.29,5.52-.25.12-.67-.12-.92,0-7.58,3.77-48.63,19.83-54.78,21.17-2.68.59-6.38-2.07-7.36-1.84-1.89.43-2.07,7.8-11.97,2.76-2.41,5.2-8.73,5.61-15.19,7.36h-2.76c-1.77-.52-8.79-2.53-9.21-2.76-1.14-.63-5.07-2.96-5.52-3.68,8.37-5.78,4.19-1.57,6.9-.92,2.37.56,4.82-5.8,5.06-7.83.28-2.34-3.87.73-.92-7.36,1.21-1.3.72,3.83,2.76-.46.75-1.58,1.64-1.92-.92-1.84-.66-3.01.11-4.11-.46-4.6-.36-.31-7.83-1.75-9.21-2.76-.45-.33-1.03-4.91-7.83-7.36-.33-.12-1.01.16-.92-.92,3.63-1.04,7.16-2.62,11.05-2.76-5.14,19.51,29.2,10.85,13.81-5.52.48-.11.63-1.1,9.21-3.68,2.52,1.45-2.66,11.1.92,6.44,2,2.53,6.47,1.14,4.6-1.84,7.1-1.9,11.73-6.35,12.43-6.44,3.54-.47,2.64,1.78,6.9.92,2.81-.57,1.86.91,2.76-1.84,1.33-4.03-2.16-2.73-1.84-7.36,2.1-1.09,4.34-2.5,6.44-3.68,5.27,2.51,8.26-4.33,8.75-4.6,4.7-2.62,15.96-5.58,20.25-8.29,3.17-1.99,6.58-10.51,6.9-5.52-2.08,3.03,5.53.26.92,0-.57-2.53,2.74-6.08,5.52-6.44-.08,3.6-5,5.46-.92,5.52l1.84-.92c13.04-2.05,5.15-6.1,10.13-9.21Z"/>
          <g>
            <path class="cls-33" d="m497.87,291.95c-.1.03.36,1.49-.46,1.84-3.17.58-2.16-1.8-2.3-1.84h2.76Z"/>
            <path class="cls-44" d="m566,224.74c2,2.96.62,5.63-.92,8.29-20.71,4.6-11.96-11.99-8.75-12.89,5.18-1.45,9.15,4.39,9.67,4.6Z"/>
            <path class="cls-13" d="m574.28,223.82h-1.84c.11-.04-.6-2.21,1.38-1.84l.46,1.84Z"/>
            <path class="cls-111" d="m511.68,270.77c1.25,1.13,1.1,3.3,2.76,0,5.42,3.22,3.71,8.22,1.38,9.21-4.13,1.74-2.14-3.29-10.59-3.68-9.52-.45-9.22,6.03-4.6,4.6-.16.1-.23,3.53-3.22,1.84-7.11-4,3.84-7.34,4.14-7.83.23-.36-5.82-2.96-.46-6.9.27-.2,6.12-1.91,6.44-1.84.68.15,2.02,2.69,4.14,4.6Z"/>
            <path class="cls-111" d="m526.41,259.72c-2.64-.28-4.05,2.35-4.6,2.76-6.78,5.13-1.45-1.8-10.13-4.6-.03-2.8-1.86-3.6-2.76-.92-1.23,4.87-2.72-3.31-.92-5.06,2.01-1.96,18.85,2.62,18.41,7.83Z"/>
            <path class="cls-50" d="m545.74,263.41c-1.67,3.22-1.84,4.53,0,8.29-9.45.93-2.44,3.63-13.81-1.38,11.45-17.33,4.53-6.74,13.81-6.9Z"/>
            <path class="cls-32" d="m534.24,241.31c2.07,6.22,8.3,2.49,13.35,4.14-17.49,4.26-11.91,14.6-20.25.92l6.9-5.06Z"/>
            <path class="cls-20" d="m505.24,276.3c-1.31,2.72-2.44,3.27-4.6,4.6-4.62,1.43-4.91-5.05,4.6-4.6Z"/>
            <path class="cls-25" d="m536.54,236.71c-.91,2.75.05,1.27-2.76,1.84-5.33-1.13-3.08-6.26,2.76-1.84Z"/>
            <path class="cls-115" d="m514.44,244.07c1.87,2.98-2.6,4.38-4.6,1.84,2.67-4.88,4.31-1.76,4.6-1.84Z"/>
            <path class="cls-43" d="m571.98,262.49c2.26-.5,3.08,3.2.92,3.68-2.26.5-3.08-3.2-.92-3.68Z"/>
            <path class="cls-102" d="m526.41,259.72c-.19,2.31-4.37,4.11-4.6,2.76.55-.41,1.96-3.04,4.6-2.76Z"/>
            <path class="cls-5" d="m511.68,257.88c-.83-.27-1.74-.09-2.76-.92.9-2.68,2.73-1.88,2.76.92Z"/>
            <path class="cls-59" d="m542.52,234.87c1.8-.48,1.83,2.37.92,2.76-.34.15-2.32-2.39-.92-2.76Z"/>
            <path class="cls-48" d="m593.61,253.28c-.19-.15-6.17.28-1.38-1.84.48-.21,1.28,1.89,1.38,1.84Z"/>
            <path class="cls-5" d="m514.44,270.77c-1.66,3.3-1.51,1.13-2.76,0,1.61-.91,1.19-.93,2.76,0Z"/>
            <path class="cls-43" d="m577.96,207.25c4.61.26-3,3.03-.92,0h.92Z"/>
            <path class="cls-86" d="m559.09,248.68c1.38-.55,2.02,1.4.92,1.84-1.38.55-2.02-1.4-.92-1.84Z"/>
            <path class="cls-37" d="m572.9,218.3l.46.46.46.46.46.46-.46.46h-.92l-.46-.46v-.92l.46-.46Z"/>
            <path class="cls-31" d="m549.43,271.69h.92c-.23.21.48,2.05-.46,2.76l-.46-2.76Z"/>
            <path class="cls-9" d="m584.41,205.41l-1.84.92c.37-3.87,1.67-.89,1.84-.92Z"/>
            <path class="cls-31" d="m563.69,248.68h.92l.46.46-.46.46-.46.46-.46.46-.46-.46v-.92l.46-.46Z"/>
          </g>
        </g>
        <path class="cls-47" d="m577.04,198.04l.92.92c-3.06,2.49-4.75,4.91-8.29,7.36-8.77.69-8.36-12.28.46-11.05.91.13,2.24,2.81,6.9,2.76Z"/>
        <g>
          <path class="cls-101" d="m587.17,193.44c-1.3.47-2.56,2.08-3.68,2.76-.18.11-.82-.35-3.68,1.84-1.34-2.49-2.62,0-2.76,0-4.67.05-5.99-2.63-6.9-2.76-8.83-1.23-9.23,11.74-.46,11.05-.13.09.56,1.4-1.38,2.76-2.39,1.68-10.64,4.35-12.43,5.52.25-.23-3.77-4.69-4.14-5.52-2.02.66,1.92,7.59,4.14,5.52-4.29,2.81-5.71,3.28-8.75,8.29-7.55,1.96-5.66,2.58-5.98,2.76-2.1,1.18-4.34,2.6-6.44,3.68-5.3,2.74-19.65,8.28-25.78,10.13-8.58,2.59-8.72,3.57-9.21,3.68-1.66.37-10.95-5.32-13.81,5.52-3.89.14-7.41,1.72-11.05,2.76-14.96,4.29-7.27,4.39-7.83,4.6-1.77.67-5.57-3.03-7.36-1.84-.95.63.21,3.95-1.84,4.6-.48.15-3.45-2.75-3.68-2.76-6.78-.27-13.96,2.59-20.71,3.68.37-4.64-4.76-4.64,0-7.36,3.61-.74,7.39-1.91,11.05-2.76,28.45-6.62,121.26-30.06,93.44-72.73,16.63,4.92,32.88,10.89,49.25,16.57Z"/>
          <path class="cls-46" d="m553.57,194.36c3.38-.98,5.99,4.99,2.76,6.44-5.29,2.38-6.03-5.5-2.76-6.44Z"/>
          <path class="cls-28" d="m555.87,214.62c-2.23,2.07-6.17-4.86-4.14-5.52.38.84,4.4,5.29,4.14,5.52Z"/>
          <path class="cls-6" d="m579.81,198.04c-.29.23-1.58.7-1.84.92l-.92-.92c.14,0,1.42-2.49,2.76,0Z"/>
        </g>
        <g>
          <path class="cls-105" d="m203.28,296.55c-.05-1.04,2.9-3.01,2.76-3.22-.42-.63-10.85-.56-3.68-10.13-.22-.51-2.49,1.24-5.52-.46-2.38-1.34-2.59-2.66-2.76-2.76.47-5.19-.5-4.81-.92-6.44-.41-1.59.45-4.97,0-5.98-1.17-2.67-7.43.26-6.44-4.6,1.27-6.3,13.48.1,13.35-5.98,18.22-2.89-2.36,14.98-2.3,17.03.16,5.59,23.4,13.68,5.52,22.55Z"/>
          <path class="cls-58" d="m188.09,263.41c1.93-.66,3.27.95,1.84,1.84-.82.51-2.92-1.47-1.84-1.84Z"/>
        </g>
        <g>
          <path class="cls-106" d="m183.02,293.79c6.66,9.36,1.86,12.07,15.65,12.89-2.48,1.53-4.12.08-5.52,1.84-3.08-.41-4.26-.87-4.6-.92-6.61-.97-12.82-3.42-19.33-4.6-.42-3.14.86-2.63.92-2.76,1.53,1.66,1.77.87.92-.92-2.09-4.38-4.01-3.67-3.68-8.75,6.48,3.41,5.73.94,10.13-2.3l1.84-.92c8.69,4.5-2.2,4.4-.92,5.98.6.75,3.51.57,4.6.46Z"/>
          <path class="cls-70" d="m179.34,287.34l-1.84.92c.53-.39-1.22-2.51,1.84-.92Z"/>
          <path class="cls-86" d="m170.13,300.23c.11-.23-.19-1.01.92-.92.85,1.79.61,2.58-.92.92Z"/>
          <path class="cls-57" d="m174.28,293.79h.92l.46.46-.46.46-.46.46-.46.46-.46-.46v-.92l.46-.46Z"/>
        </g>
        <g>
          <path class="cls-50" d="m285.21,258.8c12.12-.36,15.17,13.54,3.68,19.33-8.87.79-15.06-3.24-11.97-12.43-12.66-3.9-2.52-2.1.46-3.22,1.6-.6,1.5-3.49,7.83-3.68Z"/>
          <path class="cls-62" d="m288.43,260.65c7.89,6.13,3.72,14.06-1.84,14.73-9.35,1.12-13.35-12.69,1.84-14.73Z"/>
        </g>
        <g>
          <path class="cls-106" d="m153.56,181.47c-7.69,9.76-6.13,15.3-.92,24.86,3.77,6.92,8.61,10.82,14.73,15.65-.41-.19-2.78.34-7.83-4.6-.8,5.71,15.06,16.75,19.33,15.65,7.2-1.85-6.63-4.85-4.14-7.36,39.52,18.86,67.09,25.93,110.47,31.3v1.84c-6.33.19-6.22,3.08-7.83,3.68-2.98,1.12-13.12-.68-.46,3.22-3.09,9.19,3.1,13.22,11.97,12.43-.12.06.37,1.55-.46,1.84-3.11,1.1-6.8-1.77-11.51-.92-2.9.52-3.5.98-4.6,3.68-.09.23-1.72-.46,0,1.84.39.51,1.73,1.77,1.84,1.84-8.11,10.8-8.77,7.46-15.65,11.05q-1.15-2.3-2.3-4.6c-12.44,5.03-.73,1.17-6.9,8.29-12.92,3.76-10.47,4.36-11.05,4.6-6.43,2.76-7.36,5.41-7.83,5.52-2.61.62-32.07-2.07-37.28-2.76,1.4-1.76,3.04-.31,5.52-1.84.43-.27,7.29-6.41,7.36-6.9.06-.38-2.7-2.02-2.76-3.22,17.87-8.88-5.36-16.97-5.52-22.55-.06-2.05,20.53-19.92,2.3-17.03.13,6.08-12.08-.32-13.35,5.98-.98,4.86,5.27,1.93,6.44,4.6.45,1.02-.41,4.4,0,5.98-2.9-3.86-7.75,2.84-4.14,5.52.24.17-.34-2.24,5.06.92.17.1.38,1.42,2.76,2.76,3.48,6.13-9.03,10.57-13.81,11.05-1.09.11-4,.29-4.6-.46-1.28-1.59,9.61-1.48.92-5.98-3.06-1.59-1.31.53-1.84.92-4.4,3.24-3.65,5.72-10.13,2.3-.32,5.08,1.59,4.37,3.68,8.75-1.11-.09-.81.69-.92.92-.06.13-1.34-.38-.92,2.76-9.58-1.73-70.99-12.6-73.65-16.11-.13-.17,1.94-3.99-.46-4.14-1.7-.11,4.74,7.09-32.22-2.76-12.46-3.32-46.19-18.46-48.79-18.41-.35,0-4.57,2.8-5.98,3.68-.91-13.46,3.69-13.76,5.52-16.57.09-.14,1.71.1,2.3,0,1.46-1.71-.51-1.76-.46-1.84.28-.44-3.47-1.6,6.44-6.9-1.04-9.58,8.26-9.31,23.94-16.11,1.85-.8,4.75-.49,4.6-3.68,8.2-4.99,20.13-10.71,29.46-12.89,2.2,9.95,17.21,2.02,10.13-5.52,20.6-7.73,42.63-13.21,63.52-20.25Z"/>
          <g>
            <path class="cls-106" d="m167.37,221.98c2.55,1.19,4.86,2.49,7.36,3.68-2.49,2.51,11.34,5.52,4.14,7.36-4.27,1.1-20.13-9.94-19.33-15.65,5.04,4.94,7.41,4.41,7.83,4.6Z"/>
            <path class="cls-52" d="m157.71,279.98c9.01-.43,10.36,17.11.92,18.41-14.04,1.94-14.05-17.79-.92-18.41Z"/>
            <path class="cls-112" d="m166.91,253.28c6.42-.88-1.66,6.94,4.6,11.05,6.67,4.38,18.45-11.4,8.29,6.44-5.39-2.79-6.32,2.46-7.36,2.76-4.88-3.77-7.75,6.5-4.6-6.44-.75-.37-10.11,6.9-12.43,1.38-1.42-3.39,6.25-6.1,7.36-7.36.29-.33,1.25-7.43,4.14-7.83Z"/>
            <path class="cls-92" d="m127.33,192.52c11.38-1.32,10.91,14.67,4.6,16.57-14.99,4.51-14.76-15.39-4.6-16.57Z"/>
            <path class="cls-52" d="m138.37,216.46c2.05,2.66,10.35.9,10.59,1.38,4.81,9.47-4.8,13.81-6.9,13.35-.66-.14,1.5-3.3-11.51-5.06,9.12-3.59,7.12-9.2,7.83-9.67Z"/>
            <path class="cls-54" d="m95.56,246.84c-.29,1.13-2.12,4.24-3.68,4.6-6.54-2.08-6.93-2.72-12.89-6.9,7.85-1.96,9.21-5.97,10.59-5.98.64,0,7.67,1.64,5.98,8.29Z"/>
            <path class="cls-105" d="m101.09,256.96c-3.3,12.8-3.68,5.71-5.06,6.44-.48.25-5.48,6.65-6.9,8.29l-9.21.92c6.03-4.34,1.6-2.74,1.84-4.14,1.1-6.34,6.2-2.7,8.75-4.14,1.97-1.12,7.43-8.57,8.75-9.21l1.84,1.84Z"/>
            <path class="cls-114" d="m103.39,238.55c13.62-4.54,11.55,15.06,0,11.05-3.98-1.38-4.77-9.46,0-11.05Z"/>
            <path class="cls-105" d="m54.14,272.61c1.53-1.95.35-2.33-1.84-1.84-.86.19-2.85,5.9-8.29-3.22,17.13-11.96,20.66,2.75,10.13,5.06Z"/>
            <path class="cls-67" d="m258.97,279.98c8.58-2.2,8.85,8.16,2.76,9.21-6.94,1.2-8.36-7.77-2.76-9.21Z"/>
            <path class="cls-29" d="m218.93,297.47v-1.84c.47-2.66-1.41-3.24-.46-3.68,6.04,1.52,9.08-4.34,7.36,9.21-5.63-3.35-3.52.97-6.9-3.68Z"/>
            <path class="cls-14" d="m258.51,297.47c-.25.13-.31,2.87-3.22,4.6-1.39.35-1.17-2.32-5.98-.92,6.18-7.12-5.54-3.25,6.9-8.29q1.15,2.3,2.3,4.6Z"/>
            <path class="cls-112" d="m133.31,290.11c.37-4.82,3.79-5.17,3.68-10.13,21.37-5.05,3-.16-3.68,10.13Z"/>
            <path class="cls-32" d="m193.15,273.53c.42,1.63,1.39,1.25.92,6.44-5.4-3.16-4.83-.75-5.06-.92-3.61-2.68,1.24-9.38,4.14-5.52Z"/>
            <path class="cls-7" d="m89.12,271.69c-.15.18.15.74,0,.92-.15.18.15.74,0,.92-4.85,5.61-5.43,6.66-9.21-.92l9.21-.92Z"/>
            <path class="cls-73" d="m107.07,275.38c4.08-.83,5.45,5.08,4.6,5.52-9.22.57-6.68-5.1-4.6-5.52Z"/>
            <path class="cls-111" d="m91.88,251.44c1.57-.36,3.4-3.48,3.68-4.6,6.44,8.22,4.78,7.3-3.68,4.6Z"/>
            <path class="cls-36" d="m202.82,268.93c3.86-1.72,5.86,4.21,2.76,5.52-2.58,1.1-6.14-4.02-2.76-5.52Z"/>
            <path class="cls-14" d="m210.18,279.06c7.68-4.27,7.44,9.1.92,3.68-.33-.27-1.26-3.49-.92-3.68Z"/>
            <path class="cls-93" d="m55.52,250.52c3.46-1.34,5.41,3.73,2.76,4.6-3.97,1.31-5.65-3.49-2.76-4.6Z"/>
            <path class="cls-35" d="m132.85,234.87c3.22-1.07,3.35,4.05,1.84,4.6-3.08,1.12-4.52-3.71-1.84-4.6Z"/>
            <path class="cls-36" d="m121.8,214.62c2.78-1.88,5.27,2.82,2.76,3.68-2.53.87-4.34-2.61-2.76-3.68Z"/>
            <path class="cls-20" d="m149.42,238.55c1.8-.43,3.25,2.76,1.84,3.68-2.94,1.93-4.66-3.01-1.84-3.68Z"/>
            <path class="cls-68" d="m89.12,273.53c.15-.18-.15-.74,0-.92l8.29,1.38-8.29-.46Z"/>
            <path class="cls-13" d="m216.62,262.49c1.66-.45,3.36,15.35-.46.46.13-.23.28-.41.46-.46Z"/>
            <path class="cls-19" d="m79.45,219.22c.47-.09,3.56,3.24.92,3.68-3.77.63-2.31-3.4-.92-3.68Z"/>
            <path class="cls-36" d="m73.01,249.6c3.05-.19,2.93,1.98,1.84,2.76-1.93,1.37-4.41-2.6-1.84-2.76Z"/>
            <path class="cls-24" d="m170.59,238.55c.86-.58,3.22.73,3.22,1.38,0,2.79-6.34.73-3.22-1.38Z"/>
            <path class="cls-96" d="m270.94,269.85c4.16-1.08,1.12,5.92-1.38,2.3-.42-.61.92-2.18,1.38-2.3Z"/>
            <path class="cls-42" d="m45.85,223.82c.75-2.24,2.9-2.65,4.6-3.68.14,3.19-2.75,2.88-4.6,3.68Z"/>
            <path class="cls-60" d="m103.39,199.89c3.43-.66,2.43,2.35.92,2.76-1.89.52-2.9-2.38-.92-2.76Z"/>
            <path class="cls-23" d="m186.24,236.71c2.08-1.13,3.28,1.98,1.84,2.76-2.08,1.13-3.28-1.98-1.84-2.76Z"/>
            <path class="cls-19" d="m142.06,247.76c.83-.45,3.24.61,3.22,1.38-.05,2.14-6.07.17-3.22-1.38Z"/>
            <path class="cls-17" d="m93.26,229.34c.54,0,2.4,2.07.46,3.22-1.99,1.18-2.26-3.22-.46-3.22Z"/>
            <path class="cls-34" d="m107.07,217.38c2.17-.36,2.73,2.46.92,2.76-2.17.36-2.73-2.46-.92-2.76Z"/>
            <path class="cls-19" d="m64.72,228.42c.47-.01,2.24,2.18.92,2.76-3.05,1.34-2.49-2.71-.92-2.76Z"/>
            <path class="cls-86" d="m254.37,260.65c.1,0,1.4,1.28,1.38,1.38-.72,4.48-6.38-1.66-1.38-1.38Z"/>
            <path class="cls-8" d="m38.95,234.87c1.97-.87,2.68,2.91.92,2.76-.57-.05-2.2-2.2-.92-2.76Z"/>
            <path class="cls-96" d="m49.99,240.39c.67-.49,2.97.07,2.3,1.38-.72,1.43-4.27.06-2.3-1.38Z"/>
            <path class="cls-59" d="m101.09,256.96l-1.84-1.84c.17-.08,3.59-.62,3.68-.46.34,1.88-1.46.81-1.84,2.3Z"/>
            <path class="cls-78" d="m272.32,284.58c-1.72-2.3-.09-1.61,0-1.84,2.49-.4,2.77,2.13,0,1.84Z"/>
            <path class="cls-22" d="m13.63,248.68l1.84-1.84c-.05.08,1.92.14.46,1.84-.59.1-2.21-.14-2.3,0Z"/>
            <path class="cls-75" d="m120.88,230.27c.32-.22,2.02-.15,2.3.46.69,1.52-5.28,1.56-2.3-.46Z"/>
            <path class="cls-4" d="m138.37,260.65c.77-.47,2.36,1.26,2.3,1.38-.7,1.53-4.36-.12-2.3-1.38Z"/>
            <path class="cls-5" d="m73.01,211.85c.33,0,2.03,1.32.46,2.3-1.75,1.1-2.05-2.3-.46-2.3Z"/>
            <path class="cls-70" d="m173.36,286.42c.1-.01,1.86,1.34.92,1.84-2.37,1.25-2.66-1.64-.92-1.84Z"/>
            <path class="cls-79" d="m75.77,260.65c1.38-.55,2.02,1.4.92,1.84-1.38.55-2.02-1.4-.92-1.84Z"/>
            <path class="cls-79" d="m67.49,222.9c1.38-.55,2.02,1.4.92,1.84-1.38.55-2.02-1.4-.92-1.84Z"/>
            <path class="cls-28" d="m54.14,272.61c-.64.14-1.82-1.09-1.84-1.84,2.19-.49,3.37-.11,1.84,1.84Z"/>
            <path class="cls-88" d="m165.07,248.68c1.38-.55,2.02,1.4.92,1.84-1.38.55-2.02-1.4-.92-1.84Z"/>
            <path class="cls-23" d="m109.83,205.41c1.38-.55,2.02,1.4.92,1.84-1.38.55-2.02-1.4-.92-1.84Z"/>
            <path class="cls-23" d="m249.77,272.61c1.38-.55,2.02,1.4.92,1.84-1.38.55-2.02-1.4-.92-1.84Z"/>
            <path class="cls-75" d="m120.88,238.55c2.37-1.25,2.66,1.64.92,1.84-.1.01-1.86-1.34-.92-1.84Z"/>
            <path class="cls-70" d="m163.23,273.53c1.38-.55,2.02,1.4.92,1.84-1.38.55-2.02-1.4-.92-1.84Z"/>
            <path class="cls-13" d="m47.23,231.19h.92l.46.46-.46.46-.46.46-.46.46-.46-.46v-.92l.46-.46Z"/>
            <path class="cls-84" d="m116.28,234.87h.92l.46.46v.92l-.46.46-.46-.46-.46-.46-.46-.46.46-.46Z"/>
            <path class="cls-5" d="m20.54,243.15l.46.46v.92l-.46.46h-.92l-.46-.46.46-.46.46-.46.46-.46Z"/>
            <path class="cls-112" d="m84.06,229.34h.92l.46.46-.46.46-.46.46-.46.46-.46-.46v-.92l.46-.46Z"/>
            <path class="cls-5" d="m40.79,259.72l.46.46v.92l-.46.46h-.92l-.46-.46.46-.46.46-.46.46-.46Z"/>
            <path class="cls-5" d="m43.55,260.65h.92l.46.46-.46.46-.46.46-.46.46-.46-.46v-.92l.46-.46Z"/>
            <path class="cls-13" d="m61.96,261.57l.46.46v.92l-.46.46h-.92l-.46-.46.46-.46.46-.46.46-.46Z"/>
            <path class="cls-13" d="m113.52,211.85h.92l.46.46-.46.46-.46.46-.46.46-.46-.46v-.92l.46-.46Z"/>
            <path class="cls-12" d="m142.06,262.49c.7,0,.7,2.76,0,2.76s-.7-2.76,0-2.76Z"/>
            <path class="cls-91" d="m112.6,199.89l.46.46.46.46.46.46-.46.46h-.92l-.46-.46v-.92l.46-.46Z"/>
            <path class="cls-12" d="m69.33,273.53l.46.46.46.46.46.46-.46.46h-.92l-.46-.46v-.92l.46-.46Z"/>
            <path class="cls-70" d="m174.28,278.14l.46.46.46.46.46.46-.46.46h-.92l-.46-.46v-.92l.46-.46Z"/>
            <path class="cls-86" d="m250.69,286.42h.92l.46.46-.46.46-.46.46-.46.46-.46-.46v-.92l.46-.46Z"/>
            <path class="cls-75" d="m218.93,297.47c-.1-.13-1.63.36-1.84-.46-.14-.52,1.82-1.27,1.84-1.38v1.84Z"/>
            <g>
              <path class="cls-115" d="m233.2,253.28c24.59-5.05,19.16,33.89-2.76,23.94-11.91-5.41-6.73-21.99,2.76-23.94Z"/>
              <path class="cls-62" d="m234.12,256.04c14.95-2.99,15.49,18.16,3.68,19.33-14.88,1.48-13.92-17.29-3.68-19.33Z"/>
            </g>
            <g>
              <path class="cls-32" d="m136.99,279.98c.11,4.95-3.32,5.31-3.68,10.13-9.85-.69-19.7-.88-13.81-14.27,2.89-6.57,17.26-6.39,17.49,4.14Z"/>
              <path class="cls-92" d="m126.41,273.53c8.95-.96,9.36,10.5,4.6,12.89-14.01,7.04-12.54-12.03-4.6-12.89Z"/>
            </g>
            <g>
              <path class="cls-50" d="m119.96,245c13.11-.96,11.14,19.56-2.76,15.65-6.54-1.84-4.26-15.14,2.76-15.65Z"/>
              <path class="cls-92" d="m118.12,246.84c9.99-3.08,11.48,14.71,0,11.97-5.08-1.21-3.74-10.82,0-11.97Z"/>
            </g>
          </g>
        </g>
        <g>
          <path class="cls-101" d="m439.87,299.31q2.76,5.52,5.52,11.05c-20.94,2.1-51.12,6.57-69.97,1.84,7.52-1.93,14.61-5.3,22.09-7.36.91-.09,1.86.1,2.76,0,1.2-.13,2.48.14,3.68,0-6.36,4.48,6,5.4.92,0,1.67-.2,2.22-.97,3.68-.92h10.59c.74-.59,1.25-1.7,2.3-1.84-.5,2.82,4.29,2.69,3.68,0,4.28-.62,11.03-2.61,14.73-2.76Z"/>
          <path class="cls-89" d="m403.97,304.83c.3-.03.62.04.92,0,5.08,5.4-7.29,4.48-.92,0Z"/>
          <path class="cls-33" d="m425.14,302.07c.61,2.69-4.18,2.82-3.68,0,4.29-.56,3.5.03,3.68,0Z"/>
        </g>
        <g>
          <path class="cls-115" d="m594.54,213.69c2.29.12,7.69,2.34,9.21,4.6,2.42,3.61,2.4,6.9.92,11.05-4.84,13.55-28.87,4.5-20.25-10.59,2.11-3.7,6.2-5.27,10.13-5.06Z"/>
          <path class="cls-92" d="m597.76,216.46c12.54,17.83-9.43,18.72-11.51,12.43-.59-1.78,1.52-9.73,1.84-10.13,2.01-2.51,7.09,1.33,9.67-2.3Z"/>
        </g>
        <g>
          <path class="cls-68" d="m493.27,267.09c.17.78-.44,1.89.92,1.84-2.04,4.29-1.55-.84-2.76.46-2.95,8.1,1.2,5.02.92,7.36-.24,2.03-2.7,8.39-5.06,7.83-2.72-.65,1.46-4.86-6.9.92-.29-.46-1.32-8.39-3.22-7.36-5.17,9.05-10.67,5.19-9.21,11.97-11.71,2.14-40.98,17.31-48.33,4.6,4.49-4.44.89-6.31,11.97-11.97,3.69,1.19,6.22,1.37,7.83,5.52,2.29-7.08,4.23-5.11,7.83-8.29,2.42-2.14,4.89-4.38,7.36-6.44,1.48-1.23.53-2.58,2.3-3.68,3.68,1.78,3.07.06,3.22,0,1.92-.75,10.37,4.91,15.65-17.49,6.8,2.46,7.38,7.04,7.83,7.36,1.38,1.01,8.84,2.45,9.21,2.76.57.5-.2,1.59.46,4.6Z"/>
          <g>
            <path class="cls-31" d="m494.19,268.93c-1.36.05-.75-1.07-.92-1.84,2.56-.08,1.67.26.92,1.84Z"/>
            <path class="cls-15" d="m427.44,290.11c4.94-.63,1.28,5.51-1.84,3.68-1.49-.87,1.47-3.63,1.84-3.68Z"/>
            <path class="cls-16" d="m480.84,261.57c.48-.34,3.26-.55,3.22,1.38-.05,2.77-6.3.8-3.22-1.38Z"/>
            <path class="cls-5" d="m449.54,291.95c2.37-1.25,2.66,1.64.92,1.84-.1.01-1.86-1.34-.92-1.84Z"/>
            <path class="cls-86" d="m474.4,275.38c1.17.83.5,4.05-.92,1.84-.58-.91.81-1.92.92-1.84Z"/>
            <path class="cls-86" d="m481.76,276.3h.92l.46.46v.92l-.46.46-.46-.46-.46-.46-.46-.46.46-.46Z"/>
          </g>
        </g>
        <g>
          <path class="cls-51" d="m411.33,263.41c9,3.18,8.39,19-.46,21.17-15.14,3.73-20.05-14.64-9.67-20.25,2.75-1.49,7.01-2.02,10.13-.92Z"/>
          <path class="cls-62" d="m407.19,265.25c10.35.29,9.56,19.1-2.76,16.57-7.37-1.52-7.54-16.86,2.76-16.57Z"/>
        </g>
        <g>
          <path class="cls-56" d="m499.71,243.15c15.39,16.37-18.94,25.03-13.81,5.52,2.86-10.85,12.15-5.15,13.81-5.52Z"/>
          <path class="cls-62" d="m494.65,245c1.01-1.68,6.91,5.48,6.9,5.98-.01,1.36-15.17,12.72-12.89-3.68l5.98-2.3Z"/>
        </g>
        <g>
          <path class="cls-63" d="m451.84,56.27c29.28,30.05,42.76,63.55,47.87,104.95-4.07-2.38.19-7.28-5.52-3.68-2.56-20.83-8.96-41.07-18.41-59.84-6.18-12.27-18.09-29.84-27.62-39.59l3.68-1.84Z"/>
          <path class="cls-116" d="m368.99,32.33c10.14-1.6,19.97-5.42,30.38-5.52-.92,5.47,2.46,3.71,6.44,1.84,13.84,6.23,31.73,18.6,42.35,29.46,9.53,9.75,21.44,27.32,27.62,39.59-4.56.66,6.66,23.37,9.21,34.52,4.34,19.01,9.05,52.95,2.76,71.35-2,.77-3.68,2.6-4.6,1.38,9.43-70.44-31.34-141.55-101.73-159.73-15.17-3.92-31.75-1.87-32.68-7.36,8.33.36,6.71-11.25,7.36-18.41,5.1,2.99,6.97,8.62,6.44,14.27.5.95,4.8-1.12,6.44-1.38Z"/>
          <path class="cls-63" d="m395.68,58.11c-23.2-9.86-36.45-11.82-61.68-10.13-4.28.29-8.62.19-12.89.92-13.76,2.35-23.65,6.64-35.9,12.89-33.82,17.24-59.59,47.66-69.05,84.7-5.11,20.02-5.54,40.73-3.68,61.22,3.52,3.87,8.14,4.73,12.89,5.98,1.18.31,1.75,1.51,6.44,1.84,35.66,14.64,75.19,15.79,113.23,15.65.39,0,.9.98,4.6.92,17.97-.31,35.6-2.2,53.4-4.6,12.7-1.72,25.3-3.27,37.74-6.44l.92,2.76c-61.08,15.33-158.06,16.18-217.72-4.6-5.49-1.91-17.07-9.39-22.55-8.29-.56-.31-1.3-.59-1.84-.92l1.84-4.6c1.97.8,3.7,2.56,4.6,1.38-.67-11.83-1.69-24.07-.92-35.9.66-10.19,4.75-20.42,3.68-30.38,6.67-9.16,9.19-20.61,14.73-30.38,17.58-30.98,52.2-57.87,87-65.82,4.19-.96,29.26-4.72,31.76-4.6,1.44.07.61,1.7,1.38,1.84.19.04,3.53-1.04,3.68-.92,2.37,1.89.8,3.97,1.84,4.6,2.1,1.27,38.13,2.62,46.49,12.89Z"/>
          <path class="cls-111" d="m342.29,33.26v6.44c-2.5-.11-27.57,3.65-31.76,4.6-34.8,7.95-69.42,34.85-87,65.82-5.54,9.77-8.06,21.22-14.73,30.38,1.07,9.96-3.02,20.19-3.68,30.38-.77,11.83.26,24.07.92,35.9-.9,1.18-2.64-.58-4.6-1.38-1.29-.53-.87-.88-.92-.92-5.46-33.3.94-67.74,17.49-97.12,4.54-8.06,12.23-14.62,14.73-23.48,1.7-.87,1.74-1.76,1.84-1.84,3.39-2.95,6.05-6.64,12.89-11.97,5.51-4.3,14.21-6.62,17.49-13.81.91-.33,1.81-.53,2.76-.92,2.6-1.08,5.03-3.22,8.29-4.6,22.68-9.67,40.88-16.65,66.28-17.49Z"/>
          <path class="cls-96" d="m507.08,167.66c11.38,3.03,27.79,8.24,30.38,21.17-6.38,5.24-6.16,12.81-18.41,21.17-.33-1.29-.67-4.08-1.84-4.6-.25-.11-.64.1-.92,0,.15-7.84-3.19-1.89-7.36-5.52-.17-.15.96-2.47-2.76-1.84,2.21-2.08,4.12-4.6,5.52-7.36,9.48-18.64-20.84-27.33-4.6-23.02Z"/>
          <path class="cls-46" d="m506.16,198.04c-1.02.95-2.53,1.89-3.68,2.76-4.09,3.11-13.4,7.72-18.41,10.13-1.85.89-3.65,1.94-5.52,2.76-4.14,1.81-8.64,3.07-12.89,4.6-4.59,1.65-9.12,3.25-13.81,4.6-3.3.95-3.48,1.79-3.68,1.84-66.28,17.87-160.8,17.14-226.01-4.6-4.43-1.48-16.39-8.52-19.79-8.29.1-1.12-.74-.82-.92-.92,5.49-1.1,17.06,6.37,22.55,8.29,59.66,20.79,156.64,19.93,217.72,4.6,24.89-6.25,50.9-15.42,69.97-33.14-1.41,2.77-3.31,5.29-5.52,7.36Z"/>
          <path class="cls-116" d="m475.78,97.7c9.46,18.77,15.85,39.01,18.41,59.84,1.43,11.64,6.37,41.13-6.44,46.03,6.29-18.4,1.58-52.33-2.76-71.35-2.55-11.15-13.77-33.86-9.21-34.52Z"/>
          <path class="cls-106" d="m232.74,83.89c-2.5,8.85-10.19,15.41-14.73,23.48-16.55,29.39-22.95,63.82-17.49,97.12-4.33-3.8-3.89-4.14-4.6-10.59-2.28-20.72,1.24-43.88,6.44-63.98,4.72-4.65,5.78-13.94,9.21-19.79,4.88-8.34,18.88-19.88,17.49-24.4.73-2.64,3.15-1.57,3.68-1.84Z"/>
          <path class="cls-106" d="m399.37,25.89v.92c-10.41.1-20.24,3.92-30.38,5.52,1.72-10.91-7.85-11.28-9.21-16.57,9.92.56,29.9,6.38,39.59,10.13Z"/>
          <path class="cls-111" d="m199.59,225.66c-5.1,4.85,3.12,3.13.92,5.52-4.45-1.67-9.44-2.54-13.81-4.6-9.25-4.36-18.35-9.53-24.86-17.49,13.21,3.92,24.95,11.76,37.74,16.57Z"/>
          <path class="cls-1" d="m359.78,15.76c1.36,5.29,10.93,5.66,9.21,16.57-1.64.26-5.94,2.33-6.44,1.38.52-5.65-1.34-11.28-6.44-14.27.23-2.5-.25-2.04,1.84-3.68.61,0,1.23-.03,1.84,0Z"/>
          <path class="cls-110" d="m352.41,15.76c.97,6.22,3.5,19.54-3.68,17.49-.3-5.65.22-11.38,0-17.03.56-.95,2.68-.24,3.68-.46Z"/>
          <path class="cls-78" d="m357.94,15.76c-2.09,1.64-1.61,1.18-1.84,3.68-.65,7.16.97,18.77-7.36,18.41-.23-1.34.08-3.11,0-4.6,7.18,2.05,4.65-11.27,3.68-17.49,1.21-.26,3.85-.02,5.52,0Z"/>
          <path class="cls-78" d="m245.62,238.55c3.36.71,3.7,1.53,5.52,1.84,10.44,1.76,23.93,5.62,21.17-1.38,7.69-3.43-3.11,6.31,12.89,5.98.98-.02,3.63-1.22,5.52-.92,7.45,4.47,19.92,4.05,29.46,4.6,4.52,4.41,1.06,4.06-2.76,5.52-39.93-2.36-79.43-8.96-116.92-23.02,2.2-2.39-6.02-.68-.92-5.52,14.81,5.57,30.75,9.66,46.03,12.89Z"/>
          <path class="cls-10" d="m515.36,218.3c-20.75,12.42-66.67,24.86-91.14,29.46q.46-2.76.92-5.52c5.18-1.01,10.53-2.37,15.65-3.68,10.7-2.73,36.77-11.5,47.87-15.65,8.64-3.23,16.56-5.52,24.86-10.13l1.84,5.52Z"/>
          <path class="cls-25" d="m537.46,188.84c2.59,12.96-12.03,23.43-22.09,29.46l-1.84-5.52c1.67-.93,3.88-1.64,5.52-2.76,12.25-8.36,12.03-15.94,18.41-21.17Z"/>
          <path class="cls-58" d="m347.81,249.6c-3.93.57-13.95.1-9.21,5.52-7.15-.12-14.05-.5-21.17-.92,3.82-1.47,7.28-1.11,2.76-5.52,9.16.53,18.44.79,27.62.92Z"/>
          <path class="cls-104" d="m334,47.98c-61.34,36.39-93.51,97.64-101.27,167.55-.31-.01-.62.02-.92,0-4.69-.34-5.26-1.53-6.44-1.84-11.21-60.18,16.56-119.35,68.59-150.98,8.69-5.28,19.84-8.62,27.16-13.81,4.26-.73,8.6-.63,12.89-.92Z"/>
          <g>
            <path class="cls-114" d="m436.19,84.81c3.71,9.84,5.68,20.21,10.13,28.08,1.4,16.17-4.29,25.61-7.36,38.67-.46,1.94.47,5.53,0,7.36-7.44,28.82-16.41,46.06-35.9,68.59-17.8,2.4-35.42,4.29-53.4,4.6,5.95-6.42-7.15-9.9-4.6-.92-38.05.14-77.58-1.01-113.23-15.65.3.02.61-.01.92,0,19.58.76,39.37-7.81,58.46-7.36,2.45-3.27,17.89-9.65,20.25-6.44.86-5.91,17.9-10.2,26.7-15.65,14.55-9.01,53.24-41.76,63.98-54.78,9.28-11.25,16.28-26.09,17.49-27.16-4.42,12.32,8.46,8.59,8.29,4.14-.02-.55-3.13-6.82-7.36-4.14,1.75-30.31-13.26-28.46-20.25-43.27,17.81,8.44,21.56,10.48,35.9,23.94Z"/>
            <g>
              <path class="cls-111" d="m419.62,104.14c.17-.15.7.14.92,0,4.23-2.67,7.34,3.59,7.36,4.14.17,4.45-12.71,8.17-8.29-4.14Z"/>
              <path class="cls-11" d="m432.97,121.63c3.91,15.72,2.76,4.47-3.68,16.57-5.33-11.68-9.87,4.27-3.68-15.65,2.79,2.63,4.92,1.77,7.36-.92Z"/>
              <path class="cls-73" d="m348.27,191.6l2.3.46c4.21,12.54.47,3.48-3.22,15.19-2.06-3.67-1.63-6.44-6.44-5.52,1.4-15.08.93-5.46,7.36-10.13Z"/>
              <path class="cls-78" d="m427.44,153.85c.04,6.86,5.07,7.32,5.06,7.83-.03,1.39-6.55-.91-6.9,7.83l-6.9-7.83c3.73-9.76,2.87-2.39,8.75-7.83Z"/>
              <path class="cls-11" d="m409.03,135.44c2.82,3.33,5.68-.56,6.44,0,3.83,2.83-.51,9.02-2.76,11.97-4.34-7.24-7.12.47-3.68-11.97Z"/>
              <path class="cls-11" d="m405.35,173.19c.74.49,1.91,9.97-1.84,10.13-4.71.2-2.31-12.89,1.84-10.13Z"/>
              <path class="cls-111" d="m349.65,232.11c-3.7.06-4.21-.92-4.6-.92-2.54-8.98,10.55-5.5,4.6.92Z"/>
              <path class="cls-38" d="m376.81,193.44c3.3,2.23-1.71,10.36-4.14,5.98-2.03-3.65,3.77-6.24,4.14-5.98Z"/>
              <path class="cls-38" d="m441.25,112.43c.88.38,1.76,6.01-.92,6.44-3.35.54-3.69-8.47.92-6.44Z"/>
              <path class="cls-11" d="m330.78,202.65c2.39,1.61-.83,7.07-2.76,5.52-3.99-3.2,2.15-5.94,2.76-5.52Z"/>
              <path class="cls-38" d="m324.34,209.09c2.62.43,1.98,4.52,0,4.6-2.69.11-4.24-5.29,0-4.6Z"/>
              <path class="cls-81" d="m329.86,223.82c2.16.07,1.94,5.22-.92,4.6-2.76-.6-.09-4.64.92-4.6Z"/>
              <path class="cls-38" d="m401.67,198.04c.54,2.44,2.28,1.75,2.3,2.3.07,1.86-7.97,4.95-2.3-2.3Z"/>
              <path class="cls-74" d="m302.24,208.17c2.2-.29,2.2,4.89,0,4.6-1.78-.23-1.78-4.37,0-4.6Z"/>
              <path class="cls-98" d="m406.27,152.01c2.04.11,1.79,2.31.92,2.76-1.79.93-2.82-2.87-.92-2.76Z"/>
              <path class="cls-97" d="m374.97,171.35c.69-.09,3.61,2.37.92,2.76-2.27.33-2.64-2.54-.92-2.76Z"/>
              <path class="cls-95" d="m298.56,213.69c.33,0,2.03,1.32.46,2.3-1.75,1.1-2.05-2.3-.46-2.3Z"/>
            </g>
          </g>
          <g>
            <path class="cls-50" d="m440.79,221.06c-12.44,3.17-25.05,4.73-37.74,6.44,19.49-22.53,28.46-39.77,35.9-68.59.47-1.84-.46-5.43,0-7.36,3.08-13.06,8.76-22.49,7.36-38.67-4.45-7.87-6.42-18.24-10.13-28.08,34.53,32.4,45.75,76.41,40.51,122.9-1,2.78-31.25,12.16-35.9,13.35Z"/>
            <path class="cls-73" d="m450.46,140.97c10.49,19.22,3.9,2.73,0,18.41-3.12-9.64-7.59-5.39-8.75-6.9,5.42-3.77,1.98-6.05,2.76-7.36.9-1.52,4.53,3.82,5.98-4.14Z"/>
            <path class="cls-63" d="m442.17,192.52c4.66-.73,5.48,6.25,1.84,7.36-5.54,1.7-6.57-6.63-1.84-7.36Z"/>
          </g>
          <path class="cls-40" d="m171.98,209.09c-8.38-11.24-18.37-23.1-1.84-32.22-8.64,16.24,19.52,35.11,1.84,32.22Z"/>
          <path class="cls-111" d="m440.79,238.55c-5.12,1.31-10.47,2.67-15.65,3.68-4.28.84-8.6,1.19-12.89,1.84-.68-2.37-3.81-8.65-.46-10.13,7.64-3.37,8.94,7.6,11.97,7.36,1.46-.11,13.03-25.06,17.03-2.76Z"/>
          <path class="cls-78" d="m508.92,199.89v.92c-7.66,2.81,1.68,19.28,8.29,4.6,1.17.52,1.51,3.31,1.84,4.6-1.64,1.12-3.86,1.84-5.52,2.76-8.3,4.6-16.22,6.9-24.86,10.13v-1.84c8.55-3.25,6.1-5.2,6.44-5.52.28-.26,1.32,1.16,3.68-1.84,1.28-1.64,3.78-1.85,0-6.44,1.05-.5,6.64-.58,3.68-6.44,1.15-.87,2.67-1.81,3.68-2.76,3.73-.62,2.59,1.69,2.76,1.84Z"/>
          <path class="cls-112" d="m498.79,207.25c-1.17.56-15.47,3.03-3.68,8.29-.34.32,2.1,2.27-6.44,5.52.33-2.15-.99-3.76-1.84-5.52,1.78-.25.54-2.11,0-2.76-1.16-1.39-2.12-.32-2.76-1.84,5.01-2.41,14.32-7.02,18.41-10.13,2.96,5.87-2.63,5.94-3.68,6.44Z"/>
          <path class="cls-61" d="m321.11,48.91c-7.31,5.19-18.47,8.53-27.16,13.81-52.02,31.63-79.79,90.8-68.59,150.98-4.75-1.25-9.36-2.11-12.89-5.98-1.86-20.49-1.43-41.2,3.68-61.22,5.05.29,1.66-2.16,1.84-2.3,2.83-2.28,5.14,1.23,7.36-1.84,2.45-3.38,4.8-31.73,46.49-67.66,3.27-2.82,20.56-9.93,13.35-12.89,12.25-6.25,22.14-10.54,35.9-12.89Z"/>
          <path class="cls-61" d="m285.21,61.79c7.21,2.96-10.08,10.07-13.35,12.89-41.69,35.93-44.04,64.29-46.49,67.66-2.23,3.07-4.53-.43-7.36,1.84-.18.15,3.21,2.59-1.84,2.3,9.45-37.04,35.22-67.45,69.05-84.7Z"/>
          <path class="cls-109" d="m276,50.75c-3.25,1.39-5.69,3.52-8.29,4.6-.44-2.97-3.55-8.4-3.68-11.05,3.85,1.37,12.95,1.6,11.97,6.44Z"/>
          <g>
            <path class="cls-106" d="m342.29,33.26c-25.4.84-43.6,7.82-66.28,17.49.98-4.84-8.11-5.07-11.97-6.44-.12-2.42,2.16-2.38,1.84-4.6,22.52-14.28,49.79-24.09,76.41-24.4v17.95Z"/>
            <path class="cls-3" d="m275.54,37.86c.88-.62,6.84-.75,6.9,3.22.07,4.56-12.21.53-6.9-3.22Z"/>
          </g>
          <g>
            <path class="cls-2" d="m264.04,44.3c.13,2.64,3.25,8.07,3.68,11.05-.95.4-1.85.59-2.76.92-6.08,2.18-3.99,4.28-12.43,0,10.58,12.22-6.98,4.9-5.06,13.81-6.83,5.33-9.5,9.02-12.89,11.97-13.54-7.58-5.75,2.96-5.52,3.68,1.39,4.52-12.61,16.05-17.49,24.4-3.42,5.85-4.48,15.14-9.21,19.79,9.84-38.06,29.94-68.92,63.52-90.22.32,2.22-1.96,2.18-1.84,4.6Z"/>
            <path class="cls-106" d="m264.96,56.27c-3.28,7.19-11.98,9.51-17.49,13.81-1.91-8.91,15.64-1.59,5.06-13.81,8.44,4.28,6.35,2.18,12.43,0Z"/>
            <path class="cls-106" d="m234.58,82.05c-.1.09-.14.97-1.84,1.84-.53.27-2.95-.8-3.68,1.84-.22-.73-8.02-11.26,5.52-3.68Z"/>
            <path class="cls-109" d="m242.4,65.48c5.62-1.45-2.56,9.09-5.52,8.29-3.51-.96,4.95-8.14,5.52-8.29Z"/>
          </g>
          <path class="cls-112" d="m508.92,200.81c-.49,3.91,4.69,7.48,7.36,4.6.28.1.67-.11.92,0-6.6,14.68-15.94-1.79-8.29-4.6Z"/>
          <path class="cls-51" d="m516.28,205.41c-2.67,2.88-7.85-.69-7.36-4.6v-.92c4.18,3.63,7.52-2.32,7.36,5.52Z"/>
          <g>
            <path class="cls-113" d="m180.26,195.28c-.15-.14-3.07-1.78-3.68-1.84-4.89-.19-3.38-19.12-6.44-17.49,1.99-1.15,18.81-9.67,19.33-8.75,3.05,5.37-21.35,7.01-9.21,28.08Z"/>
            <path class="cls-60" d="m177.04,173.19c.52-.17,1.13-.1,1.38.46.87,1.94-11.19,10.68-1.38-.46Z"/>
          </g>
          <g>
            <path class="cls-61" d="m395.68,58.11c3.32,1.41,4.36,2.65,4.6,2.76,6.99,14.81,22.01,12.95,20.25,43.27-.22.14-.75-.15-.92,0-1.21,1.07-8.21,15.91-17.49,27.16-10.75,13.02-49.43,45.77-63.98,54.78-8.8,5.45-25.83,9.74-26.7,15.65-2.37-3.21-17.8,3.18-20.25,6.44-19.09-.44-38.88,8.13-58.46,7.36,7.76-69.92,39.93-131.16,101.27-167.55,25.23-1.69,38.48.27,61.68,10.13Z"/>
            <g>
              <path class="cls-66" d="m288.43,152.01c7.99,1.87,9.27,3.15,4.6,11.05-7.9-7.49-6.8,4.47-4.6-11.05Z"/>
              <path class="cls-38" d="m351.03,163.98c3.44-.48,5.2,5.64,1.84,6.44-4.68,1.12-5.65-5.91-1.84-6.44Z"/>
              <path class="cls-90" d="m364.84,116.11c1.88.66,3.04,3.69,2.3,5.06-3.29,6.17-7.5-6.89-2.3-5.06Z"/>
              <g>
                <path class="cls-85" d="m279.69,129.92c6.18.87,5.38-4.39,0-3.68,6.61-9.26,7.73,13.23,0,3.68Z"/>
                <path class="cls-111" d="m279.69,129.92c-1.36-1.69-1.23-1.95,0-3.68,5.38-.71,6.18,4.55,0,3.68Z"/>
              </g>
              <path class="cls-85" d="m312.37,137.28c2.31-1.67,4.74,2.25,2.76,3.68-2.31,1.67-4.74-2.25-2.76-3.68Z"/>
              <path class="cls-85" d="m336.3,142.81c2.31-1.67,4.74,2.25,2.76,3.68-2.31,1.67-4.74-2.25-2.76-3.68Z"/>
              <path class="cls-76" d="m247.93,170.43c1.8-.43,3.25,2.76,1.84,3.68-2.94,1.93-4.66-3.01-1.84-3.68Z"/>
              <path class="cls-97" d="m307.77,189.76c1.8-.43,3.25,2.76,1.84,3.68-2.94,1.93-4.66-3.01-1.84-3.68Z"/>
              <path class="cls-100" d="m242.4,181.47c3.01-1.9,2.87,4.61.92,4.6-1.12,0-2.17-3.81-.92-4.6Z"/>
              <path class="cls-85" d="m322.49,131.76c2.43-1.27,3.15,2.77,1.84,3.68-1.25.87-3.49-2.82-1.84-3.68Z"/>
              <path class="cls-97" d="m288.43,94.02c2.38-.53,2.95,3.4.92,3.68-1.27.18-3.67-3.07-.92-3.68Z"/>
              <path class="cls-77" d="m341.83,57.19c2.17-.36,2.73,2.46.92,2.76-2.17.36-2.73-2.46-.92-2.76Z"/>
              <path class="cls-97" d="m289.35,114.27c3.05-1.34,2.49,2.71.92,2.76-.47.01-2.24-2.18-.92-2.76Z"/>
              <path class="cls-117" d="m295.8,101.38c1.79-.93,2.82,2.87.92,2.76-2.04-.11-1.79-2.31-.92-2.76Z"/>
              <path class="cls-76" d="m299.48,176.87c3.43-.42.21,5.06-1.38,2.3-.07-.12,1.25-2.29,1.38-2.3Z"/>
              <path class="cls-97" d="m367.6,85.73c.67-.49,2.97.07,2.3,1.38-.72,1.43-4.27.06-2.3-1.38Z"/>
              <path class="cls-18" d="m339.99,153.85c.67-.49,2.97.07,2.3,1.38-.72,1.43-4.27.06-2.3-1.38Z"/>
              <path class="cls-18" d="m240.56,191.6c1.94-.87,1.94,3.64,0,2.76-.74-.33-.74-2.43,0-2.76Z"/>
              <path class="cls-117" d="m262.66,155.7c.57.05,2.2,2.2.92,2.76-1.97.87-2.68-2.91-.92-2.76Z"/>
              <path class="cls-97" d="m295.8,124.4c1.38-.55,2.02,1.4.92,1.84-1.38.55-2.02-1.4-.92-1.84Z"/>
              <path class="cls-117" d="m306.84,129.92l.46.46.46.46.46.46-.46.46h-.92l-.46-.46v-.92l.46-.46Z"/>
              <path class="cls-87" d="m330.78,60.87l.46.46.46.46.46.46-.46.46h-.92l-.46-.46v-.92l.46-.46Z"/>
            </g>
          </g>
          <g>
            <path class="cls-106" d="m176.58,193.44q5.98,6.9,11.97,13.81c-3.02-.27-9.5,1.49-9.21,5.06.66,8.12,15.98-2.74,21.63,2.3l-.46-1.84c-.06-1.24.86-.85,1.84-.92,3.41-.23,15.36,6.81,19.79,8.29,65.21,21.74,159.73,22.47,226.01,4.6-.99,8.9,13.11,7.31,3.68-1.84,4.69-1.36,9.22-2.95,13.81-4.6.27,1.46,2.85,1.48,3.68,1.84l-.92,1.38c.66.93,1.94.22,2.76.46,6.75,1.94,2.24,2.27,4.14,3.68.33.24,7.69-1.92,7.83-2.3.19-.55-5.88-2.35-4.6-9.67,1.88-.82,3.68-1.87,5.52-2.76.64,1.53,1.61.45,2.76,1.84-4.39,2.76-.1,2.55,0,2.76.85,1.76,2.17,3.38,1.84,5.52v1.84c-11.1,4.15-37.17,12.92-47.87,15.65-4-22.3-15.57,2.65-17.03,2.76-3.03.24-4.33-10.73-11.97-7.36-3.35,1.48-.22,7.75.46,10.13-26.6,4.04-49.39,3.34-64.44,5.52-9.18-.13-18.46-.39-27.62-.92-9.54-.56-22.01-.13-29.46-4.6-.43-.26-3.88-8.15-5.52.92-16,.32-5.2-9.41-12.89-5.98,2.76,7-10.74,3.14-21.17,1.38-.97-8.08-5.5-9.17-5.52-1.84-15.28-3.23-31.22-7.32-46.03-12.89-12.79-4.81-24.53-12.65-37.74-16.57-6.58-8.06-9.85-11.74-4.6-22.09,2.68,5.57,7.53,20.92,14.73,22.09,17.68,2.89-10.48-15.98-1.84-32.22.12-.23-.09-.65,0-.92,3.07-1.63,1.55,17.3,6.44,17.49Z"/>
            <g>
              <path class="cls-3" d="m170.13,175.95c-.09.27.12.69,0,.92-16.53,9.12-6.54,20.98,1.84,32.22-7.2-1.18-12.05-16.53-14.73-22.09,3.59-7.09,6.98-7.64,12.89-11.05Z"/>
              <path class="cls-3" d="m180.26,195.28c6.75,6.4,11.38,9.91,19.33,14.73.54.33,1.29.61,1.84.92.18.1,1.02-.2.92.92-.98.07-1.9-.32-1.84.92-4.13-.38-8.5-5.21-11.97-5.52q-5.98-6.9-11.97-13.81c.62.06,3.53,1.7,3.68,1.84Z"/>
              <path class="cls-16" d="m188.55,207.25c3.46.31,7.84,5.14,11.97,5.52l.46,1.84c-5.65-5.05-20.98,5.82-21.63-2.3-.29-3.57,6.19-5.33,9.21-5.06Z"/>
              <path class="cls-105" d="m478.54,213.69c-1.28,7.32,4.79,9.12,4.6,9.67-.13.39-7.5,2.54-7.83,2.3-1.9-1.41,2.61-1.74-4.14-3.68-.1-1.06-.99-1.47-1.84-1.84-.84-.36-3.41-.38-3.68-1.84,4.25-1.53,8.75-2.79,12.89-4.6Z"/>
              <path class="cls-16" d="m204.66,214.62c.71-.05,12.46,6.19,12.43,6.9-19.66,6.39-19.27-6.45-12.43-6.9Z"/>
              <path class="cls-111" d="m327.1,238.55c6.54-3.38,7.82,7.95,2.76,8.29-3.2.21-5.47-6.89-2.76-8.29Z"/>
              <path class="cls-111" d="m448.16,224.74c.2-.05.39-.89,3.68-1.84,9.43,9.16-4.67,10.74-3.68,1.84Z"/>
              <path class="cls-6" d="m363,239.47c7.47-2.28-3.36,9.99-5.98,4.14-3.4-7.6,3.76-.39,4.14-.46.5-.09,1.3-3.52,1.84-3.68Z"/>
              <path class="cls-78" d="m251.15,240.39c-1.82-.31-2.16-1.13-5.52-1.84.02-7.33,4.56-6.24,5.52,1.84Z"/>
              <path class="cls-60" d="m290.73,244.07c-1.89-.3-4.54.9-5.52.92,1.64-9.07,5.09-1.18,5.52-.92Z"/>
              <path class="cls-33" d="m486.82,215.54c-.1-.21-4.39,0,0-2.76.54.65,1.78,2.51,0,2.76Z"/>
              <path class="cls-28" d="m471.17,221.98c-.82-.24-2.1.47-2.76-.46l.92-1.38c.86.37,1.75.78,1.84,1.84Z"/>
              <path class="cls-78" d="m461.51,223.82c.11-.08,1.5.93.92,1.84-1.42,2.2-2.09-1.01-.92-1.84Z"/>
              <g>
                <path class="cls-39" d="m222.15,225.66c2.82-1.33,5.64,2.24,3.68,4.6-3.07,3.7-7.84-2.65-3.68-4.6Z"/>
                <path class="cls-108" d="m223.99,227.5h.92l.46.46-.46.46-.46.46-.46.46-.46-.46v-.92l.46-.46Z"/>
              </g>
            </g>
          </g>
          <g>
            <path class="cls-55" d="m498.79,207.25c3.78,4.59,1.28,4.81,0,6.44,2.68-4.19-4.98-6.3-5.52-2.3-.3,2.24,4.4,4.07,5.52,2.3-2.36,3.01-3.4,1.58-3.68,1.84-11.79-5.26,2.51-7.73,3.68-8.29Z"/>
            <path class="cls-99" d="m498.79,213.69c-1.13,1.77-5.83-.06-5.52-2.3.54-4,8.2-1.89,5.52,2.3Z"/>
          </g>
        </g>
        <g>
          <path class="cls-106" d="m474.86,251.44c-.09,1.08.59.8.92.92-5.28,22.4-13.73,16.74-15.65,17.49l-4.14-.92c6.16-5.18-3.6-4.7-1.38.46-.98.99-2.63-.89-4.14.46-10.53,9.39,5.89-2.28,4.14,3.68-2.48,2.06-4.94,4.3-7.36,6.44-6.59-1.7-6.93-7.34-7.83-7.36-5.75,8.92-8.55-.26-7.83,10.13-11.07,5.66-7.48,7.53-11.97,11.97-1.51,1.49-8.75,4.99-11.05,9.21-1.46-.04-2.01.73-3.68.92-.3.04-.62-.03-.92,0-1.2.14-2.48-.13-3.68,0-1.49-2.44,9.21-8.47,12.43-14.73q-11.74,7.36-23.48,14.73c-12.38,1.49-18.15,3.16-28.54,11.05-.6.06-1.24-.05-1.84,0-10.64.96-45.49.38-58.92,0-7.43-.21-60.27-2.21-63.06-3.68-2.14-1.13,4.1-5.6,1.38-6.44.58-.25-1.87-.85,11.05-4.6,4.81-1.4,4.59,1.27,5.98.92,2.91-1.73,2.97-4.47,3.22-4.6,6.88-3.59,7.54-.24,15.65-11.05.26.16,3.26-.34,5.06.92,1.65,1.16,2.12,3.04,3.22,3.68-.09.9.15,1.88,0,2.76-1.65,9.51-8.75.75-10.13,3.22-.52.93,4.4,5.54,3.22,10.59,10.02-1.48,5.87,1.87,7.83-13.81.09-.69.12-1.02.92-.92,1.53.85,4.36.45,5.52.92.38.15,3.31,6.14,6.44,2.3,3.03-3.71-5.18-4.81-5.52-5.06-5.43-4-11.75-6.29-13.81-11.97,4.71-.84,8.4,2.03,11.51.92.83-.29.34-1.78.46-1.84,11.48-5.8,8.44-19.69-3.68-19.33v-1.84c.3.04.62-.04.92,0,26.61,3.21,38.2,4.09,65.36,3.68,6.67,6.62,36.02,3.28,49.71,2.76v.92c-10.38,5.61-5.48,23.98,9.67,20.25,8.85-2.18,9.46-18,.46-21.17,7.03-2.6,14.77-2.5,22.09-3.68,6.75-1.09,13.93-3.95,20.71-3.68.23,0,3.2,2.92,3.68,2.76,2.05-.66.89-3.97,1.84-4.6,1.79-1.19,5.6,2.51,7.36,1.84.55-.21-7.14-.31,7.83-4.6Z"/>
          <g>
            <path class="cls-105" d="m276.92,279.06c2.06,5.67,8.38,7.97,13.81,11.97l-.92,2.76c-1.16-.47-4-.07-5.52-.92-.16-.09-.37-.98-1.84-1.84-1.1-.64-1.57-2.52-3.22-3.68-1.8-1.26-4.8-.76-5.06-.92-.11-.07-1.46-1.33-1.84-1.84,2.77.28,2.49-2.25,0-1.84,1.1-2.7,1.71-3.16,4.6-3.68Z"/>
            <path class="cls-112" d="m390.16,284.58c1.39-4.58-4.59-4.15-2.76,0-7.92-.72-19.64-15.91,5.98-11.97,1,.71.27,11.34-3.22,11.97Z"/>
            <path class="cls-78" d="m282.45,293.79h.92c-1.95,15.68,2.19,12.32-7.83,13.81,1.18-5.04-3.74-9.66-3.22-10.59,1.37-2.47,8.48,6.29,10.13-3.22Z"/>
            <path class="cls-101" d="m321.57,302.07c5.17,11.63,1.8,9.98-8.29,10.13,3.48-12.12-2.13-4.61,8.29-10.13Z"/>
            <path class="cls-111" d="m400.29,304.83c-.9.1-1.86-.09-2.76,0-1.36.13-5.83-.3-8.29,0q11.74-7.36,23.48-14.73c-3.22,6.26-13.92,12.29-12.43,14.73Z"/>
            <path class="cls-78" d="m391.54,288.26c6.43-.36,1.06,4.42,1.38,6.9-1.1,1.07-2.25-.94-4.14.46-15.56,11.49-.73,1.82-.46-5.98,1.19-.06,3.05-1.37,3.22-1.38Z"/>
            <path class="cls-111" d="m303.16,276.3c4.48-1.13,7.05,3.72,6.9,4.14-1.63,4.89-14.01-2.35-6.9-4.14Z"/>
            <path class="cls-83" d="m307.77,264.33c4.04-.38,5.69,5.28,1.84,6.44-5.09,1.54-7.02-5.95-1.84-6.44Z"/>
            <path class="cls-59" d="m460.13,269.85c-.15.06.45,1.78-3.22,0-1.77,1.1-.83,2.45-2.3,3.68,1.75-5.96-14.67,5.71-4.14-3.68,1.51-1.35,3.16.53,4.14-.46-2.22-5.16,7.54-5.64,1.38-.46l4.14.92Z"/>
            <path class="cls-103" d="m320.65,277.22c4.68-1.37,6.76,3.63,2.76,5.52-3.21,1.51-7.66-4.09-2.76-5.52Z"/>
            <path class="cls-83" d="m289.81,293.79l.92-2.76c.35.26,8.56,1.36,5.52,5.06-3.14,3.84-6.07-2.15-6.44-2.3Z"/>
            <path class="cls-83" d="m300.4,303.91c3.67-1.22,3.19,4.58.92,4.6-1.99.02-3.55-3.73-.92-4.6Z"/>
            <path class="cls-75" d="m421,274.45c3.99,3.21,9.31,14.52,2.3,5.06-.73-.98-4-4.32-2.3-5.06Z"/>
            <path class="cls-49" d="m265.42,306.68c4.99-1.4,4.73,4.89,0,3.68-1.67-.43-1.72-3.2,0-3.68Z"/>
            <path class="cls-82" d="m390.16,284.58c-.76.14-1.94.07-2.76,0-1.82-4.15,4.15-4.58,2.76,0Z"/>
            <path class="cls-105" d="m434.81,263.41c1.28-.05,1.46.08,1.38,1.38-.35,5.54-6.85-1.17-1.38-1.38Z"/>
            <path class="cls-37" d="m284.29,292.87c-.8-.1-.83.23-.92.92h-.92c.15-.88-.09-1.86,0-2.76,1.47.86,1.68,1.75,1.84,1.84Z"/>
            <path class="cls-59" d="m449.54,260.65c.13-.05,2.24,1.25,2.3,1.38,1.22,2.59-4.76-.4-2.3-1.38Z"/>
            <path class="cls-12" d="m311.45,290.11c.11-.08,1.5.93.92,1.84-1.42,2.2-2.09-1.01-.92-1.84Z"/>
            <path class="cls-70" d="m308.69,299.31l.46.46v.92l-.46.46h-.92l-.46-.46.46-.46.46-.46.46-.46Z"/>
            <path class="cls-59" d="m267.26,297.47h.92l.46.46-.46.46-.46.46-.46.46-.46-.46v-.92l.46-.46Z"/>
            <g>
              <path class="cls-63" d="m347.35,265.25c28.18-2.93,34.35,41.76,6.44,46.03-32,4.9-36.33-42.92-6.44-46.03Z"/>
              <g>
                <path class="cls-50" d="m357.02,303.91c-17.8,2.74-31.42-6.82-23.02-25.78,19.55-26.21,47.92,11.73,23.02,25.78Z"/>
                <path class="cls-21" d="m357.02,303.91c-16.66,9.4-35.83-8.59-23.02-25.78-8.41,18.96,5.21,28.52,23.02,25.78Z"/>
                <path class="cls-69" d="m348.27,274.45c19.96-.1,15.19,30.2-3.68,26.7-13.97-2.59-11.49-26.62,3.68-26.7Z"/>
              </g>
            </g>
          </g>
        </g>
      </g>
    </g>
  </g>
</svg>